<?xml version="1.0" encoding="UTF-8" standalone="no"?>
<!-- Created with Inkscape (http://www.inkscape.org/) -->

<svg
   xmlns:dc="http://purl.org/dc/elements/1.1/"
   xmlns:cc="http://creativecommons.org/ns#"
   xmlns:rdf="http://www.w3.org/1999/02/22-rdf-syntax-ns#"
   xmlns:svg="http://www.w3.org/2000/svg"
   xmlns="http://www.w3.org/2000/svg"
   xmlns:sodipodi="http://sodipodi.sourceforge.net/DTD/sodipodi-0.dtd"
   xmlns:inkscape="http://www.inkscape.org/namespaces/inkscape"
   width="210mm"
   height="297mm"
   id="svg17662"
   version="1.1"
   inkscape:version="0.48.3.1 r9886"
   sodipodi:docname="Sheep.svg">
  <defs
     id="defs17664" />
  <sodipodi:namedview
     id="base"
     pagecolor="#ffffff"
     bordercolor="#666666"
     borderopacity="1.0"
     inkscape:pageopacity="0.0"
     inkscape:pageshadow="2"
     inkscape:zoom="0.49497475"
     inkscape:cx="384.48908"
     inkscape:cy="501.68805"
     inkscape:document-units="px"
     inkscape:current-layer="layer1"
     showgrid="false"
     inkscape:window-width="1280"
     inkscape:window-height="754"
     inkscape:window-x="0"
     inkscape:window-y="24"
     inkscape:window-maximized="1" />
  <metadata
     id="metadata17667">
    <rdf:RDF>
      <cc:Work
         rdf:about="">
        <dc:format>image/svg+xml</dc:format>
        <dc:type
           rdf:resource="http://purl.org/dc/dcmitype/StillImage" />
        <dc:title></dc:title>
      </cc:Work>
    </rdf:RDF>
  </metadata>
  <g
     inkscape:label="Capa 1"
     inkscape:groupmode="layer"
     id="layer1">
    <g
       id="g6674"
       transform="matrix(4.8290523,0,0,-5.5827541,259.73124,988.34428)">
      <path
         d="m 0,0 c -17.746,7.351 -29.351,22.588 -29.351,40.194 0,24.786 23.578,44.878 53.386,44.878"
         style="fill:none;stroke:#000000;stroke-width:3;stroke-linecap:round;stroke-linejoin:round;stroke-miterlimit:10;stroke-opacity:1;stroke-dasharray:none"
         id="path6676"
         inkscape:connector-curvature="0" />
    </g>
    <g
       id="g6678"
       transform="matrix(4.8290523,0,0,-5.5827541,290.12483,526.19188)">
      <path
         d="m 0,0 -30.872,21.273 -0.01,-0.005 c -1.632,1.23 -4.106,1.101 -5.742,0.064 -2.075,-1.314 -2.504,-3.605 -1.8,-5.59 l -0.016,-0.013 9.876,-34.821"
         style="fill:none;stroke:#000000;stroke-width:3;stroke-linecap:round;stroke-linejoin:round;stroke-miterlimit:10;stroke-opacity:1;stroke-dasharray:none"
         id="path6680"
         inkscape:connector-curvature="0" />
    </g>
    <g
       id="g6682"
       transform="matrix(4.8290523,0,0,-5.5827541,375.74632,847.24664)">
      <path
         d="m 0,0 c 0,0 -6.08,0.122 -8.582,-1.241 0,0 -1.091,-0.5 -1.091,-1.59 0,0 -0.046,-1.362 0.999,-1.725 1.048,-0.363 3.594,0.409 5.823,-3.86 0,0 0.683,-1.4 2.183,-1.4 l 0.684,0"
         style="fill:none;stroke:#000000;stroke-width:3;stroke-linecap:round;stroke-linejoin:round;stroke-miterlimit:10;stroke-opacity:1;stroke-dasharray:none"
         id="path6684"
         inkscape:connector-curvature="0" />
    </g>
    <g
       id="g6686"
       transform="matrix(4.8290523,0,0,-5.5827541,346.30023,700.87357)">
      <path
         d="m 0,0 c 0.604,-6.168 0.354,-18.09 -8.663,-26.472 0,0 -11.545,-11.657 -11.951,-12.225 l -0.09,-0.118 c -1.118,-1.42 -1.787,-3.213 -1.787,-5.163 0,-4.608 3.736,-8.344 8.344,-8.344 0,0 2.238,-0.345 4.916,0.447 0,0 5.6,11.169 15.339,11.413 l 0,3.521"
         style="fill:none;stroke:#000000;stroke-width:3;stroke-linecap:round;stroke-linejoin:round;stroke-miterlimit:10;stroke-opacity:1;stroke-dasharray:none"
         id="path6688"
         inkscape:connector-curvature="0" />
    </g>
    <g
       id="g6690"
       transform="matrix(4.8290523,0,0,-5.5827541,305.83806,986.40326)">
      <path
         d="M 0,0 C 0,0 4.689,-5.174 14.267,-5.174"
         style="fill:none;stroke:#000000;stroke-width:3;stroke-linecap:round;stroke-linejoin:round;stroke-miterlimit:10;stroke-opacity:1;stroke-dasharray:none"
         id="path6692"
         inkscape:connector-curvature="0" />
    </g>
    <g
       id="g6694"
       transform="matrix(4.8290523,0,0,-5.5827541,103.24434,427.86662)">
      <path
         d="M 0,0 C 0,0 4.03,7.215 28.783,-20.868"
         style="fill:none;stroke:#000000;stroke-width:3;stroke-linecap:round;stroke-linejoin:round;stroke-miterlimit:10;stroke-opacity:1;stroke-dasharray:none"
         id="path6696"
         inkscape:connector-curvature="0" />
    </g>
    <g
       id="g6698"
       transform="matrix(4.8290523,0,0,-5.5827541,311.91687,720.87636)">
      <path
         d="M 0,0 -6.331,10.876"
         style="fill:none;stroke:#000000;stroke-width:3;stroke-linecap:round;stroke-linejoin:round;stroke-miterlimit:10;stroke-opacity:1;stroke-dasharray:none"
         id="path6700"
         inkscape:connector-curvature="0" />
    </g>
    <g
       id="g6702"
       transform="matrix(4.8290523,0,0,-5.5827541,314.79356,780.17682)">
      <path
         d="m 0,0 c 0,0 1.59,4.278 -3.079,5.278 -4.136,0.887 -13.579,2.526 -21.574,4.159 -0.933,0.19 -1.846,0.38 -2.729,0.57"
         style="fill:none;stroke:#000000;stroke-width:3;stroke-linecap:round;stroke-linejoin:round;stroke-miterlimit:10;stroke-opacity:1;stroke-dasharray:none"
         id="path6704"
         inkscape:connector-curvature="0" />
    </g>
    <g
       id="g6706"
       transform="matrix(4.8290523,0,0,-5.5827541,207.13513,730.45011)">
      <path
         d="m 0,0 c 0,0 -1.292,-9.036 9.083,-10.671 0,0 7.791,-1.583 12.167,5.667"
         style="fill:none;stroke:#000000;stroke-width:3;stroke-linecap:round;stroke-linejoin:round;stroke-miterlimit:10;stroke-opacity:1;stroke-dasharray:none"
         id="path6708"
         inkscape:connector-curvature="0" />
    </g>
    <g
       id="g6710"
       transform="matrix(4.8290523,0,0,-5.5827541,256.9159,748.65659)">
      <path
         d="M 0,0 -0.222,-1.838"
         style="fill:none;stroke:#000000;stroke-width:3;stroke-linecap:round;stroke-linejoin:round;stroke-miterlimit:10;stroke-opacity:1;stroke-dasharray:none"
         id="path6712"
         inkscape:connector-curvature="0" />
    </g>
    <g
       id="g6714"
       transform="matrix(4.8290523,0,0,-5.5827541,281.7353,938.82748)">
      <path
         d="M 0,0 C 0,0 -22.889,5.113 -47.726,-9.252"
         style="fill:none;stroke:#000000;stroke-width:3;stroke-linecap:round;stroke-linejoin:round;stroke-miterlimit:10;stroke-opacity:1;stroke-dasharray:none"
         id="path6716"
         inkscape:connector-curvature="0" />
    </g>
    <g
       id="g6718"
       transform="matrix(4.8290523,0,0,-5.5827541,291.53492,911.18615)">
      <path
         d="M 0,0 C 0,0 -25.973,14.609 -58.438,13.96"
         style="fill:none;stroke:#000000;stroke-width:3;stroke-linecap:round;stroke-linejoin:round;stroke-miterlimit:10;stroke-opacity:1;stroke-dasharray:none"
         id="path6720"
         inkscape:connector-curvature="0" />
    </g>
    <g
       id="g6722"
       transform="matrix(4.8290523,0,0,-5.5827541,491.82271,988.34428)">
      <path
         d="m 0,0 c 17.746,7.351 29.351,22.588 29.351,40.194 0,24.786 -23.578,44.878 -53.386,44.878"
         style="fill:none;stroke:#000000;stroke-width:3;stroke-linecap:round;stroke-linejoin:round;stroke-miterlimit:10;stroke-opacity:1;stroke-dasharray:none"
         id="path6724"
         inkscape:connector-curvature="0" />
    </g>
    <g
       id="g6726"
       transform="matrix(4.8290523,0,0,-5.5827541,461.42866,526.19188)">
      <path
         d="m 0,0 30.872,21.273 0.01,-0.005 c 1.632,1.23 4.106,1.101 5.742,0.064 2.075,-1.314 2.504,-3.605 1.8,-5.59 l 0.016,-0.013 -9.876,-34.821"
         style="fill:none;stroke:#000000;stroke-width:3;stroke-linecap:round;stroke-linejoin:round;stroke-miterlimit:10;stroke-opacity:1;stroke-dasharray:none"
         id="path6728"
         inkscape:connector-curvature="0" />
    </g>
    <g
       id="g6730"
       transform="matrix(4.8290523,0,0,-5.5827541,375.80764,847.24664)">
      <path
         d="m 0,0 c 0,0 6.08,0.122 8.582,-1.241 0,0 1.091,-0.5 1.091,-1.59 0,0 0.046,-1.362 -0.999,-1.725 -1.048,-0.363 -3.594,0.409 -5.823,-3.86 0,0 -0.683,-1.4 -2.183,-1.4 l -0.684,0"
         style="fill:none;stroke:#000000;stroke-width:3;stroke-linecap:round;stroke-linejoin:round;stroke-miterlimit:10;stroke-opacity:1;stroke-dasharray:none"
         id="path6732"
         inkscape:connector-curvature="0" />
    </g>
    <g
       id="g6734"
       transform="matrix(4.8290523,0,0,-5.5827541,405.2533,700.87357)">
      <path
         d="m 0,0 c -0.604,-6.168 -0.354,-18.09 8.663,-26.472 0,0 11.545,-11.657 11.951,-12.225 l 0.09,-0.118 c 1.118,-1.42 1.787,-3.213 1.787,-5.163 0,-4.608 -3.736,-8.344 -8.344,-8.344 0,0 -2.238,-0.345 -4.916,0.447 0,0 -5.6,11.169 -15.339,11.413 l 0,3.521"
         style="fill:none;stroke:#000000;stroke-width:3;stroke-linecap:round;stroke-linejoin:round;stroke-miterlimit:10;stroke-opacity:1;stroke-dasharray:none"
         id="path6736"
         inkscape:connector-curvature="0" />
    </g>
    <g
       id="g6738"
       transform="matrix(4.8290523,0,0,-5.5827541,445.71543,986.40326)">
      <path
         d="M 0,0 C 0,0 -4.973,-5.174 -14.55,-5.174"
         style="fill:none;stroke:#000000;stroke-width:3;stroke-linecap:round;stroke-linejoin:round;stroke-miterlimit:10;stroke-opacity:1;stroke-dasharray:none"
         id="path6740"
         inkscape:connector-curvature="0" />
    </g>
    <g
       id="g6742"
       transform="matrix(4.8290523,0,0,-5.5827541,648.30962,427.86662)">
      <path
         d="M 0,0 C 0,0 -4.03,7.215 -28.783,-20.868"
         style="fill:none;stroke:#000000;stroke-width:3;stroke-linecap:round;stroke-linejoin:round;stroke-miterlimit:10;stroke-opacity:1;stroke-dasharray:none"
         id="path6744"
         inkscape:connector-curvature="0" />
    </g>
    <g
       id="g6746"
       transform="matrix(4.8290523,0,0,-5.5827541,439.63662,720.87636)">
      <path
         d="M 0,0 6.331,10.876"
         style="fill:none;stroke:#000000;stroke-width:3;stroke-linecap:round;stroke-linejoin:round;stroke-miterlimit:10;stroke-opacity:1;stroke-dasharray:none"
         id="path6748"
         inkscape:connector-curvature="0" />
    </g>
    <g
       id="g6750"
       transform="matrix(4.8290523,0,0,-5.5827541,436.75997,780.17682)">
      <path
         d="m 0,0 c 0,0 -1.59,4.278 3.079,5.278 4.136,0.887 13.579,2.526 21.574,4.159 0.933,0.19 1.846,0.38 2.729,0.57"
         style="fill:none;stroke:#000000;stroke-width:3;stroke-linecap:round;stroke-linejoin:round;stroke-miterlimit:10;stroke-opacity:1;stroke-dasharray:none"
         id="path6752"
         inkscape:connector-curvature="0" />
    </g>
    <g
       id="g6754"
       transform="matrix(4.8290523,0,0,-5.5827541,544.41886,730.45011)">
      <path
         d="m 0,0 c 0,0 1.292,-9.036 -9.083,-10.671 0,0 -7.791,-1.583 -12.167,5.667"
         style="fill:none;stroke:#000000;stroke-width:3;stroke-linecap:round;stroke-linejoin:round;stroke-miterlimit:10;stroke-opacity:1;stroke-dasharray:none"
         id="path6756"
         inkscape:connector-curvature="0" />
    </g>
    <g
       id="g6758"
       transform="matrix(4.8290523,0,0,-5.5827541,494.63805,748.65659)">
      <path
         d="M 0,0 0.222,-1.838"
         style="fill:none;stroke:#000000;stroke-width:3;stroke-linecap:round;stroke-linejoin:round;stroke-miterlimit:10;stroke-opacity:1;stroke-dasharray:none"
         id="path6760"
         inkscape:connector-curvature="0" />
    </g>
    <g
       id="g6762"
       transform="matrix(4.8290523,0,0,-5.5827541,469.81819,938.82748)">
      <path
         d="M 0,0 C 0,0 22.889,5.113 47.726,-9.252"
         style="fill:none;stroke:#000000;stroke-width:3;stroke-linecap:round;stroke-linejoin:round;stroke-miterlimit:10;stroke-opacity:1;stroke-dasharray:none"
         id="path6764"
         inkscape:connector-curvature="0" />
    </g>
    <g
       id="g6766"
       transform="matrix(4.8290523,0,0,-5.5827541,460.01857,911.18615)">
      <path
         d="M 0,0 C 0,0 25.973,14.609 58.438,13.96"
         style="fill:none;stroke:#000000;stroke-width:3;stroke-linecap:round;stroke-linejoin:round;stroke-miterlimit:10;stroke-opacity:1;stroke-dasharray:none"
         id="path6768"
         inkscape:connector-curvature="0" />
    </g>
  </g>
</svg>
