<?xml version="1.0" encoding="UTF-8" standalone="no"?>
<!-- Created with Inkscape (http://www.inkscape.org/) -->

<svg
   xmlns:dc="http://purl.org/dc/elements/1.1/"
   xmlns:cc="http://creativecommons.org/ns#"
   xmlns:rdf="http://www.w3.org/1999/02/22-rdf-syntax-ns#"
   xmlns:svg="http://www.w3.org/2000/svg"
   xmlns="http://www.w3.org/2000/svg"
   xmlns:sodipodi="http://sodipodi.sourceforge.net/DTD/sodipodi-0.dtd"
   xmlns:inkscape="http://www.inkscape.org/namespaces/inkscape"
   width="210mm"
   height="297mm"
   id="svg17662"
   version="1.1"
   inkscape:version="0.48.3.1 r9886"
   sodipodi:docname="Rabbit.svg">
  <defs
     id="defs17664" />
  <sodipodi:namedview
     id="base"
     pagecolor="#ffffff"
     bordercolor="#666666"
     borderopacity="1.0"
     inkscape:pageopacity="0.0"
     inkscape:pageshadow="2"
     inkscape:zoom="0.49497475"
     inkscape:cx="384.48908"
     inkscape:cy="464.3257"
     inkscape:document-units="px"
     inkscape:current-layer="layer1"
     showgrid="false"
     inkscape:window-width="1280"
     inkscape:window-height="754"
     inkscape:window-x="0"
     inkscape:window-y="24"
     inkscape:window-maximized="1" />
  <metadata
     id="metadata17667">
    <rdf:RDF>
      <cc:Work
         rdf:about="">
        <dc:format>image/svg+xml</dc:format>
        <dc:type
           rdf:resource="http://purl.org/dc/dcmitype/StillImage" />
        <dc:title></dc:title>
      </cc:Work>
    </rdf:RDF>
  </metadata>
  <g
     inkscape:label="Capa 1"
     inkscape:groupmode="layer"
     id="layer1">
    <g
       id="g862"
       transform="matrix(6.4309888,0,0,-6.3900949,331.82632,460.13072)">
      <path
         d="m 0,0 c -14.921,-2.944 -26.174,-16.101 -26.174,-31.885 0,0 1.5,-42.75 -22.25,-47.75"
         style="fill:none;stroke:#000000;stroke-width:3;stroke-linecap:round;stroke-linejoin:round;stroke-miterlimit:10;stroke-opacity:1;stroke-dasharray:none"
         id="path864"
         inkscape:connector-curvature="0" />
    </g>
    <g
       id="g866"
       transform="matrix(6.4309888,0,0,-6.3900949,416.18865,472.17375)">
      <path
         d="m 0,0 c 0,-18.593 -4.125,-31.25 -6.541,-31.25 -2.251,0 -6.543,12.657 -6.543,31.25 0,18.594 4.042,31.806 6.543,31.806 C -3.875,31.806 0,18.594 0,0 z"
         style="fill:none;stroke:#000000;stroke-width:3;stroke-linecap:round;stroke-linejoin:round;stroke-miterlimit:10;stroke-opacity:1;stroke-dasharray:none"
         id="path868"
         inkscape:connector-curvature="0" />
    </g>
    <g
       id="g870"
       transform="matrix(6.4309888,0,0,-6.3900949,249.25304,727.24742)">
      <path
         d="m 0,0 c 0,-1.564 -1.269,-2.833 -2.833,-2.833 -1.564,0 -2.833,1.269 -2.833,2.833 0,1.565 1.269,2.833 2.833,2.833 C -1.269,2.833 0,1.565 0,0 z"
         style="fill:none;stroke:#000000;stroke-width:3;stroke-linecap:round;stroke-linejoin:round;stroke-miterlimit:10;stroke-opacity:1;stroke-dasharray:none"
         id="path872"
         inkscape:connector-curvature="0" />
    </g>
    <g
       id="g874"
       transform="matrix(6.4309888,0,0,-6.3900949,167.79176,658.01714)">
      <path
         d="m 0,0 c 0,0 2.001,-5 9.334,-7.5 0,0 7.833,-2.167 9.833,-7.5"
         style="fill:none;stroke:#000000;stroke-width:3;stroke-linecap:round;stroke-linejoin:round;stroke-miterlimit:10;stroke-opacity:1;stroke-dasharray:none"
         id="path876"
         inkscape:connector-curvature="0" />
    </g>
    <g
       id="g878"
       transform="matrix(6.4309888,0,0,-6.3900949,374.65732,724.05238)">
      <path
         d="m 0,0 c 0,0 -1.5,0.001 -4.5,-3.833 -3,-3.833 -4.667,-6.5 -4.667,-6.5 l 9,-16.333 L 0,0 z"
         style="fill:none;stroke:#000000;stroke-width:3;stroke-linecap:round;stroke-linejoin:round;stroke-miterlimit:10;stroke-opacity:1;stroke-dasharray:none"
         id="path880"
         inkscape:connector-curvature="0" />
    </g>
    <g
       id="g882"
       transform="matrix(6.4309888,0,0,-6.3900949,335.04824,826.51218)">
      <path
         d="m 0,0 c 0,0 -9.896,-7.692 -11.806,-19.021 0,0 -2.037,-8.754 4.073,-11.809 0,0 5.136,-2.641 8.512,1.938 0,0 2.513,2.14 1.644,10.068 -0.869,7.929 0.964,9.954 1.502,10.413"
         style="fill:none;stroke:#000000;stroke-width:3;stroke-linecap:round;stroke-linejoin:round;stroke-miterlimit:10;stroke-opacity:1;stroke-dasharray:none"
         id="path884"
         inkscape:connector-curvature="0" />
    </g>
    <g
       id="g886"
       transform="matrix(6.4309888,0,0,-6.3900949,416.94879,460.13072)">
      <path
         d="m 0,0 c 14.921,-2.944 26.174,-16.101 26.174,-31.885 0,0 -1.5,-42.75 22.25,-47.75"
         style="fill:none;stroke:#000000;stroke-width:3;stroke-linecap:round;stroke-linejoin:round;stroke-miterlimit:10;stroke-opacity:1;stroke-dasharray:none"
         id="path888"
         inkscape:connector-curvature="0" />
    </g>
    <g
       id="g890"
       transform="matrix(6.4309888,0,0,-6.3900949,499.52145,727.24742)">
      <path
         d="m 0,0 c 0,-1.564 1.269,-2.833 2.833,-2.833 1.564,0 2.833,1.269 2.833,2.833 0,1.565 -1.269,2.833 -2.833,2.833 C 1.269,2.833 0,1.565 0,0 z"
         style="fill:none;stroke:#000000;stroke-width:3;stroke-linecap:round;stroke-linejoin:round;stroke-miterlimit:10;stroke-opacity:1;stroke-dasharray:none"
         id="path892"
         inkscape:connector-curvature="0" />
    </g>
    <g
       id="g894"
       transform="matrix(6.4309888,0,0,-6.3900949,580.98274,658.01714)">
      <path
         d="m 0,0 c 0,0 -2.001,-5 -9.334,-7.5 0,0 -7.833,-2.167 -9.833,-7.5"
         style="fill:none;stroke:#000000;stroke-width:3;stroke-linecap:round;stroke-linejoin:round;stroke-miterlimit:10;stroke-opacity:1;stroke-dasharray:none"
         id="path896"
         inkscape:connector-curvature="0" />
    </g>
    <g
       id="g898"
       transform="matrix(6.4309888,0,0,-6.3900949,374.11717,724.05238)">
      <path
         d="m 0,0 c 0,0 1.5,0.001 4.5,-3.833 3,-3.833 4.667,-6.5 4.667,-6.5 l -9,-16.333 L 0,0 z"
         style="fill:none;stroke:#000000;stroke-width:3;stroke-linecap:round;stroke-linejoin:round;stroke-miterlimit:10;stroke-opacity:1;stroke-dasharray:none"
         id="path900"
         inkscape:connector-curvature="0" />
    </g>
    <g
       id="g902"
       transform="matrix(6.4309888,0,0,-6.3900949,414.8954,827.57651)">
      <path
         d="m 0,0 c 0,0 9.714,-7.526 11.624,-18.855 0,0 2.037,-8.754 -4.072,-11.808 0,0 -5.137,-2.641 -8.513,1.938 0,0 -2.513,2.139 -1.643,10.067 0.869,7.93 -0.964,9.955 -1.502,10.413"
         style="fill:none;stroke:#000000;stroke-width:3;stroke-linecap:round;stroke-linejoin:round;stroke-miterlimit:10;stroke-opacity:1;stroke-dasharray:none"
         id="path904"
         inkscape:connector-curvature="0" />
    </g>
  </g>
</svg>
