<?xml version="1.0" encoding="UTF-8" standalone="no"?>
<!-- Created with Inkscape (http://www.inkscape.org/) -->

<svg
   xmlns:dc="http://purl.org/dc/elements/1.1/"
   xmlns:cc="http://creativecommons.org/ns#"
   xmlns:rdf="http://www.w3.org/1999/02/22-rdf-syntax-ns#"
   xmlns:svg="http://www.w3.org/2000/svg"
   xmlns="http://www.w3.org/2000/svg"
   xmlns:sodipodi="http://sodipodi.sourceforge.net/DTD/sodipodi-0.dtd"
   xmlns:inkscape="http://www.inkscape.org/namespaces/inkscape"
   width="210mm"
   height="297mm"
   id="svg17662"
   version="1.1"
   inkscape:version="0.48.3.1 r9886"
   sodipodi:docname="Horse.svg">
  <defs
     id="defs17664" />
  <sodipodi:namedview
     id="base"
     pagecolor="#ffffff"
     bordercolor="#666666"
     borderopacity="1.0"
     inkscape:pageopacity="0.0"
     inkscape:pageshadow="2"
     inkscape:zoom="0.49497475"
     inkscape:cx="384.48908"
     inkscape:cy="501.68805"
     inkscape:document-units="px"
     inkscape:current-layer="layer1"
     showgrid="false"
     inkscape:window-width="1280"
     inkscape:window-height="754"
     inkscape:window-x="0"
     inkscape:window-y="24"
     inkscape:window-maximized="1" />
  <metadata
     id="metadata17667">
    <rdf:RDF>
      <cc:Work
         rdf:about="">
        <dc:format>image/svg+xml</dc:format>
        <dc:type
           rdf:resource="http://purl.org/dc/dcmitype/StillImage" />
        <dc:title></dc:title>
      </cc:Work>
    </rdf:RDF>
  </metadata>
  <g
     inkscape:label="Capa 1"
     inkscape:groupmode="layer"
     id="layer1">
    <g
       id="g1770"
       transform="matrix(5.7286634,0,0,-5.2072504,373.04005,519.80372)">
      <path
         d="m 0,0 c 0,0 -12.25,1.083 -21,-8.083 0,0 0.583,-3.584 -3.25,-6.917 0,0 -3.667,-3.25 -6.917,-2.25 0,0 -3.083,-19.25 -0.583,-31.5 0,0 2.75,-17.375 12.625,-29.75"
         style="fill:none;stroke:#000000;stroke-width:3;stroke-linecap:round;stroke-linejoin:round;stroke-miterlimit:10;stroke-opacity:1;stroke-dasharray:none"
         id="path1772"
         inkscape:connector-curvature="0" />
    </g>
    <g
       id="g1774"
       transform="matrix(5.7286634,0,0,-5.2072504,252.73813,561.89664)">
      <path
         d="m 0,0 c 0,0 -14.625,7.958 -15.25,26.458 0,0 -0.25,2.25 -1.25,2.25 0,0 -3.625,1.43 -4.125,-14.625 0,0 0.125,-15.75 10.458,-23.25"
         style="fill:none;stroke:#000000;stroke-width:3;stroke-linecap:round;stroke-linejoin:round;stroke-miterlimit:10;stroke-opacity:1;stroke-dasharray:none"
         id="path1776"
         inkscape:connector-curvature="0" />
    </g>
    <g
       id="g1778"
       transform="matrix(5.7286634,0,0,-5.2072504,137.44878,473.58916)">
      <path
         d="M 0,0 C 0,0 3.5,-2.125 6,1.375"
         style="fill:none;stroke:#000000;stroke-width:3;stroke-linecap:round;stroke-linejoin:round;stroke-miterlimit:10;stroke-opacity:1;stroke-dasharray:none"
         id="path1780"
         inkscape:connector-curvature="0" />
    </g>
    <g
       id="g1782"
       transform="matrix(5.7286634,0,0,-5.2072504,215.58605,704.13206)">
      <path
         d="M 0,0 C 0,0 4.495,-2.453 3.454,-7.748"
         style="fill:none;stroke:#000000;stroke-width:3;stroke-linecap:round;stroke-linejoin:round;stroke-miterlimit:10;stroke-opacity:1;stroke-dasharray:none"
         id="path1784"
         inkscape:connector-curvature="0" />
    </g>
    <g
       id="g1786"
       transform="matrix(5.7286634,0,0,-5.2072504,226.48366,719.41596)">
      <path
         d="m 0,0 c 0,-1.795 -1.455,-3.25 -3.25,-3.25 -1.795,0 -3.25,1.455 -3.25,3.25 0,1.795 1.455,3.25 3.25,3.25 C -1.455,3.25 0,1.795 0,0 z"
         style="fill:none;stroke:#000000;stroke-width:3;stroke-linecap:round;stroke-linejoin:round;stroke-miterlimit:10;stroke-opacity:1;stroke-dasharray:none"
         id="path1788"
         inkscape:connector-curvature="0" />
    </g>
    <g
       id="g1790"
       transform="matrix(5.7286634,0,0,-5.2072504,188.05065,656.49405)">
      <path
         d="m 0,0 c 0,0 -13.125,11.666 -27.621,6.916 0,0 -3.42,-0.999 -3.712,-4.166 0,0 -1.5,-6.625 7,-10.75 0,0 11.25,-7.125 23.25,1.25"
         style="fill:none;stroke:#000000;stroke-width:3;stroke-linecap:round;stroke-linejoin:round;stroke-miterlimit:10;stroke-opacity:1;stroke-dasharray:none"
         id="path1792"
         inkscape:connector-curvature="0" />
    </g>
    <g
       id="g1794"
       transform="matrix(5.7286634,0,0,-5.2072504,183.27808,671.46469)">
      <path
         d="m 0,0 c 0,0 -14.406,7.781 -21.125,4.25 0,0 -3.375,-1.937 -0.125,-5.375 0,0 4.875,-5.125 21.25,-0.625"
         style="fill:none;stroke:#000000;stroke-width:3;stroke-linecap:round;stroke-linejoin:round;stroke-miterlimit:10;stroke-opacity:1;stroke-dasharray:none"
         id="path1796"
         inkscape:connector-curvature="0" />
    </g>
    <g
       id="g1798"
       transform="matrix(5.7286634,0,0,-5.2072504,310.50083,580.98892)">
      <path
         d="M 0,0 C 0,-1.726 -1.231,-3.125 -2.75,-3.125 -4.269,-3.125 -5.5,-1.726 -5.5,0"
         style="fill:none;stroke:#000000;stroke-width:3;stroke-linecap:round;stroke-linejoin:round;stroke-miterlimit:10;stroke-opacity:1;stroke-dasharray:none"
         id="path1800"
         inkscape:connector-curvature="0" />
    </g>
    <g
       id="g1802"
       transform="matrix(5.7286634,0,0,-5.2072504,373.3368,575.07723)">
      <path
         d="M 0,0 C 0,-1.726 -1.231,-3.125 -2.75,-3.125 -4.269,-3.125 -5.5,-1.726 -5.5,0"
         style="fill:none;stroke:#000000;stroke-width:3;stroke-linecap:round;stroke-linejoin:round;stroke-miterlimit:10;stroke-opacity:1;stroke-dasharray:none"
         id="path1804"
         inkscape:connector-curvature="0" />
    </g>
    <g
       id="g1806"
       transform="matrix(5.7286634,0,0,-5.2072504,341.86815,575.29302)">
      <path
         d="M 0,0 C -0.156,1.719 -1.51,3 -3.022,2.863 -4.534,2.726 -5.634,1.222 -5.478,-0.498"
         style="fill:none;stroke:#000000;stroke-width:3;stroke-linecap:round;stroke-linejoin:round;stroke-miterlimit:10;stroke-opacity:1;stroke-dasharray:none"
         id="path1808"
         inkscape:connector-curvature="0" />
    </g>
    <g
       id="g1810"
       transform="matrix(5.7286634,0,0,-5.2072504,306.35498,778.21623)">
      <path
         d="M 0,0 C 0,0 -1.785,-10.074 5.641,-17.499"
         style="fill:none;stroke:#000000;stroke-width:3;stroke-linecap:round;stroke-linejoin:round;stroke-miterlimit:10;stroke-opacity:1;stroke-dasharray:none"
         id="path1812"
         inkscape:connector-curvature="0" />
    </g>
    <g
       id="g1814"
       transform="matrix(5.7286634,0,0,-5.2072504,331.50725,960.46708)">
      <path
         d="M 0,0 C 0,-1.933 -1.567,-3.5 -3.5,-3.5 -5.433,-3.5 -7,-1.933 -7,0 -7,1.933 -5.433,3.5 -3.5,3.5 -1.567,3.5 0,1.933 0,0 z"
         style="fill:none;stroke:#000000;stroke-width:3;stroke-linecap:round;stroke-linejoin:round;stroke-miterlimit:10;stroke-opacity:1;stroke-dasharray:none"
         id="path1816"
         inkscape:connector-curvature="0" />
    </g>
    <g
       id="g1818"
       transform="matrix(5.7286634,0,0,-5.2072504,335.63592,921.69765)">
      <path
         d="m 0,0 c -1.455,0.982 -3.209,1.555 -5.097,1.555 -2.825,0 -5.35,-1.284 -7.023,-3.3 -1.313,-1.58 -2.102,-3.61 -2.102,-5.825 0,-5.04 4.085,-10.125 9.125,-10.125 0,0 3.126,-0.563 6.251,1.812 3.125,2.375 4.563,2.125 5.375,2.125"
         style="fill:none;stroke:#000000;stroke-width:3;stroke-linecap:round;stroke-linejoin:round;stroke-miterlimit:10;stroke-opacity:1;stroke-dasharray:none"
         id="path1820"
         inkscape:connector-curvature="0" />
    </g>
    <g
       id="g1822"
       transform="matrix(5.7286634,0,0,-5.2072504,325.3031,1014.0601)">
      <path
         d="m 0,0 c 0,0 1.416,-3.028 5.833,-3.028 l 2.5,0"
         style="fill:none;stroke:#000000;stroke-width:3;stroke-linecap:round;stroke-linejoin:round;stroke-miterlimit:10;stroke-opacity:1;stroke-dasharray:none"
         id="path1824"
         inkscape:connector-curvature="0" />
    </g>
    <g
       id="g1826"
       transform="matrix(5.7286634,0,0,-5.2072504,374.47222,519.80372)">
      <path
         d="m 0,0 c 0,0 12.25,1.083 21,-8.083 0,0 -0.583,-3.584 3.25,-6.917 0,0 3.667,-3.25 6.917,-2.25 0,0 3.083,-19.25 0.583,-31.5 0,0 -2.75,-17.375 -12.625,-29.75"
         style="fill:none;stroke:#000000;stroke-width:3;stroke-linecap:round;stroke-linejoin:round;stroke-miterlimit:10;stroke-opacity:1;stroke-dasharray:none"
         id="path1828"
         inkscape:connector-curvature="0" />
    </g>
    <g
       id="g1830"
       transform="matrix(5.7286634,0,0,-5.2072504,494.77415,561.89664)">
      <path
         d="m 0,0 c 0,0 14.625,7.958 15.25,26.458 0,0 0.25,2.25 1.25,2.25 0,0 3.625,1.43 4.125,-14.625 0,0 -0.125,-15.75 -10.458,-23.25"
         style="fill:none;stroke:#000000;stroke-width:3;stroke-linecap:round;stroke-linejoin:round;stroke-miterlimit:10;stroke-opacity:1;stroke-dasharray:none"
         id="path1832"
         inkscape:connector-curvature="0" />
    </g>
    <g
       id="g1834"
       transform="matrix(5.7286634,0,0,-5.2072504,610.06354,473.58916)">
      <path
         d="M 0,0 C 0,0 -3.5,-2.125 -6,1.375"
         style="fill:none;stroke:#000000;stroke-width:3;stroke-linecap:round;stroke-linejoin:round;stroke-miterlimit:10;stroke-opacity:1;stroke-dasharray:none"
         id="path1836"
         inkscape:connector-curvature="0" />
    </g>
    <g
       id="g1838"
       transform="matrix(5.7286634,0,0,-5.2072504,531.92687,704.13206)">
      <path
         d="M 0,0 C 0,0 -4.495,-2.453 -3.454,-7.748"
         style="fill:none;stroke:#000000;stroke-width:3;stroke-linecap:round;stroke-linejoin:round;stroke-miterlimit:10;stroke-opacity:1;stroke-dasharray:none"
         id="path1840"
         inkscape:connector-curvature="0" />
    </g>
    <g
       id="g1842"
       transform="matrix(5.7286634,0,0,-5.2072504,521.02921,719.41596)">
      <path
         d="M 0,0 C 0,-1.795 1.455,-3.25 3.25,-3.25 5.045,-3.25 6.5,-1.795 6.5,0 6.5,1.795 5.045,3.25 3.25,3.25 1.455,3.25 0,1.795 0,0 z"
         style="fill:none;stroke:#000000;stroke-width:3;stroke-linecap:round;stroke-linejoin:round;stroke-miterlimit:10;stroke-opacity:1;stroke-dasharray:none"
         id="path1844"
         inkscape:connector-curvature="0" />
    </g>
    <g
       id="g1846"
       transform="matrix(5.7286634,0,0,-5.2072504,559.46222,656.49405)">
      <path
         d="m 0,0 c 0,0 13.125,11.666 27.621,6.916 0,0 3.42,-0.999 3.712,-4.166 0,0 1.5,-6.625 -7,-10.75 0,0 -11.25,-7.125 -23.25,1.25"
         style="fill:none;stroke:#000000;stroke-width:3;stroke-linecap:round;stroke-linejoin:round;stroke-miterlimit:10;stroke-opacity:1;stroke-dasharray:none"
         id="path1848"
         inkscape:connector-curvature="0" />
    </g>
    <g
       id="g1850"
       transform="matrix(5.7286634,0,0,-5.2072504,564.23424,671.46469)">
      <path
         d="m 0,0 c 0,0 14.406,7.781 21.125,4.25 0,0 3.375,-1.937 0.125,-5.375 0,0 -4.875,-5.125 -21.25,-0.625"
         style="fill:none;stroke:#000000;stroke-width:3;stroke-linecap:round;stroke-linejoin:round;stroke-miterlimit:10;stroke-opacity:1;stroke-dasharray:none"
         id="path1852"
         inkscape:connector-curvature="0" />
    </g>
    <g
       id="g1854"
       transform="matrix(5.7286634,0,0,-5.2072504,437.01204,580.98892)">
      <path
         d="M 0,0 C 0,-1.726 1.231,-3.125 2.75,-3.125 4.269,-3.125 5.5,-1.726 5.5,0"
         style="fill:none;stroke:#000000;stroke-width:3;stroke-linecap:round;stroke-linejoin:round;stroke-miterlimit:10;stroke-opacity:1;stroke-dasharray:none"
         id="path1856"
         inkscape:connector-curvature="0" />
    </g>
    <g
       id="g1858"
       transform="matrix(5.7286634,0,0,-5.2072504,374.17607,575.07723)">
      <path
         d="M 0,0 C 0,-1.726 1.231,-3.125 2.75,-3.125 4.269,-3.125 5.5,-1.726 5.5,0"
         style="fill:none;stroke:#000000;stroke-width:3;stroke-linecap:round;stroke-linejoin:round;stroke-miterlimit:10;stroke-opacity:1;stroke-dasharray:none"
         id="path1860"
         inkscape:connector-curvature="0" />
    </g>
    <g
       id="g1862"
       transform="matrix(5.7286634,0,0,-5.2072504,405.64477,575.29302)">
      <path
         d="M 0,0 C 0.156,1.719 1.51,3 3.022,2.863 4.534,2.726 5.634,1.222 5.478,-0.498"
         style="fill:none;stroke:#000000;stroke-width:3;stroke-linecap:round;stroke-linejoin:round;stroke-miterlimit:10;stroke-opacity:1;stroke-dasharray:none"
         id="path1864"
         inkscape:connector-curvature="0" />
    </g>
    <g
       id="g1866"
       transform="matrix(5.7286634,0,0,-5.2072504,441.15789,778.21623)">
      <path
         d="M 0,0 C 0,0 1.785,-10.074 -5.641,-17.499"
         style="fill:none;stroke:#000000;stroke-width:3;stroke-linecap:round;stroke-linejoin:round;stroke-miterlimit:10;stroke-opacity:1;stroke-dasharray:none"
         id="path1868"
         inkscape:connector-curvature="0" />
    </g>
    <g
       id="g1870"
       transform="matrix(5.7286634,0,0,-5.2072504,416.00503,960.46708)">
      <path
         d="M 0,0 C 0,-1.933 1.567,-3.5 3.5,-3.5 5.433,-3.5 7,-1.933 7,0 7,1.933 5.433,3.5 3.5,3.5 1.567,3.5 0,1.933 0,0 z"
         style="fill:none;stroke:#000000;stroke-width:3;stroke-linecap:round;stroke-linejoin:round;stroke-miterlimit:10;stroke-opacity:1;stroke-dasharray:none"
         id="path1872"
         inkscape:connector-curvature="0" />
    </g>
    <g
       id="g1874"
       transform="matrix(5.7286634,0,0,-5.2072504,411.87641,921.69765)">
      <path
         d="m 0,0 c 1.455,0.982 3.209,1.555 5.097,1.555 2.825,0 5.35,-1.284 7.023,-3.3 1.313,-1.58 2.102,-3.61 2.102,-5.825 0,-5.04 -4.085,-10.125 -9.125,-10.125 0,0 -3.126,-0.563 -6.251,1.812 -3.125,2.375 -4.563,2.125 -5.375,2.125"
         style="fill:none;stroke:#000000;stroke-width:3;stroke-linecap:round;stroke-linejoin:round;stroke-miterlimit:10;stroke-opacity:1;stroke-dasharray:none"
         id="path1876"
         inkscape:connector-curvature="0" />
    </g>
    <g
       id="g1878"
       transform="matrix(5.7286634,0,0,-5.2072504,422.20977,1014.0601)">
      <path
         d="m 0,0 c 0,0 -1.416,-3.028 -5.833,-3.028 l -2.5,0"
         style="fill:none;stroke:#000000;stroke-width:3;stroke-linecap:round;stroke-linejoin:round;stroke-miterlimit:10;stroke-opacity:1;stroke-dasharray:none"
         id="path1880"
         inkscape:connector-curvature="0" />
    </g>
  </g>
</svg>
