<?xml version="1.0" encoding="UTF-8" standalone="no"?>
<!-- Created with Inkscape (http://www.inkscape.org/) -->

<svg
   xmlns:dc="http://purl.org/dc/elements/1.1/"
   xmlns:cc="http://creativecommons.org/ns#"
   xmlns:rdf="http://www.w3.org/1999/02/22-rdf-syntax-ns#"
   xmlns:svg="http://www.w3.org/2000/svg"
   xmlns="http://www.w3.org/2000/svg"
   xmlns:sodipodi="http://sodipodi.sourceforge.net/DTD/sodipodi-0.dtd"
   xmlns:inkscape="http://www.inkscape.org/namespaces/inkscape"
   width="210mm"
   height="297mm"
   id="svg17662"
   version="1.1"
   inkscape:version="0.48.3.1 r9886"
   sodipodi:docname="Lion.svg">
  <defs
     id="defs17664" />
  <sodipodi:namedview
     id="base"
     pagecolor="#ffffff"
     bordercolor="#666666"
     borderopacity="1.0"
     inkscape:pageopacity="0.0"
     inkscape:pageshadow="2"
     inkscape:zoom="0.49497475"
     inkscape:cx="967.60777"
     inkscape:cy="503.94578"
     inkscape:document-units="px"
     inkscape:current-layer="layer1"
     showgrid="false"
     inkscape:window-width="1280"
     inkscape:window-height="754"
     inkscape:window-x="0"
     inkscape:window-y="24"
     inkscape:window-maximized="1" />
  <metadata
     id="metadata17667">
    <rdf:RDF>
      <cc:Work
         rdf:about="">
        <dc:format>image/svg+xml</dc:format>
        <dc:type
           rdf:resource="http://purl.org/dc/dcmitype/StillImage" />
        <dc:title></dc:title>
      </cc:Work>
    </rdf:RDF>
  </metadata>
  <g
     inkscape:label="Capa 1"
     inkscape:groupmode="layer"
     id="layer1">
    <g
       id="g2406"
       transform="matrix(5.743927,0,0,-5.5315628,168.6508,923.03814)">
      <path
         d="m 0,0 c -12.378,15.543 -12.242,35.184 -12.242,35.184 1.999,48.5 32.583,46.917 32.583,46.917 10.125,1 14.417,-4 14.542,-4.209 0.125,-0.208 0.458,-0.291 0.458,-0.291 l 0.167,-26.417"
         style="fill:none;stroke:#000000;stroke-width:3;stroke-linecap:round;stroke-linejoin:round;stroke-miterlimit:10;stroke-opacity:1;stroke-dasharray:none"
         id="path2408"
         inkscape:connector-curvature="0" />
    </g>
    <g
       id="g2410"
       transform="matrix(5.743927,0,0,-5.5315628,198.19527,491.18731)">
      <path
         d="m 0,0 c 1.016,-2.752 -6.771,-3.104 -15.514,-4.519 -0.805,-0.13 -1.59,-0.265 -2.353,-0.401 -7.52,-1.334 -12.866,-2.706 -13.791,-0.209 C -32.077,-4 -23.3,9.026 -17.85,9.909 -12.298,10.81 -0.436,1.18 0,0 z"
         style="fill:none;stroke:#000000;stroke-width:3;stroke-linecap:round;stroke-linejoin:round;stroke-miterlimit:10;stroke-opacity:1;stroke-dasharray:none"
         id="path2412"
         inkscape:connector-curvature="0" />
    </g>
    <g
       id="g2414"
       transform="matrix(5.743927,0,0,-5.5315628,96.049863,519.3257)">
      <path
         d="M 0,0 C 0,0 6.355,-5.383 5.605,-11.008"
         style="fill:none;stroke:#000000;stroke-width:3;stroke-linecap:round;stroke-linejoin:round;stroke-miterlimit:10;stroke-opacity:1;stroke-dasharray:none"
         id="path2416"
         inkscape:connector-curvature="0" />
    </g>
    <g
       id="g2418"
       transform="matrix(5.743927,0,0,-5.5315628,276.39424,704.44941)">
      <path
         d="m 0,0 c 0,-2.025 -1.642,-3.667 -3.667,-3.667 -2.025,0 -3.667,1.642 -3.667,3.667 0,2.025 1.642,3.667 3.667,3.667 C -1.642,3.667 0,2.025 0,0 z"
         style="fill:none;stroke:#000000;stroke-width:3;stroke-linecap:round;stroke-linejoin:round;stroke-miterlimit:10;stroke-opacity:1;stroke-dasharray:none"
         id="path2420"
         inkscape:connector-curvature="0" />
    </g>
    <g
       id="g2422"
       transform="matrix(5.743927,0,0,-5.5315628,255.33182,684.16539)">
      <path
         d="M 0,0 C 0,0 -5.667,1.667 -9,-4.667 -12.333,-11 -18.833,-17.5 -26.833,-10.5"
         style="fill:none;stroke:#000000;stroke-width:3;stroke-linecap:round;stroke-linejoin:round;stroke-miterlimit:10;stroke-opacity:1;stroke-dasharray:none"
         id="path2424"
         inkscape:connector-curvature="0" />
    </g>
    <g
       id="g2426"
       transform="matrix(5.743927,0,0,-5.5315628,116.52352,823.37801)">
      <path
         d="M 0,0 C 0,0 11.334,-4.999 17.667,5.334"
         style="fill:none;stroke:#000000;stroke-width:3;stroke-linecap:round;stroke-linejoin:round;stroke-miterlimit:10;stroke-opacity:1;stroke-dasharray:none"
         id="path2428"
         inkscape:connector-curvature="0" />
    </g>
    <g
       id="g2430"
       transform="matrix(5.743927,0,0,-5.5315628,326.95115,670.14708)">
      <path
         d="M 0,0 C 0,0 -6.465,14.866 -24.416,4.53"
         style="fill:none;stroke:#000000;stroke-width:3;stroke-linecap:round;stroke-linejoin:round;stroke-miterlimit:10;stroke-opacity:1;stroke-dasharray:none"
         id="path2432"
         inkscape:connector-curvature="0" />
    </g>
    <g
       id="g2434"
       transform="matrix(5.743927,0,0,-5.5315628,434.82954,793.18143)">
      <path
         d="m 0,0 c 0,-3.866 -4,-10.292 -11,-10.292 -7.375,0 -11,6.551 -11,10.417 0,3.5 4.925,3.583 11,3.583 C -4.925,3.708 0,3.25 0,0 z"
         style="fill:none;stroke:#000000;stroke-width:3;stroke-linecap:round;stroke-linejoin:round;stroke-miterlimit:10;stroke-opacity:1;stroke-dasharray:none"
         id="path2436"
         inkscape:connector-curvature="0" />
    </g>
    <g
       id="g2438"
       transform="matrix(5.743927,0,0,-5.5315628,388.16013,820.83924)">
      <path
         d="M 0,0 C 0,0 -0.5,4.125 3,4.125"
         style="fill:none;stroke:#000000;stroke-width:3;stroke-linecap:round;stroke-linejoin:round;stroke-miterlimit:10;stroke-opacity:1;stroke-dasharray:none"
         id="path2440"
         inkscape:connector-curvature="0" />
    </g>
    <g
       id="g2442"
       transform="matrix(5.743927,0,0,-5.5315628,354.75634,820.83924)">
      <path
         d="M 0,0 C 0,0 0.5,4.125 -3,4.125"
         style="fill:none;stroke:#000000;stroke-width:3;stroke-linecap:round;stroke-linejoin:round;stroke-miterlimit:10;stroke-opacity:1;stroke-dasharray:none"
         id="path2444"
         inkscape:connector-curvature="0" />
    </g>
    <g
       id="g2446"
       transform="matrix(5.743927,0,0,-5.5315628,333.91223,966.31797)">
      <path
         d="M 0,0 -6.646,5.56 -4.209,-6.013"
         style="fill:none;stroke:#000000;stroke-width:3;stroke-linecap:round;stroke-linejoin:round;stroke-miterlimit:10;stroke-opacity:1;stroke-dasharray:none"
         id="path2448"
         inkscape:connector-curvature="0" />
    </g>
    <g
       id="g2450"
       transform="matrix(5.743927,0,0,-5.5315628,410.49022,966.31797)">
      <path
         d="M 0,0 6.646,5.56 4.209,-6.013"
         style="fill:none;stroke:#000000;stroke-width:3;stroke-linecap:round;stroke-linejoin:round;stroke-miterlimit:10;stroke-opacity:1;stroke-dasharray:none"
         id="path2452"
         inkscape:connector-curvature="0" />
    </g>
    <g
       id="g2454"
       transform="matrix(5.743927,0,0,-5.5315628,575.03383,922.78413)">
      <path
         d="m 0,0 c 12.34,15.536 12.205,35.138 12.205,35.138 -1.999,48.5 -32.583,46.917 -32.583,46.917 -10.125,1 -14.417,-4 -14.542,-4.209 -0.125,-0.208 -0.458,-0.291 -0.458,-0.291"
         style="fill:none;stroke:#000000;stroke-width:3;stroke-linecap:round;stroke-linejoin:round;stroke-miterlimit:10;stroke-opacity:1;stroke-dasharray:none"
         id="path2456"
         inkscape:connector-curvature="0" />
    </g>
    <g
       id="g2458"
       transform="matrix(5.743927,0,0,-5.5315628,545.27661,491.18731)">
      <path
         d="m 0,0 c -1.016,-2.752 6.771,-3.104 15.514,-4.519 0.805,-0.13 1.59,-0.265 2.353,-0.401 7.52,-1.334 12.866,-2.706 13.791,-0.209 C 32.078,-4 23.3,9.026 17.85,9.909 12.298,10.81 0.436,1.18 0,0 z"
         style="fill:none;stroke:#000000;stroke-width:3;stroke-linecap:round;stroke-linejoin:round;stroke-miterlimit:10;stroke-opacity:1;stroke-dasharray:none"
         id="path2460"
         inkscape:connector-curvature="0" />
    </g>
    <g
       id="g2462"
       transform="matrix(5.743927,0,0,-5.5315628,647.42202,519.3257)">
      <path
         d="M 0,0 C 0,0 -6.355,-5.383 -5.605,-11.008"
         style="fill:none;stroke:#000000;stroke-width:3;stroke-linecap:round;stroke-linejoin:round;stroke-miterlimit:10;stroke-opacity:1;stroke-dasharray:none"
         id="path2464"
         inkscape:connector-curvature="0" />
    </g>
    <g
       id="g2466"
       transform="matrix(5.743927,0,0,-5.5315628,467.07709,704.44941)">
      <path
         d="m 0,0 c 0,-2.025 1.642,-3.667 3.667,-3.667 2.025,0 3.667,1.642 3.667,3.667 0,2.025 -1.642,3.667 -3.667,3.667 C 1.642,3.667 0,2.025 0,0 z"
         style="fill:none;stroke:#000000;stroke-width:3;stroke-linecap:round;stroke-linejoin:round;stroke-miterlimit:10;stroke-opacity:1;stroke-dasharray:none"
         id="path2468"
         inkscape:connector-curvature="0" />
    </g>
    <g
       id="g2470"
       transform="matrix(5.743927,0,0,-5.5315628,488.14011,684.16539)">
      <path
         d="M 0,0 C 0,0 5.667,1.667 9,-4.667 12.333,-11 18.833,-17.5 26.833,-10.5"
         style="fill:none;stroke:#000000;stroke-width:3;stroke-linecap:round;stroke-linejoin:round;stroke-miterlimit:10;stroke-opacity:1;stroke-dasharray:none"
         id="path2472"
         inkscape:connector-curvature="0" />
    </g>
    <g
       id="g2474"
       transform="matrix(5.743927,0,0,-5.5315628,626.9479,823.37801)">
      <path
         d="M 0,0 C 0,0 -11.334,-4.999 -17.667,5.334"
         style="fill:none;stroke:#000000;stroke-width:3;stroke-linecap:round;stroke-linejoin:round;stroke-miterlimit:10;stroke-opacity:1;stroke-dasharray:none"
         id="path2476"
         inkscape:connector-curvature="0" />
    </g>
    <g
       id="g2478"
       transform="matrix(5.743927,0,0,-5.5315628,416.52079,670.14708)">
      <path
         d="M 0,0 C 0,0 6.465,14.866 24.416,4.53"
         style="fill:none;stroke:#000000;stroke-width:3;stroke-linecap:round;stroke-linejoin:round;stroke-miterlimit:10;stroke-opacity:1;stroke-dasharray:none"
         id="path2480"
         inkscape:connector-curvature="0" />
    </g>
    <g
       id="g2482"
       transform="matrix(5.743927,0,0,-5.5315628,303.65553,793.48943)">
      <path
         d="m 0,0 c -9.882,-2.07 -19.215,-8.07 -23.068,-23.069 0,0 -2.48,-11.167 4.752,-16.5 0,0 8.225,-6.25 16.587,-1.375 0,0 2.606,1.541 3.246,2.625 0.639,1.083 1.559,9.5 10.509,9.5"
         style="fill:none;stroke:#000000;stroke-width:3;stroke-linecap:round;stroke-linejoin:round;stroke-miterlimit:10;stroke-opacity:1;stroke-dasharray:none"
         id="path2484"
         inkscape:connector-curvature="0" />
    </g>
    <g
       id="g2486"
       transform="matrix(5.743927,0,0,-5.5315628,440.54534,793.48943)">
      <path
         d="m 0,0 c 9.882,-2.07 19.215,-8.07 23.068,-23.069 0,0 2.481,-11.167 -4.752,-16.5 0,0 -8.225,-6.25 -16.587,-1.375 0,0 -2.606,1.541 -3.246,2.625 -0.639,1.083 -1.559,9.5 -10.509,9.5 l 0,18.583"
         style="fill:none;stroke:#000000;stroke-width:3;stroke-linecap:round;stroke-linejoin:round;stroke-miterlimit:10;stroke-opacity:1;stroke-dasharray:none"
         id="path2488"
         inkscape:connector-curvature="0" />
    </g>
    <g
       id="g2490"
       transform="matrix(5.743927,0,0,-5.5315628,311.99685,1007.0489)">
      <path
         d="M 0,0 C 0,0 9.938,-3.837 21.25,0.163"
         style="fill:none;stroke:#000000;stroke-width:3;stroke-linecap:round;stroke-linejoin:round;stroke-miterlimit:10;stroke-opacity:1;stroke-dasharray:none"
         id="path2492"
         inkscape:connector-curvature="0" />
    </g>
    <g
       id="g2494"
       transform="matrix(5.743927,0,0,-5.5315628,305.10869,866.89061)">
      <path
         d="m 0,0 c 0,-1.201 -0.975,-2.175 -2.175,-2.175 -1.202,0 -2.175,0.974 -2.175,2.175 0,1.201 0.973,2.175 2.175,2.175 C -0.975,2.175 0,1.201 0,0"
         style="fill:#000000;fill-opacity:1;fill-rule:nonzero;stroke:none"
         id="path2496"
         inkscape:connector-curvature="0" />
    </g>
    <g
       id="g2498"
       transform="matrix(5.743927,0,0,-5.5315628,247.37188,900.91188)">
      <path
         d="m 0,0 c 0,-1.201 -0.974,-2.175 -2.174,-2.175 -1.202,0 -2.176,0.974 -2.176,2.175 0,1.201 0.974,2.175 2.176,2.175 C -0.974,2.175 0,1.201 0,0"
         style="fill:#000000;fill-opacity:1;fill-rule:nonzero;stroke:none"
         id="path2500"
         inkscape:connector-curvature="0" />
    </g>
    <g
       id="g2502"
       transform="matrix(5.743927,0,0,-5.5315628,249.95785,953.18604)">
      <path
         d="m 0,0 c 0,-1.201 -0.975,-2.175 -2.174,-2.175 -1.201,0 -2.176,0.974 -2.176,2.175 0,1.201 0.975,2.175 2.176,2.175 C -0.975,2.175 0,1.201 0,0"
         style="fill:#000000;fill-opacity:1;fill-rule:nonzero;stroke:none"
         id="path2504"
         inkscape:connector-curvature="0" />
    </g>
    <g
       id="g2506"
       transform="matrix(5.743927,0,0,-5.5315628,434.0553,866.89061)">
      <path
         d="M 0,0 C 0,-1.201 0.973,-2.175 2.174,-2.175 3.375,-2.175 4.35,-1.201 4.35,0 4.35,1.201 3.375,2.175 2.174,2.175 0.973,2.175 0,1.201 0,0"
         style="fill:#000000;fill-opacity:1;fill-rule:nonzero;stroke:none"
         id="path2508"
         inkscape:connector-curvature="0" />
    </g>
    <g
       id="g2510"
       transform="matrix(5.743927,0,0,-5.5315628,491.78636,900.91188)">
      <path
         d="M 0,0 C 0,-1.201 0.974,-2.175 2.174,-2.175 3.375,-2.175 4.35,-1.201 4.35,0 4.35,1.201 3.375,2.175 2.174,2.175 0.974,2.175 0,1.201 0,0"
         style="fill:#000000;fill-opacity:1;fill-rule:nonzero;stroke:none"
         id="path2512"
         inkscape:connector-curvature="0" />
    </g>
    <g
       id="g2514"
       transform="matrix(5.743927,0,0,-5.5315628,494.37747,953.18604)">
      <path
         d="m 0,0 c 0,-1.201 0.973,-2.175 2.174,-2.175 1.201,0 2.174,0.974 2.174,2.175 0,1.201 -0.973,2.175 -2.174,2.175 C 0.973,2.175 0,1.201 0,0"
         style="fill:#000000;fill-opacity:1;fill-rule:nonzero;stroke:none"
         id="path2516"
         inkscape:connector-curvature="0" />
    </g>
  </g>
</svg>
