<?xml version="1.0" encoding="UTF-8" standalone="no"?>
<!-- Created with Inkscape (http://www.inkscape.org/) -->

<svg
   xmlns:dc="http://purl.org/dc/elements/1.1/"
   xmlns:cc="http://creativecommons.org/ns#"
   xmlns:rdf="http://www.w3.org/1999/02/22-rdf-syntax-ns#"
   xmlns:svg="http://www.w3.org/2000/svg"
   xmlns="http://www.w3.org/2000/svg"
   xmlns:sodipodi="http://sodipodi.sourceforge.net/DTD/sodipodi-0.dtd"
   xmlns:inkscape="http://www.inkscape.org/namespaces/inkscape"
   width="210mm"
   height="297mm"
   id="svg17662"
   version="1.1"
   inkscape:version="0.48.3.1 r9886"
   sodipodi:docname="Nuevo documento 3">
  <defs
     id="defs17664" />
  <sodipodi:namedview
     id="base"
     pagecolor="#ffffff"
     bordercolor="#666666"
     borderopacity="1.0"
     inkscape:pageopacity="0.0"
     inkscape:pageshadow="2"
     inkscape:zoom="0.35"
     inkscape:cx="350"
     inkscape:cy="429.33931"
     inkscape:document-units="px"
     inkscape:current-layer="layer1"
     showgrid="false"
     inkscape:window-width="1280"
     inkscape:window-height="754"
     inkscape:window-x="0"
     inkscape:window-y="24"
     inkscape:window-maximized="1" />
  <metadata
     id="metadata17667">
    <rdf:RDF>
      <cc:Work
         rdf:about="">
        <dc:format>image/svg+xml</dc:format>
        <dc:type
           rdf:resource="http://purl.org/dc/dcmitype/StillImage" />
        <dc:title></dc:title>
      </cc:Work>
    </rdf:RDF>
  </metadata>
  <g
     inkscape:label="Capa 1"
     inkscape:groupmode="layer"
     id="layer1">
    <g
       id="g3002"
       transform="matrix(4.6041778,0,0,-4.7975822,211.45573,639.84057)">
      <path
         d="m 0,0 c -6.726,1.894 -11.655,8.073 -11.655,15.403 0,8.837 7.163,16 16,16 7.848,0 14.377,-5.651 15.738,-13.106"
         style="fill:none;stroke:#000000;stroke-width:3;stroke-linecap:round;stroke-linejoin:round;stroke-miterlimit:10;stroke-opacity:1;stroke-dasharray:none"
         id="path3004"
         inkscape:connector-curvature="0" />
    </g>
    <g
       id="g3006"
       transform="matrix(4.6041778,0,0,-4.7975822,261.67442,553.94799)">
      <path
         d="m 0,0 c 0,-5.971 -4.841,-10.813 -10.813,-10.813 -5.971,0 -10.812,4.842 -10.812,10.813 0,5.972 4.841,10.813 10.812,10.813 C -4.841,10.813 0,5.972 0,0 z"
         style="fill:none;stroke:#000000;stroke-width:3;stroke-linecap:round;stroke-linejoin:round;stroke-miterlimit:10;stroke-opacity:1;stroke-dasharray:none"
         id="path3008"
         inkscape:connector-curvature="0" />
    </g>
    <g
       id="g3010"
       transform="matrix(4.6041778,0,0,-4.7975822,228.00638,555.74708)">
      <path
         d="m 0,0 c 0,-1.863 -1.511,-3.375 -3.375,-3.375 -1.864,0 -3.375,1.512 -3.375,3.375 0,1.864 1.511,3.375 3.375,3.375 C -1.511,3.375 0,1.864 0,0 z"
         style="fill:none;stroke:#000000;stroke-width:3;stroke-linecap:round;stroke-linejoin:round;stroke-miterlimit:10;stroke-opacity:1;stroke-dasharray:none"
         id="path3012"
         inkscape:connector-curvature="0" />
    </g>
    <g
       id="g3014"
       transform="matrix(4.6041778,0,0,-4.7975822,170.71936,612.4233)">
      <path
         d="m 0,0 c -0.93,-0.979 -1.866,-2 -2.808,-3.062 0,0 -9.249,-10.334 -14.416,-22.167 0,0 -0.333,-0.833 0,-1.666 0.333,-0.834 20.999,-31.5 61.333,-34.5"
         style="fill:none;stroke:#000000;stroke-width:3;stroke-linecap:round;stroke-linejoin:round;stroke-miterlimit:10;stroke-opacity:1;stroke-dasharray:none"
         id="path3016"
         inkscape:connector-curvature="0" />
    </g>
    <g
       id="g3018"
       transform="matrix(4.6041778,0,0,-4.7975822,373.80689,497.5764)">
      <path
         d="M 0,0 C 0,0 -7.131,0.583 -18.063,-4.448"
         style="fill:none;stroke:#000000;stroke-width:3;stroke-linecap:round;stroke-linejoin:round;stroke-miterlimit:10;stroke-opacity:1;stroke-dasharray:none"
         id="path3020"
         inkscape:connector-curvature="0" />
    </g>
    <g
       id="g3022"
       transform="matrix(4.6041778,0,0,-4.7975822,92.952031,745.45308)">
      <path
         d="M 0,0 C 0,0 7.166,3.167 16.5,-1 25.834,-5.166 40.333,-15.666 61,-15.666"
         style="fill:none;stroke:#000000;stroke-width:3;stroke-linecap:round;stroke-linejoin:round;stroke-miterlimit:10;stroke-opacity:1;stroke-dasharray:none"
         id="path3024"
         inkscape:connector-curvature="0" />
    </g>
    <g
       id="g3026"
       transform="matrix(4.6041778,0,0,-4.7975822,354.62128,738.6549)">
      <path
         d="M 0,0 C 0,-1.38 -1.119,-2.5 -2.5,-2.5 -3.881,-2.5 -5,-1.38 -5,0 -5,1.381 -3.881,2.5 -2.5,2.5 -1.119,2.5 0,1.381 0,0 z"
         style="fill:none;stroke:#000000;stroke-width:3;stroke-linecap:round;stroke-linejoin:round;stroke-miterlimit:10;stroke-opacity:1;stroke-dasharray:none"
         id="path3028"
         inkscape:connector-curvature="0" />
    </g>
    <g
       id="g3030"
       transform="matrix(4.6041778,0,0,-4.7975822,537.11571,639.84057)">
      <path
         d="m 0,0 c 6.726,1.894 11.655,8.073 11.655,15.403 0,8.837 -7.163,16 -16,16 -7.848,0 -14.377,-5.651 -15.738,-13.106"
         style="fill:none;stroke:#000000;stroke-width:3;stroke-linecap:round;stroke-linejoin:round;stroke-miterlimit:10;stroke-opacity:1;stroke-dasharray:none"
         id="path3032"
         inkscape:connector-curvature="0" />
    </g>
    <g
       id="g3034"
       transform="matrix(4.6041778,0,0,-4.7975822,486.89699,553.94799)">
      <path
         d="m 0,0 c 0,-5.971 4.841,-10.813 10.813,-10.813 5.971,0 10.812,4.842 10.812,10.813 0,5.972 -4.841,10.813 -10.812,10.813 C 4.841,10.813 0,5.972 0,0 z"
         style="fill:none;stroke:#000000;stroke-width:3;stroke-linecap:round;stroke-linejoin:round;stroke-miterlimit:10;stroke-opacity:1;stroke-dasharray:none"
         id="path3036"
         inkscape:connector-curvature="0" />
    </g>
    <g
       id="g3038"
       transform="matrix(4.6041778,0,0,-4.7975822,520.56506,555.74708)">
      <path
         d="M 0,0 C 0,-1.863 1.511,-3.375 3.375,-3.375 5.239,-3.375 6.75,-1.863 6.75,0 6.75,1.864 5.239,3.375 3.375,3.375 1.511,3.375 0,1.864 0,0 z"
         style="fill:none;stroke:#000000;stroke-width:3;stroke-linecap:round;stroke-linejoin:round;stroke-miterlimit:10;stroke-opacity:1;stroke-dasharray:none"
         id="path3040"
         inkscape:connector-curvature="0" />
    </g>
    <g
       id="g3042"
       transform="matrix(4.6041778,0,0,-4.7975822,577.85208,612.4233)">
      <path
         d="m 0,0 c 0.93,-0.979 1.866,-2 2.808,-3.062 0,0 9.249,-10.334 14.416,-22.167 0,0 0.333,-0.833 0,-1.666 -0.333,-0.834 -20.999,-31.5 -61.333,-34.5"
         style="fill:none;stroke:#000000;stroke-width:3;stroke-linecap:round;stroke-linejoin:round;stroke-miterlimit:10;stroke-opacity:1;stroke-dasharray:none"
         id="path3044"
         inkscape:connector-curvature="0" />
    </g>
    <g
       id="g3046"
       transform="matrix(4.6041778,0,0,-4.7975822,374.76455,497.5764)">
      <path
         d="M 0,0 C 0,0 7.131,0.583 18.063,-4.448"
         style="fill:none;stroke:#000000;stroke-width:3;stroke-linecap:round;stroke-linejoin:round;stroke-miterlimit:10;stroke-opacity:1;stroke-dasharray:none"
         id="path3048"
         inkscape:connector-curvature="0" />
    </g>
    <g
       id="g3050"
       transform="matrix(4.6041778,0,0,-4.7975822,655.61941,745.45308)">
      <path
         d="M 0,0 C 0,0 -7.166,3.167 -16.5,-1 -25.834,-5.166 -40.333,-15.666 -61,-15.666"
         style="fill:none;stroke:#000000;stroke-width:3;stroke-linecap:round;stroke-linejoin:round;stroke-miterlimit:10;stroke-opacity:1;stroke-dasharray:none"
         id="path3052"
         inkscape:connector-curvature="0" />
    </g>
    <g
       id="g3054"
       transform="matrix(4.6041778,0,0,-4.7975822,393.95016,738.6549)">
      <path
         d="M 0,0 C 0,-1.38 1.119,-2.5 2.5,-2.5 3.881,-2.5 5,-1.38 5,0 5,1.381 3.881,2.5 2.5,2.5 1.119,2.5 0,1.381 0,0 z"
         style="fill:none;stroke:#000000;stroke-width:3;stroke-linecap:round;stroke-linejoin:round;stroke-miterlimit:10;stroke-opacity:1;stroke-dasharray:none"
         id="path3056"
         inkscape:connector-curvature="0" />
    </g>
  </g>
</svg>
