<?xml version="1.0" encoding="UTF-8" standalone="no"?>
<!-- Created with Inkscape (http://www.inkscape.org/) -->

<svg
   xmlns:dc="http://purl.org/dc/elements/1.1/"
   xmlns:cc="http://creativecommons.org/ns#"
   xmlns:rdf="http://www.w3.org/1999/02/22-rdf-syntax-ns#"
   xmlns:svg="http://www.w3.org/2000/svg"
   xmlns="http://www.w3.org/2000/svg"
   xmlns:sodipodi="http://sodipodi.sourceforge.net/DTD/sodipodi-0.dtd"
   xmlns:inkscape="http://www.inkscape.org/namespaces/inkscape"
   width="210mm"
   height="297mm"
   id="svg17662"
   version="1.1"
   inkscape:version="0.48.3.1 r9886"
   sodipodi:docname="Gorilla.svg">
  <defs
     id="defs17664" />
  <sodipodi:namedview
     id="base"
     pagecolor="#ffffff"
     bordercolor="#666666"
     borderopacity="1.0"
     inkscape:pageopacity="0.0"
     inkscape:pageshadow="2"
     inkscape:zoom="0.49497475"
     inkscape:cx="384.48908"
     inkscape:cy="501.68805"
     inkscape:document-units="px"
     inkscape:current-layer="layer1"
     showgrid="false"
     inkscape:window-width="1280"
     inkscape:window-height="754"
     inkscape:window-x="0"
     inkscape:window-y="24"
     inkscape:window-maximized="1" />
  <metadata
     id="metadata17667">
    <rdf:RDF>
      <cc:Work
         rdf:about="">
        <dc:format>image/svg+xml</dc:format>
        <dc:type
           rdf:resource="http://purl.org/dc/dcmitype/StillImage" />
        <dc:title></dc:title>
      </cc:Work>
    </rdf:RDF>
  </metadata>
  <g
     inkscape:label="Capa 1"
     inkscape:groupmode="layer"
     id="layer1">
    <g
       id="g2086"
       transform="matrix(7.8514627,0,0,-7.0366327,162.80538,275.48832)">
      <path
         d="m 0,0 c 0,0 2.686,4.554 6.188,6.422 0,0 -5.488,10.743 -6.072,12.495 0,0 -3.911,-0.234 -4.262,-6.481 0,0 -0.583,-6.539 4.146,-12.436 z"
         style="fill:none;stroke:#000000;stroke-width:3;stroke-linecap:round;stroke-linejoin:round;stroke-miterlimit:10;stroke-opacity:1;stroke-dasharray:none"
         id="path2088"
         inkscape:connector-curvature="0" />
    </g>
    <g
       id="g2090"
       transform="matrix(7.8514627,0,0,-7.0366327,598.89917,275.48832)">
      <path
         d="m 0,0 c 0,0 -2.686,4.554 -6.188,6.422 0,0 5.489,10.743 6.073,12.495 0,0 3.91,-0.234 4.261,-6.481 C 4.146,12.436 4.73,5.897 0,0 z"
         style="fill:none;stroke:#000000;stroke-width:3;stroke-linecap:round;stroke-linejoin:round;stroke-miterlimit:10;stroke-opacity:1;stroke-dasharray:none"
         id="path2092"
         inkscape:connector-curvature="0" />
    </g>
    <g
       id="g2094"
       transform="matrix(7.8514627,0,0,-7.0366327,318.91055,946.27701)">
      <path
         d="m 0,0 c -2.011,0 -3.641,-1.629 -3.641,-3.641 0,-2.011 1.63,-3.64 3.641,-3.64 2.011,0 3.642,1.629 3.642,3.64 C 3.642,-1.629 2.011,0 0,0 z"
         style="fill:none;stroke:#000000;stroke-width:3;stroke-linecap:round;stroke-linejoin:round;stroke-miterlimit:10;stroke-opacity:1;stroke-dasharray:none"
         id="path2096"
         inkscape:connector-curvature="0" />
    </g>
    <g
       id="g2098"
       transform="matrix(7.8514627,0,0,-7.0366327,347.50243,971.89429)">
      <path
         d="M 0,0 C 0,0 -0.456,6.297 -8.648,6.297"
         style="fill:none;stroke:#000000;stroke-width:3;stroke-linecap:round;stroke-linejoin:round;stroke-miterlimit:10;stroke-opacity:1;stroke-dasharray:none"
         id="path2100"
         inkscape:connector-curvature="0" />
    </g>
    <g
       id="g2102"
       transform="matrix(7.8514627,0,0,-7.0366327,246.0741,886.46563)">
      <path
         d="m 0,0 c 0,0 11.125,8 11.875,8.75 0,0 1.75,1.25 1.875,4.125 0.125,2.875 0,29.875 0,29.875 0,0 0.25,1.438 -1.125,3.063 -1.375,1.625 -7.062,10.812 -7.062,10.812 0,0 -0.375,0.813 0,1.688 0.375,0.875 11.771,24.52 11.771,24.52"
         style="fill:none;stroke:#000000;stroke-width:3;stroke-linecap:round;stroke-linejoin:round;stroke-miterlimit:10;stroke-opacity:1;stroke-dasharray:none"
         id="path2104"
         inkscape:connector-curvature="0" />
    </g>
    <g
       id="g2106"
       transform="matrix(7.8514627,0,0,-7.0366327,132.87956,491.2388)">
      <path
         d="M 0,0 C 0,0 10.334,-0.75 10.917,-12.75"
         style="fill:none;stroke:#000000;stroke-width:3;stroke-linecap:round;stroke-linejoin:round;stroke-miterlimit:10;stroke-opacity:1;stroke-dasharray:none"
         id="path2108"
         inkscape:connector-curvature="0" />
    </g>
    <g
       id="g2110"
       transform="matrix(7.8514627,0,0,-7.0366327,180.64001,527.697)">
      <path
         d="m 0,0 c -0.279,-1.715 -1.979,-2.865 -3.796,-2.569 -1.817,0.296 -3.063,1.924 -2.785,3.639 0.279,1.716 1.977,2.867 3.795,2.571 C -0.969,3.346 0.279,1.716 0,0 z"
         style="fill:none;stroke:#000000;stroke-width:3;stroke-linecap:round;stroke-linejoin:round;stroke-miterlimit:10;stroke-opacity:1;stroke-dasharray:none"
         id="path2112"
         inkscape:connector-curvature="0" />
    </g>
    <g
       id="g2114"
       transform="matrix(7.8514627,0,0,-7.0366327,248.03696,213.29575)">
      <path
         d="m 0,0 c 0,0 -4.165,-10.667 -1.999,-23.667 0,0 3.333,9.5 4.999,10.834 0,0 1.5,-14.667 3.834,-21.167 0,0 13.168,29.778 20,35.889 0,0 -1.336,2.944 -9.502,3.611 0,0 -9,0.333 -17.332,-5.5 0,0 -0.918,-0.889 -1.917,1.889 -1,2.778 -7.916,19.694 -7.916,19.694 0,0 -0.668,1.251 -2.084,-0.416 -1.416,-1.667 -13.416,-13.666 -2.916,-32.334 l 1.208,-2.374 c 0,0 0.75,-1 0.25,-2.126 -0.5,-1.124 -10.375,-26.054 10.375,-64.25 0,0 2.75,-5.124 2.375,-11.5 -0.375,-6.374 -1.5,-14.874 2.375,-21.5 0,0 2.938,-5.194 8.75,-5.194 l 6.813,0"
         style="fill:none;stroke:#000000;stroke-width:3;stroke-linecap:round;stroke-linejoin:round;stroke-miterlimit:10;stroke-opacity:1;stroke-dasharray:none"
         id="path2116"
         inkscape:connector-curvature="0" />
    </g>
    <g
       id="g2118"
       transform="matrix(7.8514627,0,0,-7.0366327,444.77182,946.26294)">
      <path
         d="m 0,0 c 2.011,0 3.641,-1.631 3.641,-3.641 0,-2.011 -1.63,-3.642 -3.641,-3.642 -2.011,0 -3.642,1.631 -3.642,3.642 C -3.642,-1.631 -2.011,0 0,0 z"
         style="fill:none;stroke:#000000;stroke-width:3;stroke-linecap:round;stroke-linejoin:round;stroke-miterlimit:10;stroke-opacity:1;stroke-dasharray:none"
         id="path2120"
         inkscape:connector-curvature="0" />
    </g>
    <g
       id="g2122"
       transform="matrix(7.8514627,0,0,-7.0366327,416.17999,971.88134)">
      <path
         d="M 0,0 C 0,0 0.456,6.295 8.648,6.295"
         style="fill:none;stroke:#000000;stroke-width:3;stroke-linecap:round;stroke-linejoin:round;stroke-miterlimit:10;stroke-opacity:1;stroke-dasharray:none"
         id="path2124"
         inkscape:connector-curvature="0" />
    </g>
    <g
       id="g2126"
       transform="matrix(7.8514627,0,0,-7.0366327,517.60908,886.46563)">
      <path
         d="m 0,0 c 0,0 -11.125,8 -11.875,8.75 0,0 -1.75,1.25 -1.875,4.125 -0.125,2.875 0,29.875 0,29.875 0,0 -0.25,1.438 1.125,3.063 1.375,1.625 7.062,10.812 7.062,10.812 0,0 0.375,0.813 0,1.688 -0.375,0.875 -11.771,24.52 -11.771,24.52"
         style="fill:none;stroke:#000000;stroke-width:3;stroke-linecap:round;stroke-linejoin:round;stroke-miterlimit:10;stroke-opacity:1;stroke-dasharray:none"
         id="path2128"
         inkscape:connector-curvature="0" />
    </g>
    <g
       id="g2130"
       transform="matrix(7.8514627,0,0,-7.0366327,630.79577,491.2388)">
      <path
         d="M 0,0 C 0,0 -10.334,-0.75 -10.916,-12.75"
         style="fill:none;stroke:#000000;stroke-width:3;stroke-linecap:round;stroke-linejoin:round;stroke-miterlimit:10;stroke-opacity:1;stroke-dasharray:none"
         id="path2132"
         inkscape:connector-curvature="0" />
    </g>
    <g
       id="g2134"
       transform="matrix(7.8514627,0,0,-7.0366327,583.04242,527.697)">
      <path
         d="M 0,0 C 0.279,-1.715 1.979,-2.865 3.795,-2.569 5.613,-2.273 6.859,-0.645 6.58,1.07 6.301,2.786 4.604,3.937 2.785,3.641 0.969,3.346 -0.279,1.716 0,0 z"
         style="fill:none;stroke:#000000;stroke-width:3;stroke-linecap:round;stroke-linejoin:round;stroke-miterlimit:10;stroke-opacity:1;stroke-dasharray:none"
         id="path2136"
         inkscape:connector-curvature="0" />
    </g>
    <g
       id="g2138"
       transform="matrix(7.8514627,0,0,-7.0366327,379.54896,174.59427)">
      <path
         d="m 0,0 c 0,0 9,0.333 17.334,-5.5 0,0 0.916,-0.889 1.916,1.889 1,2.778 7.916,19.694 7.916,19.694 0,0 0.668,1.251 2.084,-0.416 C 30.666,14 42.666,2.001 32.166,-16.667 l -1.207,-2.374 c 0,0 -0.75,-1 -0.25,-2.126 0.5,-1.124 10.375,-26.054 -10.375,-64.25 0,0 -2.75,-5.124 -2.375,-11.5 0.375,-6.374 1.5,-14.874 -2.375,-21.5 0,0 -2.938,-5.194 -8.75,-5.194 l -6.813,0"
         style="fill:none;stroke:#000000;stroke-width:3;stroke-linecap:round;stroke-linejoin:round;stroke-miterlimit:10;stroke-opacity:1;stroke-dasharray:none"
         id="path2140"
         inkscape:connector-curvature="0" />
    </g>
  </g>
</svg>
