<?xml version="1.0" encoding="UTF-8" standalone="no"?>
<!-- Created with Inkscape (http://www.inkscape.org/) -->

<svg
   xmlns:dc="http://purl.org/dc/elements/1.1/"
   xmlns:cc="http://creativecommons.org/ns#"
   xmlns:rdf="http://www.w3.org/1999/02/22-rdf-syntax-ns#"
   xmlns:svg="http://www.w3.org/2000/svg"
   xmlns="http://www.w3.org/2000/svg"
   xmlns:sodipodi="http://sodipodi.sourceforge.net/DTD/sodipodi-0.dtd"
   xmlns:inkscape="http://www.inkscape.org/namespaces/inkscape"
   width="210mm"
   height="297mm"
   id="svg17662"
   version="1.1"
   inkscape:version="0.48.3.1 r9886"
   sodipodi:docname="Rhino.svg">
  <defs
     id="defs17664" />
  <sodipodi:namedview
     id="base"
     pagecolor="#ffffff"
     bordercolor="#666666"
     borderopacity="1.0"
     inkscape:pageopacity="0.0"
     inkscape:pageshadow="2"
     inkscape:zoom="0.49497475"
     inkscape:cx="384.48908"
     inkscape:cy="546.54191"
     inkscape:document-units="px"
     inkscape:current-layer="layer1"
     showgrid="false"
     inkscape:window-width="1280"
     inkscape:window-height="754"
     inkscape:window-x="0"
     inkscape:window-y="24"
     inkscape:window-maximized="1" />
  <metadata
     id="metadata17667">
    <rdf:RDF>
      <cc:Work
         rdf:about="">
        <dc:format>image/svg+xml</dc:format>
        <dc:type
           rdf:resource="http://purl.org/dc/dcmitype/StillImage" />
        <dc:title></dc:title>
      </cc:Work>
    </rdf:RDF>
  </metadata>
  <g
     inkscape:label="Capa 1"
     inkscape:groupmode="layer"
     id="layer1">
    <g
       id="g2206"
       transform="matrix(6.4794147,0,0,-5.4994168,248.22706,724.46165)">
      <path
         d="m 0,0 c 0,-2.209 -1.791,-4 -4,-4 -2.209,0 -4,1.791 -4,4 0,2.209 1.791,4 4,4 2.209,0 4,-1.791 4,-4 z"
         style="fill:none;stroke:#000000;stroke-width:3;stroke-linecap:round;stroke-linejoin:round;stroke-miterlimit:10;stroke-opacity:1;stroke-dasharray:none"
         id="path2208"
         inkscape:connector-curvature="0" />
    </g>
    <g
       id="g2210"
       transform="matrix(6.4794147,0,0,-5.4994168,329.21974,864.00913)">
      <path
         d="m 0,0 c 0,-2.002 -1.623,-3.625 -3.625,-3.625 -2.002,0 -3.625,1.623 -3.625,3.625 0,2.002 1.623,3.625 3.625,3.625 C -1.623,3.625 0,2.002 0,0 z"
         style="fill:none;stroke:#000000;stroke-width:3;stroke-linecap:round;stroke-linejoin:round;stroke-miterlimit:10;stroke-opacity:1;stroke-dasharray:none"
         id="path2212"
         inkscape:connector-curvature="0" />
    </g>
    <g
       id="g2214"
       transform="matrix(6.4794147,0,0,-5.4994168,369.71609,763.64477)">
      <path
         d="m 0,0 c 0,0 -8.666,0.542 -15.75,-9 -7.586,-10.22 -6.5,-15.708 -2.75,-20 0,0 4.875,-5.125 10.5,-1.375 5.625,3.75 5.75,4.5 8.125,4.5"
         style="fill:none;stroke:#000000;stroke-width:3;stroke-linecap:round;stroke-linejoin:round;stroke-miterlimit:10;stroke-opacity:1;stroke-dasharray:none"
         id="path2216"
         inkscape:connector-curvature="0" />
    </g>
    <g
       id="g2218"
       transform="matrix(6.4794147,0,0,-5.4994168,368.09624,1022.805)">
      <path
         d="m 0,0 c -26.439,0 -48.5,15.427 -48.5,43.75 0,28.324 20.5,57.375 48.5,57.375"
         style="fill:none;stroke:#000000;stroke-width:3;stroke-linecap:round;stroke-linejoin:round;stroke-miterlimit:10;stroke-opacity:1;stroke-dasharray:none"
         id="path2220"
         inkscape:connector-curvature="0" />
    </g>
    <g
       id="g2222"
       transform="matrix(6.4794147,0,0,-5.4994168,237.52048,492.52177)">
      <path
         d="m 0,0 c -10.338,11.076 -23.922,15.872 -28.879,15.2 0.061,0.23 0.016,0.192 0.016,0.442 0,1.56 -1.266,2.823 -2.825,2.823 -1.558,0 -2.824,-1.263 -2.824,-2.823 0,-1.559 1.266,-2.824 2.824,-2.824 0.213,0 0.204,-0.038 0.403,0.007 -0.717,-4.748 2.535,-19.736 12.812,-30.75"
         style="fill:none;stroke:#000000;stroke-width:3;stroke-linecap:round;stroke-linejoin:round;stroke-miterlimit:10;stroke-opacity:1;stroke-dasharray:none"
         id="path2224"
         inkscape:connector-curvature="0" />
    </g>
    <g
       id="g2226"
       transform="matrix(6.4794147,0,0,-5.4994168,37.380685,449.4908)">
      <path
         d="M 0,0 C 0,0 13.166,1.333 26.541,-10.625"
         style="fill:none;stroke:#000000;stroke-width:3;stroke-linecap:round;stroke-linejoin:round;stroke-miterlimit:10;stroke-opacity:1;stroke-dasharray:none"
         id="path2228"
         inkscape:connector-curvature="0" />
    </g>
    <g
       id="g2230"
       transform="matrix(6.4794147,0,0,-5.4994168,491.20511,724.46165)">
      <path
         d="M 0,0 C 0,-2.209 1.791,-4 4,-4 6.209,-4 8,-2.209 8,0 8,2.209 6.209,4 4,4 1.791,4 0,2.209 0,0 z"
         style="fill:none;stroke:#000000;stroke-width:3;stroke-linecap:round;stroke-linejoin:round;stroke-miterlimit:10;stroke-opacity:1;stroke-dasharray:none"
         id="path2232"
         inkscape:connector-curvature="0" />
    </g>
    <g
       id="g2234"
       transform="matrix(6.4794147,0,0,-5.4994168,410.21243,864.00913)">
      <path
         d="M 0,0 C 0,-2.002 1.623,-3.625 3.625,-3.625 5.627,-3.625 7.25,-2.002 7.25,0 7.25,2.002 5.627,3.625 3.625,3.625 1.623,3.625 0,2.002 0,0 z"
         style="fill:none;stroke:#000000;stroke-width:3;stroke-linecap:round;stroke-linejoin:round;stroke-miterlimit:10;stroke-opacity:1;stroke-dasharray:none"
         id="path2236"
         inkscape:connector-curvature="0" />
    </g>
    <g
       id="g2238"
       transform="matrix(6.4794147,0,0,-5.4994168,369.71609,763.64477)">
      <path
         d="m 0,0 c 0,0 8.668,0.542 15.75,-9 7.588,-10.22 6.5,-15.708 2.75,-20 0,0 -4.875,-5.125 -10.5,-1.375 -5.625,3.75 -5.75,4.5 -8.125,4.5"
         style="fill:none;stroke:#000000;stroke-width:3;stroke-linecap:round;stroke-linejoin:round;stroke-miterlimit:10;stroke-opacity:1;stroke-dasharray:none"
         id="path2240"
         inkscape:connector-curvature="0" />
    </g>
    <g
       id="g2242"
       transform="matrix(6.4794147,0,0,-5.4994168,371.33595,1022.805)">
      <path
         d="M 0,0 C 26.441,0 48.5,15.427 48.5,43.75 48.5,72.074 28,101.125 0,101.125"
         style="fill:none;stroke:#000000;stroke-width:3;stroke-linecap:round;stroke-linejoin:round;stroke-miterlimit:10;stroke-opacity:1;stroke-dasharray:none"
         id="path2244"
         inkscape:connector-curvature="0" />
    </g>
    <g
       id="g2246"
       transform="matrix(6.4794147,0,0,-5.4994168,501.92414,492.52177)">
      <path
         d="m 0,0 c 10.338,11.076 23.92,15.872 28.877,15.2 -0.061,0.23 -0.014,0.192 -0.014,0.442 0,1.56 1.264,2.823 2.823,2.823 1.56,0 2.824,-1.263 2.824,-2.823 0,-1.559 -1.264,-2.824 -2.824,-2.824 -0.211,0 -0.204,-0.038 -0.403,0.007 0.719,-4.748 -2.533,-19.736 -12.812,-30.75"
         style="fill:none;stroke:#000000;stroke-width:3;stroke-linecap:round;stroke-linejoin:round;stroke-miterlimit:10;stroke-opacity:1;stroke-dasharray:none"
         id="path2248"
         inkscape:connector-curvature="0" />
    </g>
    <g
       id="g2250"
       transform="matrix(6.4794147,0,0,-5.4994168,702.06497,449.4908)">
      <path
         d="M 0,0 C 0,0 -13.168,1.333 -26.543,-10.625"
         style="fill:none;stroke:#000000;stroke-width:3;stroke-linecap:round;stroke-linejoin:round;stroke-miterlimit:10;stroke-opacity:1;stroke-dasharray:none"
         id="path2252"
         inkscape:connector-curvature="0" />
    </g>
  </g>
</svg>
