<?xml version="1.0" encoding="UTF-8" standalone="no"?>
<!-- Created with Inkscape (http://www.inkscape.org/) -->

<svg
   xmlns:dc="http://purl.org/dc/elements/1.1/"
   xmlns:cc="http://creativecommons.org/ns#"
   xmlns:rdf="http://www.w3.org/1999/02/22-rdf-syntax-ns#"
   xmlns:svg="http://www.w3.org/2000/svg"
   xmlns="http://www.w3.org/2000/svg"
   xmlns:sodipodi="http://sodipodi.sourceforge.net/DTD/sodipodi-0.dtd"
   xmlns:inkscape="http://www.inkscape.org/namespaces/inkscape"
   width="210mm"
   height="297mm"
   id="svg17662"
   version="1.1"
   inkscape:version="0.48.3.1 r9886"
   sodipodi:docname="Cat.svg">
  <defs
     id="defs17664" />
  <sodipodi:namedview
     id="base"
     pagecolor="#ffffff"
     bordercolor="#666666"
     borderopacity="1.0"
     inkscape:pageopacity="0.0"
     inkscape:pageshadow="2"
     inkscape:zoom="0.49497475"
     inkscape:cx="384.48908"
     inkscape:cy="501.68805"
     inkscape:document-units="px"
     inkscape:current-layer="layer1"
     showgrid="false"
     inkscape:window-width="1280"
     inkscape:window-height="754"
     inkscape:window-x="0"
     inkscape:window-y="24"
     inkscape:window-maximized="1" />
  <metadata
     id="metadata17667">
    <rdf:RDF>
      <cc:Work
         rdf:about="">
        <dc:format>image/svg+xml</dc:format>
        <dc:type
           rdf:resource="http://purl.org/dc/dcmitype/StillImage" />
        <dc:title></dc:title>
      </cc:Work>
    </rdf:RDF>
  </metadata>
  <g
     inkscape:label="Capa 1"
     inkscape:groupmode="layer"
     id="layer1">
    <g
       id="g286"
       transform="matrix(6.0032583,0,0,-5.2931387,375.35114,651.59409)">
      <path
         d="m 0,0 c -11.379,0 -20.783,-6.533 -22.314,-15.02 -1.499,-7.475 -5.059,-12.105 -5.059,-12.105 -3.441,-4.18 -6.246,-11.37 -6.246,-11.37 -0.914,-2.485 -1.404,-5.154 -1.404,-7.971 0,-17.045 15.681,-27.126 35.023,-27.126"
         style="fill:none;stroke:#000000;stroke-width:3;stroke-linecap:round;stroke-linejoin:round;stroke-miterlimit:10;stroke-opacity:1;stroke-dasharray:none"
         id="path288"
         inkscape:connector-curvature="0" />
    </g>
    <g
       id="g290"
       transform="matrix(6.0032583,0,0,-5.2931387,374.83487,651.59409)">
      <path
         d="m 0,0 c 11.379,0 20.783,-6.533 22.314,-15.02 1.499,-7.475 5.059,-12.105 5.059,-12.105 3.441,-4.18 6.246,-11.37 6.246,-11.37 0.914,-2.485 1.404,-5.154 1.404,-7.971 0,-17.045 -15.679,-27.126 -35.023,-27.126"
         style="fill:none;stroke:#000000;stroke-width:3;stroke-linecap:round;stroke-linejoin:round;stroke-miterlimit:10;stroke-opacity:1;stroke-dasharray:none"
         id="path292"
         inkscape:connector-curvature="0" />
    </g>
    <g
       id="g294"
       transform="matrix(6.0032583,0,0,-5.2931387,273.24917,825.41949)">
      <path
         d="m 0,0 c -0.527,-1.447 -2.127,-2.191 -3.572,-1.666 -1.448,0.528 -2.192,2.128 -1.664,3.573 0.527,1.445 2.125,2.19 3.572,1.665 C -0.219,3.044 0.525,1.445 0,0 z"
         style="fill:none;stroke:#000000;stroke-width:3;stroke-linecap:round;stroke-linejoin:round;stroke-miterlimit:10;stroke-opacity:1;stroke-dasharray:none"
         id="path296"
         inkscape:connector-curvature="0" />
    </g>
    <g
       id="g298"
       transform="matrix(6.0032583,0,0,-5.2931387,264.6429,806.96338)">
      <path
         d="M 0,0 C 0,0 5.594,-1.638 3.426,-8.138"
         style="fill:none;stroke:#000000;stroke-width:3;stroke-linecap:round;stroke-linejoin:round;stroke-miterlimit:10;stroke-opacity:1;stroke-dasharray:none"
         id="path300"
         inkscape:connector-curvature="0" />
    </g>
    <g
       id="g302"
       transform="matrix(6.0032583,0,0,-5.2931387,476.71448,825.41949)">
      <path
         d="M 0,0 C 0.527,-1.447 2.127,-2.191 3.572,-1.666 5.02,-1.138 5.764,0.462 5.236,1.907 4.709,3.352 3.111,4.097 1.664,3.572 0.219,3.044 -0.525,1.445 0,0 z"
         style="fill:none;stroke:#000000;stroke-width:3;stroke-linecap:round;stroke-linejoin:round;stroke-miterlimit:10;stroke-opacity:1;stroke-dasharray:none"
         id="path304"
         inkscape:connector-curvature="0" />
    </g>
    <g
       id="g306"
       transform="matrix(6.0032583,0,0,-5.2931387,485.32075,806.96338)">
      <path
         d="M 0,0 C 0,0 -5.594,-1.638 -3.426,-8.138"
         style="fill:none;stroke:#000000;stroke-width:3;stroke-linecap:round;stroke-linejoin:round;stroke-miterlimit:10;stroke-opacity:1;stroke-dasharray:none"
         id="path308"
         inkscape:connector-curvature="0" />
    </g>
    <g
       id="g310"
       transform="matrix(6.0032583,0,0,-5.2931387,256.29405,697.13879)">
      <path
         d="M 0,0 C -8.215,7.273 -19.313,14.441 -26.061,21.963 -41.795,39.5 -41.283,50.386 -37.471,53.576 -33.232,57.12 -21.348,52.215 -8.523,33.764 -2.242,24.729 1.146,15.243 5.408,4.753"
         style="fill:none;stroke:#000000;stroke-width:3;stroke-linecap:round;stroke-linejoin:round;stroke-miterlimit:10;stroke-opacity:1;stroke-dasharray:none"
         id="path312"
         inkscape:connector-curvature="0" />
    </g>
    <g
       id="g314"
       transform="matrix(6.0032583,0,0,-5.2931387,21.146903,453.35672)">
      <path
         d="M 0,0 C 0,0 24.992,-4.425 40.234,-44.499"
         style="fill:none;stroke:#000000;stroke-width:3;stroke-linecap:round;stroke-linejoin:round;stroke-miterlimit:10;stroke-opacity:1;stroke-dasharray:none"
         id="path316"
         inkscape:connector-curvature="0" />
    </g>
    <g
       id="g318"
       transform="matrix(6.0032583,0,0,-5.2931387,491.21883,690.19885)">
      <path
         d="M 0,0 C 8.215,7.274 19.313,14.442 26.061,21.964 41.795,39.501 41.283,50.387 37.471,53.576 33.232,57.121 21.348,52.216 8.523,33.765 2.242,24.73 -1.146,15.244 -5.408,4.754"
         style="fill:none;stroke:#000000;stroke-width:3;stroke-linecap:round;stroke-linejoin:round;stroke-miterlimit:10;stroke-opacity:1;stroke-dasharray:none"
         id="path320"
         inkscape:connector-curvature="0" />
    </g>
    <g
       id="g322"
       transform="matrix(6.0032583,0,0,-5.2931387,726.36598,446.41213)">
      <path
         d="M 0,0 C 0,0 -24.992,-4.425 -40.234,-44.5"
         style="fill:none;stroke:#000000;stroke-width:3;stroke-linecap:round;stroke-linejoin:round;stroke-miterlimit:10;stroke-opacity:1;stroke-dasharray:none"
         id="path324"
         inkscape:connector-curvature="0" />
    </g>
    <g
       id="g326"
       transform="matrix(6.0032583,0,0,-5.2931387,336.84576,939.44174)">
      <path
         d="m 0,0 6.455,-4.364 0,-9.342 -4.625,-4.48"
         style="fill:none;stroke:#000000;stroke-width:3;stroke-linecap:round;stroke-linejoin:round;stroke-miterlimit:10;stroke-opacity:1;stroke-dasharray:none"
         id="path328"
         inkscape:connector-curvature="0" />
    </g>
    <g
       id="g330"
       transform="matrix(6.0032583,0,0,-5.2931387,297.76552,1031.7926)">
      <path
         d="m 0,0 c -4.979,1.399 -8.531,6.766 -8.189,12.064 0.238,3.727 2.195,7.027 5.357,8.464"
         style="fill:none;stroke:#000000;stroke-width:3;stroke-linecap:round;stroke-linejoin:round;stroke-miterlimit:10;stroke-opacity:1;stroke-dasharray:none"
         id="path332"
         inkscape:connector-curvature="0" />
    </g>
    <g
       id="g334"
       transform="matrix(6.0032583,0,0,-5.2931387,54.094703,896.42504)">
      <path
         d="M 0,0 44.99,-16.93 9.492,-18.02"
         style="fill:none;stroke:#000000;stroke-width:3;stroke-linecap:round;stroke-linejoin:round;stroke-miterlimit:10;stroke-opacity:1;stroke-dasharray:none"
         id="path336"
         inkscape:connector-curvature="0" />
    </g>
    <g
       id="g338"
       transform="matrix(6.0032583,0,0,-5.2931387,413.85604,939.44174)">
      <path
         d="m 0,0 -6.455,-4.364 0,-9.342 4.625,-4.48"
         style="fill:none;stroke:#000000;stroke-width:3;stroke-linecap:round;stroke-linejoin:round;stroke-miterlimit:10;stroke-opacity:1;stroke-dasharray:none"
         id="path340"
         inkscape:connector-curvature="0" />
    </g>
    <g
       id="g342"
       transform="matrix(6.0032583,0,0,-5.2931387,452.9363,1031.7926)">
      <path
         d="M 0,0 C 4.979,1.399 8.531,6.766 8.189,12.064 7.951,15.791 5.994,19.091 2.832,20.528"
         style="fill:none;stroke:#000000;stroke-width:3;stroke-linecap:round;stroke-linejoin:round;stroke-miterlimit:10;stroke-opacity:1;stroke-dasharray:none"
         id="path344"
         inkscape:connector-curvature="0" />
    </g>
    <g
       id="g346"
       transform="matrix(6.0032583,0,0,-5.2931387,696.60711,896.42504)">
      <path
         d="m 0,0 -44.99,-16.93 35.498,-1.09"
         style="fill:none;stroke:#000000;stroke-width:3;stroke-linecap:round;stroke-linejoin:round;stroke-miterlimit:10;stroke-opacity:1;stroke-dasharray:none"
         id="path348"
         inkscape:connector-curvature="0" />
    </g>
  </g>
</svg>
