<?xml version="1.0" encoding="utf-8"?>
<!-- Generator: Adobe Illustrator 16.0.4, SVG Export Plug-In . SVG Version: 6.00 Build 0)  -->
<!DOCTYPE svg PUBLIC "-//W3C//DTD SVG 1.1//EN" "http://www.w3.org/Graphics/SVG/1.1/DTD/svg11.dtd">
<svg version="1.1" id="Layer_1" xmlns="http://www.w3.org/2000/svg" xmlns:xlink="http://www.w3.org/1999/xlink" x="0px" y="0px"
	 width="197.299px" height="175.975px" viewBox="0 0 197.299 175.975" enable-background="new 0 0 197.299 175.975"
	 xml:space="preserve">
<g>
	<path fill="#9C6919" d="M83.281,25.371c-1.32-0.403-2.719,0.341-3.121,1.659c-1.127,3.675-2.605,5.743-4.037,6.905
		c-1.439,1.152-2.916,1.541-4.543,1.554c-2.014,0.01-4.186-0.716-5.811-1.491c-0.779-0.371-1.43-0.744-1.889-1.025
		c0.57-1.928,0.822-3.227,0.844-3.325c0.418-2.171-1.002-4.266-3.172-4.685c-2.168-0.418-4.266,1.002-4.684,3.172v-0.002
		c0,0-0.004,0.022-0.027,0.129c-0.16,0.795-1.166,5.038-3.158,8.756c-0.973,1.833-2.18,3.502-3.451,4.611
		c-1.512-7.332-1.879-14.279-1.875-19.012c0-1.993,0.062-3.594,0.121-4.672c0.031-0.539,0.059-0.947,0.08-1.208
		s0.029-0.323,0.027-0.325c0.414-4.122-2.59-7.799-6.711-8.213s-7.799,2.592-8.213,6.713c-0.02,0.199-0.305,3.097-0.305,7.705
		c0.016,7.954,0.803,20.99,5.59,34.179c0.996,2.728,2.18,5.461,3.566,8.152c-1.932-1.202-3.602-2.602-5.037-4.03
		c-1.93-1.938-3.367-3.902-4.301-5.356c-0.465-0.727-0.807-1.323-1.023-1.724c-0.107-0.199-0.186-0.351-0.23-0.441
		c-0.047-0.093-0.045-0.095-0.047-0.093c-0.932-2.003-3.311-2.872-5.312-1.94s-2.873,3.311-1.939,5.313
		c0.129,0.263,2.334,4.999,7.186,9.888c4.006,4.049,10.055,8.237,18.088,9.535c4.951,5.855,11.463,10.954,19.643,14.318
		c0.936,0.387,1.904,0.569,2.857,0.569c2.945,0,5.742-1.747,6.936-4.64c1.578-3.83-0.242-8.215-4.07-9.793
		c-5.932-2.458-10.408-5.983-14.014-10.259c-4.018-4.755-6.881-10.536-8.854-16.507c1.301-0.684,2.473-1.527,3.473-2.464
		c3.041-2.849,4.965-6.401,6.299-9.563c2.027,1.143,5.445,2.68,9.414,2.727c0.021,0,0.041,0,0.062,0
		c2.484,0,5.244-0.725,7.627-2.668c2.408-1.952,4.35-4.998,5.67-9.328C85.345,27.172,84.601,25.773,83.281,25.371z"/>
	<path fill="#9C6919" d="M114.018,21.371c1.322-0.403,2.719,0.341,3.121,1.659c1.127,3.675,2.605,5.743,4.039,6.905
		c1.439,1.152,2.914,1.541,4.541,1.554c2.014,0.01,4.186-0.716,5.811-1.491c0.781-0.371,1.432-0.744,1.889-1.025
		c-0.57-1.928-0.822-3.227-0.842-3.325c-0.42-2.171,1-4.266,3.17-4.685c2.17-0.418,4.268,1.002,4.686,3.172v-0.002
		c0,0,0.004,0.022,0.025,0.129c0.16,0.795,1.166,5.038,3.16,8.756c0.971,1.833,2.178,3.502,3.449,4.611
		c1.512-7.332,1.879-14.279,1.875-19.012c0-1.993-0.062-3.594-0.121-4.672c-0.029-0.539-0.059-0.947-0.08-1.208
		c-0.02-0.261-0.029-0.323-0.027-0.325c-0.414-4.122,2.59-7.799,6.711-8.213c4.123-0.414,7.799,2.592,8.213,6.713
		c0.021,0.199,0.305,3.097,0.305,7.705c-0.016,7.954-0.801,20.99-5.59,34.179c-0.994,2.728-2.18,5.461-3.564,8.152
		c1.93-1.202,3.6-2.602,5.035-4.03c1.93-1.938,3.367-3.902,4.301-5.356c0.467-0.727,0.807-1.323,1.023-1.724
		c0.109-0.199,0.186-0.351,0.232-0.441c0.045-0.093,0.043-0.095,0.045-0.093c0.934-2.003,3.311-2.872,5.312-1.94
		c2.004,0.932,2.873,3.311,1.941,5.313c-0.129,0.263-2.334,4.999-7.188,9.888c-4.006,4.049-10.053,8.237-18.088,9.535
		c-4.951,5.855-11.463,10.954-19.643,14.318c-0.936,0.387-1.904,0.569-2.857,0.569c-2.945,0-5.74-1.747-6.936-4.64
		c-1.578-3.83,0.242-8.215,4.072-9.793c5.93-2.458,10.406-5.983,14.014-10.259c4.016-4.755,6.879-10.536,8.852-16.507
		c-1.301-0.684-2.473-1.527-3.473-2.464c-3.041-2.849-4.963-6.401-6.297-9.563c-2.027,1.143-5.447,2.68-9.416,2.727
		c-0.02,0-0.041,0-0.061,0c-2.486,0-5.246-0.725-7.629-2.668c-2.408-1.952-4.35-4.998-5.67-9.328
		C111.955,23.172,112.697,21.773,114.018,21.371z"/>
	<g>
		<path fill="#E6B781" d="M137.773,90.572c0,0,7.777-19.359,26.291-15.189c0,0-2.752,23.927-18.65,25.189L137.773,90.572z"/>
		<path fill="#9C6919" d="M136.184,91.785l1.59-1.214l1.855,0.746l-1.855-0.746L136.184,91.785l-0.691-0.905l0.426-1.054
			c0.053-0.125,1.703-4.244,5.373-8.459l0,0c3.643-4.197,9.49-8.576,17.674-8.574l0,0c1.75,0,3.598,0.2,5.539,0.638l0,0l1.75,0.395
			l-0.203,1.785c-0.078,0.166-1.451,13.858-9.623,21.927l0,0c-2.742,2.677-6.377,4.683-10.855,5.027l0,0l-1.088,0.086
			L136.184,91.785L136.184,91.785z M146.312,98.453c5.408-0.854,9.004-4.836,11.518-9.58l0,0c2.322-4.414,3.477-9.296,3.953-11.879
			l0,0c-0.98-0.138-1.92-0.2-2.818-0.2l0,0c-5.852,0.005-10.188,2.682-13.381,5.836l0,0c-2.881,2.857-4.703,6.083-5.492,7.682l0,0
			L146.312,98.453L146.312,98.453z"/>
	</g>
	<g>
		<path fill="#E6B781" d="M56.185,93.984c0,0-7.389-19.51-25.982-15.711c0,0,2.273,23.977,18.143,25.557L56.185,93.984z"/>
		<path fill="#9C6919" d="M48.146,105.819c-4.471-0.437-8.066-2.512-10.752-5.243l0,0c-2.701-2.733-4.578-6.101-5.922-9.355l0,0
			c-2.676-6.513-3.244-12.648-3.262-12.759l0,0l-0.168-1.786l1.756-0.362c1.777-0.367,3.477-0.534,5.09-0.534l0,0
			c8.34-0.005,14.229,4.498,17.859,8.811l0,0c3.658,4.33,5.254,8.558,5.307,8.685l0,0l-1.869,0.709l1.869-0.709l0.404,1.064
			l-9.227,11.587L48.146,105.819L48.146,105.819z M32.49,80.161c0.225,1.321,0.598,3.169,1.191,5.229l0,0
			c1.176,4.122,3.266,9.068,6.555,12.372l0,0c1.975,1.979,4.301,3.399,7.256,3.929l0,0l6.379-8.012
			c-0.166-0.355-0.381-0.79-0.645-1.285l0,0c-0.76-1.425-1.934-3.333-3.529-5.221l0,0c-3.23-3.789-7.988-7.388-14.809-7.395l0,0
			c-0.783,0.001-1.596,0.049-2.438,0.15l0,0C32.462,80.005,32.476,80.082,32.49,80.161L32.49,80.161z"/>
	</g>
	<g>
		<ellipse fill="#E6B781" cx="96.693" cy="118.162" rx="61.571" ry="51.652"/>
		<path fill="#9C6919" d="M51.871,156.218c-11.521-9.656-18.752-23.131-18.75-38.056l0,0c-0.002-14.927,7.229-28.401,18.75-38.058
			l0,0c11.525-9.666,27.365-15.594,44.822-15.596l0,0c17.458,0.002,33.295,5.93,44.821,15.596l0,0
			c11.523,9.656,18.752,23.131,18.75,38.058l0,0c0.002,14.925-7.227,28.399-18.75,38.056l0,0
			c-11.525,9.666-27.363,15.594-44.821,15.596l0,0C79.236,171.812,63.396,165.884,51.871,156.218L51.871,156.218z M54.441,83.17
			c-10.762,9.039-17.316,21.39-17.318,34.992l0,0c0.002,13.601,6.557,25.951,17.318,34.99l0,0
			c10.758,9.027,25.705,14.662,42.252,14.66l0,0c16.547,0.002,31.493-5.633,42.252-14.66l0,0
			c10.762-9.039,17.316-21.39,17.318-34.99l0,0c-0.002-13.603-6.557-25.953-17.318-34.992l0,0
			c-10.76-9.027-25.705-14.662-42.252-14.66l0,0c-0.004,0-0.006,0-0.01,0l0,0C80.142,68.51,65.195,74.146,54.441,83.17L54.441,83.17
			z"/>
	</g>
	<g>
		<g>
			<circle cx="75.259" cy="112.471" r="7.74"/>
			<path fill="#FFFFFF" d="M65.517,112.47c0-5.381,4.361-9.737,9.74-9.74l0,0c5.381,0.003,9.74,4.359,9.742,9.74l0,0
				c-0.002,5.381-4.361,9.739-9.742,9.741l0,0C69.876,122.209,65.517,117.851,65.517,112.47L65.517,112.47z M69.517,112.47
				c0.006,3.168,2.572,5.735,5.74,5.74l0,0c3.174-0.005,5.736-2.57,5.74-5.74l0,0c-0.004-3.171-2.566-5.734-5.74-5.74l0,0
				C72.089,106.735,69.523,109.299,69.517,112.47L69.517,112.47z"/>
		</g>
		<circle fill="#FFFFFF" cx="73.711" cy="110.578" r="2.063"/>
	</g>
	<g>
		<g>
			<circle cx="118.324" cy="112.471" r="7.74"/>
			<path fill="#FFFFFF" d="M108.582,112.471c0.002-5.381,4.361-9.74,9.742-9.74l0,0c5.381,0,9.74,4.359,9.74,9.74l0,0
				c0,5.378-4.359,9.737-9.74,9.74l0,0C112.943,122.208,108.584,117.852,108.582,112.471L108.582,112.471z M112.584,112.471
				c0.004,3.168,2.568,5.733,5.74,5.739l0,0c3.17-0.006,5.734-2.571,5.738-5.739l0,0c-0.004-3.171-2.568-5.735-5.738-5.74l0,0
				C115.152,106.735,112.588,109.3,112.584,112.471L112.584,112.471z"/>
		</g>
		<circle fill="#FFFFFF" cx="116.776" cy="110.578" r="2.063"/>
	</g>
	<g>
		<line fill="#E6B781" x1="99.025" y1="144.828" x2="99.025" y2="155.828"/>
		<path fill="#9C6919" d="M97.025,155.828v-11c0-1.106,0.895-2.001,2-2.001l0,0c1.104,0,2,0.895,2,2.001l0,0v11c0,1.104-0.896,2-2,2
			l0,0C97.919,157.828,97.025,156.933,97.025,155.828L97.025,155.828z"/>
	</g>
	<g>
		<ellipse fill="#FFC4C4" cx="98.76" cy="137.577" rx="15.701" ry="10.875"/>
		<path fill="#E05353" d="M86.802,146.5c-3.123-2.153-5.244-5.305-5.246-8.923l0,0c0.002-3.62,2.123-6.771,5.246-8.925l0,0
			c3.135-2.167,7.34-3.448,11.957-3.453l0,0c4.616,0.005,8.819,1.286,11.956,3.453l0,0c3.121,2.153,5.244,5.305,5.246,8.925l0,0
			c-0.002,3.618-2.125,6.77-5.246,8.923l0,0c-3.137,2.167-7.34,3.448-11.956,3.452l0,0C94.142,149.948,89.937,148.667,86.802,146.5
			L86.802,146.5z M109.006,144.032c2.562-1.782,3.955-4.067,3.953-6.455l0,0c0.002-2.388-1.391-4.675-3.953-6.457l0,0
			c-2.545-1.77-6.193-2.922-10.247-2.918l0,0c-4.059-0.004-7.703,1.148-10.25,2.918l0,0c-2.561,1.782-3.955,4.069-3.953,6.457l0,0
			c-0.002,2.388,1.393,4.673,3.953,6.455l0,0c2.547,1.77,6.191,2.922,10.25,2.918l0,0
			C102.814,146.954,106.461,145.802,109.006,144.032L109.006,144.032z"/>
	</g>
	<ellipse fill="#FFE6E6" cx="98.638" cy="134.078" rx="9.11" ry="3.516"/>
	<g>
		<path fill="#E6B781" d="M80.775,159.828c0,0,11,8.75,18.25-4"/>
		<path fill="#9C6919" d="M88.962,164.755c-5.381-0.053-9.264-3.269-9.432-3.362l0,0c-0.865-0.687-1.008-1.945-0.322-2.809l0,0
			c0.688-0.865,1.945-1.01,2.811-0.322l0,0c0,0,0.018,0.015,0.104,0.076l0,0c0.086,0.063,0.223,0.159,0.4,0.278l0,0
			c0.357,0.236,0.889,0.559,1.541,0.882l0,0c1.303,0.646,3.082,1.263,4.898,1.257l0,0c2.623-0.06,5.467-1.027,8.326-5.916l0,0
			c0.543-0.959,1.764-1.295,2.725-0.748l0,0c0.959,0.544,1.295,1.764,0.748,2.725l0,0c-3.213,5.778-7.733,7.941-11.641,7.941l0,0
			C89.068,164.757,89.015,164.756,88.962,164.755L88.962,164.755z"/>
	</g>
	<g>
		<path fill="#E6B781" d="M117.275,159.828c0,0-11,8.75-18.25-4"/>
		<path fill="#9C6919" d="M97.287,156.815c-0.545-0.961-0.211-2.181,0.75-2.727l0,0c0.961-0.545,2.182-0.211,2.727,0.75l0,0
			c2.854,4.889,5.697,5.856,8.322,5.916l0,0c3.178,0.036,6.246-1.954,6.842-2.417l0,0c0.086-0.062,0.104-0.076,0.104-0.076l0,0
			v0.002c0.863-0.689,2.121-0.545,2.809,0.32l0,0c0.686,0.863,0.543,2.12-0.32,2.809l0,0c-0.17,0.094-4.053,3.31-9.434,3.362l0,0
			c-0.053,0.001-0.105,0.002-0.16,0.002l0,0C105.018,164.756,100.496,162.593,97.287,156.815L97.287,156.815z"/>
	</g>
	<path opacity="0.22" fill="#9C6919" d="M156.787,109.828c-1.289,27.521-27.783,49.496-60.297,49.496
		c-30.598,0-55.861-19.466-59.805-44.699c-0.033,0.696-0.062,1.394-0.062,2.097c0,28.494,27.023,51.593,60.357,51.593
		c33.336,0,60.36-23.099,60.36-51.593C157.34,114.383,157.141,112.085,156.787,109.828z"/>
</g>
</svg>
