<?xml version="1.0" encoding="UTF-8" standalone="no"?>
<!-- Created with Inkscape (http://www.inkscape.org/) -->

<svg
   xmlns:dc="http://purl.org/dc/elements/1.1/"
   xmlns:cc="http://creativecommons.org/ns#"
   xmlns:rdf="http://www.w3.org/1999/02/22-rdf-syntax-ns#"
   xmlns:svg="http://www.w3.org/2000/svg"
   xmlns="http://www.w3.org/2000/svg"
   xmlns:sodipodi="http://sodipodi.sourceforge.net/DTD/sodipodi-0.dtd"
   xmlns:inkscape="http://www.inkscape.org/namespaces/inkscape"
   width="210mm"
   height="297mm"
   id="svg17662"
   version="1.1"
   inkscape:version="0.48.3.1 r9886"
   sodipodi:docname="Cow.svg">
  <defs
     id="defs17664" />
  <sodipodi:namedview
     id="base"
     pagecolor="#ffffff"
     bordercolor="#666666"
     borderopacity="1.0"
     inkscape:pageopacity="0.0"
     inkscape:pageshadow="2"
     inkscape:zoom="0.49497475"
     inkscape:cx="384.48908"
     inkscape:cy="501.68805"
     inkscape:document-units="px"
     inkscape:current-layer="layer1"
     showgrid="false"
     inkscape:window-width="1280"
     inkscape:window-height="754"
     inkscape:window-x="0"
     inkscape:window-y="24"
     inkscape:window-maximized="1" />
  <metadata
     id="metadata17667">
    <rdf:RDF>
      <cc:Work
         rdf:about="">
        <dc:format>image/svg+xml</dc:format>
        <dc:type
           rdf:resource="http://purl.org/dc/dcmitype/StillImage" />
        <dc:title></dc:title>
      </cc:Work>
    </rdf:RDF>
  </metadata>
  <g
     inkscape:label="Capa 1"
     inkscape:groupmode="layer"
     id="layer1">
    <g
       id="g4738"
       transform="matrix(5.5586748,0,0,-5.4063573,211.21904,502.22962)">
      <path
         d="m 0,0 c 0,0 -33.262,3.652 -35.022,3.899 -1.761,0.247 -2.147,-1.996 -2.147,-1.996 -0.769,-2.406 0.454,-4.444 0.454,-4.444 10.959,-24.222 38.613,-15.418 38.613,-15.418 0,0 -7.678,-16.976 4.052,-41.711 0,0 8.415,-17.34 8.415,-18.36 0,-1.02 -2.04,-6.248 3.57,-14.28 0,0 3.147,-5.185 8.671,-7.82 0,0 1.786,-1.02 4.395,0 5.121,2.003 9.179,7.82 9.179,7.82 5.61,8.032 3.57,13.26 3.57,14.28 0,1.02 8.415,18.36 8.415,18.36 11.73,24.735 4.051,41.711 4.051,41.711 0,0 27.654,-8.804 38.613,15.418 0,0 1.224,2.038 0.455,4.444 0,0 -0.386,2.243 -2.147,1.996 C 91.377,3.652 58.114,0 58.114,0"
         style="fill:none;stroke:#000000;stroke-width:3;stroke-linecap:round;stroke-linejoin:round;stroke-miterlimit:10;stroke-opacity:1;stroke-dasharray:none"
         id="path4740"
         inkscape:connector-curvature="0" />
    </g>
    <g
       id="g4742"
       transform="matrix(5.5586748,0,0,-5.4063573,10.954974,483.88563)">
      <path
         d="M 0,0 C 0,0 16.206,-15.481 36.772,-21.383"
         style="fill:none;stroke:#000000;stroke-width:3;stroke-linecap:round;stroke-linejoin:round;stroke-miterlimit:10;stroke-opacity:1;stroke-dasharray:none"
         id="path4744"
         inkscape:connector-curvature="0" />
    </g>
    <g
       id="g4746"
       transform="matrix(5.5586748,0,0,-5.4063573,211.97333,673.27681)">
      <path
         d="M 0,0 C 1.011,0.557 2.283,0.186 3.456,-0.4 5.289,-1.313 6.035,-3.863 5.242,-5.112 4.231,-6.709 2.233,-7.435 0.404,-6.521 0.26,-6.45 0.125,-6.371 -0.006,-6.285"
         style="fill:none;stroke:#000000;stroke-width:3;stroke-linecap:round;stroke-linejoin:round;stroke-miterlimit:10;stroke-opacity:1;stroke-dasharray:none"
         id="path4748"
         inkscape:connector-curvature="0" />
    </g>
    <g
       id="g4750"
       transform="matrix(5.5586748,0,0,-5.4063573,239.854,682.99182)">
      <path
         d="M 0,0 C 0,0 1.69,-2.415 2.655,-6.6"
         style="fill:none;stroke:#000000;stroke-width:3;stroke-linecap:round;stroke-linejoin:round;stroke-miterlimit:10;stroke-opacity:1;stroke-dasharray:none"
         id="path4752"
         inkscape:connector-curvature="0" />
    </g>
    <g
       id="g4754"
       transform="matrix(5.5586748,0,0,-5.4063573,292.95989,959.47077)">
      <path
         d="m 0,0 c 0,0 8.571,-11.56 14.352,-9.351 l 0,5.866"
         style="fill:none;stroke:#000000;stroke-width:3;stroke-linecap:round;stroke-linejoin:round;stroke-miterlimit:10;stroke-opacity:1;stroke-dasharray:none"
         id="path4756"
         inkscape:connector-curvature="0" />
    </g>
    <g
       id="g4758"
       transform="matrix(5.5586748,0,0,-5.4063573,330.28532,942.47016)">
      <path
         d="M 0,0 3.74,-3.145"
         style="fill:none;stroke:#000000;stroke-width:3;stroke-linecap:round;stroke-linejoin:round;stroke-miterlimit:10;stroke-opacity:1;stroke-dasharray:none"
         id="path4760"
         inkscape:connector-curvature="0" />
    </g>
    <g
       id="g4762"
       transform="matrix(5.5586748,0,0,-5.4063573,371.81249,399.92317)">
      <path
         d="m 0,0 c -3.549,0 -6.431,-2.668 -6.532,-5.995 -1.127,1.861 -3.245,3.119 -5.679,3.119 -3.613,0 -6.542,-2.766 -6.542,-6.176 0,-0.572 0.089,-1.124 0.243,-1.65 -1.181,1.105 -2.808,1.79 -4.604,1.79 -3.613,0 -6.541,-2.765 -6.541,-6.176 0,-1.416 0.51,-2.717 1.359,-3.759 -0.849,-1.042 -1.359,-2.342 -1.359,-3.758 0,-3.412 2.928,-6.176 6.541,-6.176 1.796,0 3.423,0.684 4.604,1.79 -0.154,-0.527 -0.243,-1.077 -0.243,-1.651 0,-3.409 2.929,-6.173 6.542,-6.173 2.434,0 4.552,1.255 5.679,3.117 0.101,-3.325 2.983,-5.995 6.532,-5.995"
         style="fill:none;stroke:#000000;stroke-width:3;stroke-linecap:round;stroke-linejoin:round;stroke-miterlimit:10;stroke-opacity:1;stroke-dasharray:none"
         id="path4764"
         inkscape:connector-curvature="0" />
    </g>
    <g
       id="g4766"
       transform="matrix(5.5586748,0,0,-5.4063573,129.80945,606.54723)">
      <path
         d="m 0,0 c -3.317,0 -6.008,-2.69 -6.008,-6.009 0,-3.265 2.607,-5.917 5.851,-6.001 -2.489,-0.734 -4.306,-3.034 -4.306,-5.761 0,-3.318 2.691,-6.008 6.009,-6.008 0.259,0 0.512,0.021 0.762,0.053 -1.977,-0.984 -3.338,-3.019 -3.338,-5.377 0,-3.318 2.69,-6.008 6.009,-6.008 0.978,0 1.899,0.239 2.715,0.654 -1.093,-1.089 -1.771,-2.595 -1.771,-4.259 0,-3.319 2.69,-6.01 6.01,-6.01 1.774,0 3.363,0.774 4.463,1.997 -0.49,-0.87 -0.772,-1.873 -0.772,-2.942 0,-3.318 2.69,-6.009 6.01,-6.009 1.433,0 2.751,0.503 3.784,1.342"
         style="fill:none;stroke:#000000;stroke-width:3;stroke-linecap:round;stroke-linejoin:round;stroke-miterlimit:10;stroke-opacity:1;stroke-dasharray:none"
         id="path4768"
         inkscape:connector-curvature="0" />
    </g>
    <g
       id="g4770"
       transform="matrix(5.5586748,0,0,-5.4063573,734.52715,483.88563)">
      <path
         d="M 0,0 C 0,0 -16.207,-15.481 -36.773,-21.383"
         style="fill:none;stroke:#000000;stroke-width:3;stroke-linecap:round;stroke-linejoin:round;stroke-miterlimit:10;stroke-opacity:1;stroke-dasharray:none"
         id="path4772"
         inkscape:connector-curvature="0" />
    </g>
    <g
       id="g4774"
       transform="matrix(5.5586748,0,0,-5.4063573,533.50269,673.27681)">
      <path
         d="m 0,0 c -1.011,0.557 -2.282,0.186 -3.456,-0.4 -1.833,-0.913 -2.579,-3.463 -1.786,-4.712 1.012,-1.597 3.01,-2.323 4.838,-1.409 0.144,0.071 0.28,0.15 0.411,0.236"
         style="fill:none;stroke:#000000;stroke-width:3;stroke-linecap:round;stroke-linejoin:round;stroke-miterlimit:10;stroke-opacity:1;stroke-dasharray:none"
         id="path4776"
         inkscape:connector-curvature="0" />
    </g>
    <g
       id="g4778"
       transform="matrix(5.5586748,0,0,-5.4063573,505.62812,682.99182)">
      <path
         d="M 0,0 C 0,0 -1.69,-2.415 -2.656,-6.6"
         style="fill:none;stroke:#000000;stroke-width:3;stroke-linecap:round;stroke-linejoin:round;stroke-miterlimit:10;stroke-opacity:1;stroke-dasharray:none"
         id="path4780"
         inkscape:connector-curvature="0" />
    </g>
    <g
       id="g4782"
       transform="matrix(5.5586748,0,0,-5.4063573,452.52223,959.47077)">
      <path
         d="m 0,0 c 0,0 -8.573,-11.56 -14.354,-9.351 l 0,5.866"
         style="fill:none;stroke:#000000;stroke-width:3;stroke-linecap:round;stroke-linejoin:round;stroke-miterlimit:10;stroke-opacity:1;stroke-dasharray:none"
         id="path4784"
         inkscape:connector-curvature="0" />
    </g>
    <g
       id="g4786"
       transform="matrix(5.5586748,0,0,-5.4063573,415.19075,942.47016)">
      <path
         d="M 0,0 -3.739,-3.145"
         style="fill:none;stroke:#000000;stroke-width:3;stroke-linecap:round;stroke-linejoin:round;stroke-miterlimit:10;stroke-opacity:1;stroke-dasharray:none"
         id="path4788"
         inkscape:connector-curvature="0" />
    </g>
    <g
       id="g4790"
       transform="matrix(5.5586748,0,0,-5.4063573,373.66353,399.92317)">
      <path
         d="m 0,0 c 3.549,0 6.431,-2.668 6.532,-5.995 1.128,1.861 3.245,3.119 5.679,3.119 3.614,0 6.543,-2.766 6.543,-6.176 0,-0.572 -0.089,-1.124 -0.243,-1.65 1.181,1.105 2.807,1.79 4.603,1.79 3.614,0 6.542,-2.765 6.542,-6.176 0,-1.416 -0.511,-2.717 -1.36,-3.759 0.849,-1.042 1.36,-2.342 1.36,-3.758 0,-3.412 -2.928,-6.176 -6.542,-6.176 -1.796,0 -3.422,0.684 -4.603,1.79 0.154,-0.527 0.243,-1.077 0.243,-1.651 0,-3.409 -2.929,-6.173 -6.543,-6.173 -2.434,0 -4.551,1.255 -5.679,3.117 C 6.431,-35.023 3.549,-37.693 0,-37.693"
         style="fill:none;stroke:#000000;stroke-width:3;stroke-linecap:round;stroke-linejoin:round;stroke-miterlimit:10;stroke-opacity:1;stroke-dasharray:none"
         id="path4792"
         inkscape:connector-curvature="0" />
    </g>
    <g
       id="g4794"
       transform="matrix(5.5586748,0,0,-5.4063573,615.66711,606.54723)">
      <path
         d="m 0,0 c 3.318,0 6.009,-2.69 6.009,-6.009 0,-3.265 -2.607,-5.917 -5.852,-6.001 2.489,-0.734 4.307,-3.034 4.307,-5.761 0,-3.318 -2.691,-6.008 -6.01,-6.008 -0.258,0 -0.511,0.021 -0.761,0.053 1.977,-0.984 3.338,-3.019 3.338,-5.377 0,-3.318 -2.69,-6.008 -6.01,-6.008 -0.977,0 -1.899,0.239 -2.714,0.654 1.093,-1.089 1.77,-2.595 1.77,-4.259 0,-3.319 -2.69,-6.01 -6.009,-6.01 -1.774,0 -3.364,0.774 -4.464,1.997 0.491,-0.87 0.773,-1.873 0.773,-2.942 0,-3.318 -2.69,-6.009 -6.01,-6.009 -1.434,0 -2.751,0.503 -3.784,1.342"
         style="fill:none;stroke:#000000;stroke-width:3;stroke-linecap:round;stroke-linejoin:round;stroke-miterlimit:10;stroke-opacity:1;stroke-dasharray:none"
         id="path4796"
         inkscape:connector-curvature="0" />
    </g>
  </g>
</svg>
