<?xml version="1.0" encoding="UTF-8" standalone="no"?>
<!-- Created with Inkscape (http://www.inkscape.org/) -->

<svg
   xmlns:dc="http://purl.org/dc/elements/1.1/"
   xmlns:cc="http://creativecommons.org/ns#"
   xmlns:rdf="http://www.w3.org/1999/02/22-rdf-syntax-ns#"
   xmlns:svg="http://www.w3.org/2000/svg"
   xmlns="http://www.w3.org/2000/svg"
   xmlns:sodipodi="http://sodipodi.sourceforge.net/DTD/sodipodi-0.dtd"
   xmlns:inkscape="http://www.inkscape.org/namespaces/inkscape"
   width="210mm"
   height="297mm"
   id="svg17662"
   version="1.1"
   inkscape:version="0.48.3.1 r9886"
   sodipodi:docname="Pig.svg">
  <defs
     id="defs17664" />
  <sodipodi:namedview
     id="base"
     pagecolor="#ffffff"
     bordercolor="#666666"
     borderopacity="1.0"
     inkscape:pageopacity="0.0"
     inkscape:pageshadow="2"
     inkscape:zoom="0.49497475"
     inkscape:cx="384.48908"
     inkscape:cy="546.54191"
     inkscape:document-units="px"
     inkscape:current-layer="layer1"
     showgrid="false"
     inkscape:window-width="1280"
     inkscape:window-height="754"
     inkscape:window-x="0"
     inkscape:window-y="24"
     inkscape:window-maximized="1" />
  <metadata
     id="metadata17667">
    <rdf:RDF>
      <cc:Work
         rdf:about="">
        <dc:format>image/svg+xml</dc:format>
        <dc:type
           rdf:resource="http://purl.org/dc/dcmitype/StillImage" />
        <dc:title></dc:title>
      </cc:Work>
    </rdf:RDF>
  </metadata>
  <g
     inkscape:label="Capa 1"
     inkscape:groupmode="layer"
     id="layer1">
    <g
       id="g4510"
       transform="matrix(6.1786063,0,0,-7.1672053,368.89531,317.93949)">
      <path
         d="m 0,0 c 0,0 -5.695,7.853 -19.719,0.043 0,0 -0.258,-0.13 -5.953,6.602 -5.697,6.731 -12.383,14.872 -17.391,11.535 0,0 -3.322,-0.921 -1.552,-11.622 1.789,-10.837 4.486,-25.716 4.486,-25.716"
         style="fill:none;stroke:#000000;stroke-width:3;stroke-linecap:round;stroke-linejoin:round;stroke-miterlimit:10;stroke-opacity:1;stroke-dasharray:none"
         id="path4512"
         inkscape:connector-curvature="0" />
    </g>
    <g
       id="g4514"
       transform="matrix(6.1786063,0,0,-7.1672053,92.426899,250.2117)">
      <path
         d="m 0,0 c 0,0.518 0.775,2.2 0.775,2.2 1.038,1.942 2.848,2.33 6.084,-0.777 3.237,-3.106 11.004,-16.05 11.004,-16.05 -8.285,-6.214 -13.246,-13.98 -13.246,-13.98 0,0 -10.683,-13.403 -13.963,-25.141 l 3.567,0.028 c 0,0 -2.244,-7.594 -3.28,-13.289 0,0 22.913,-11.678 37.186,-33.181 0,0 6.902,-10.252 16.57,-10.252"
         style="fill:none;stroke:#000000;stroke-width:3;stroke-linecap:round;stroke-linejoin:round;stroke-miterlimit:10;stroke-opacity:1;stroke-dasharray:none"
         id="path4516"
         inkscape:connector-curvature="0" />
    </g>
    <g
       id="g4518"
       transform="matrix(6.1786063,0,0,-7.1672053,368.62938,924.84651)">
      <path
         d="M 0,0 C -4.361,0 -8.414,1.813 -8.219,7.637 -8.102,11.145 -4.793,11.78 0,11.78"
         style="fill:none;stroke:#000000;stroke-width:3;stroke-linecap:round;stroke-linejoin:round;stroke-miterlimit:10;stroke-opacity:1;stroke-dasharray:none"
         id="path4520"
         inkscape:connector-curvature="0" />
    </g>
    <g
       id="g4522"
       transform="matrix(6.1786063,0,0,-7.1672053,284.25038,600.5963)">
      <path
         d="m 0,0 c 0,-2.109 -1.709,-3.818 -3.818,-3.818 -2.109,0 -3.818,1.709 -3.818,3.818 0,2.109 1.709,3.819 3.818,3.819 C -1.709,3.819 0,2.109 0,0 z"
         style="fill:none;stroke:#000000;stroke-width:3;stroke-linecap:round;stroke-linejoin:round;stroke-miterlimit:10;stroke-opacity:1;stroke-dasharray:none"
         id="path4524"
         inkscape:connector-curvature="0" />
    </g>
    <g
       id="g4526"
       transform="matrix(6.1786063,0,0,-7.1672053,299.0479,689.66172)">
      <path
         d="m 0,0 c -4.762,-18.3 -5.178,-23.731 -5.178,-23.731 -0.863,-4.315 0,-10.895 8.555,-12.696 0,0 6.676,-1.026 7.885,2.513"
         style="fill:none;stroke:#000000;stroke-width:3;stroke-linecap:round;stroke-linejoin:round;stroke-miterlimit:10;stroke-opacity:1;stroke-dasharray:none"
         id="path4528"
         inkscape:connector-curvature="0" />
    </g>
    <g
       id="g4530"
       transform="matrix(6.1786063,0,0,-7.1672053,40.729263,709.45582)">
      <path
         d="m 0,0 c 17.43,24.336 36.762,18.813 36.762,18.813 0,0 6.859,-1.424 6.299,-8.802"
         style="fill:none;stroke:#000000;stroke-width:3;stroke-linecap:round;stroke-linejoin:round;stroke-miterlimit:10;stroke-opacity:1;stroke-dasharray:none"
         id="path4532"
         inkscape:connector-curvature="0" />
    </g>
    <g
       id="g4534"
       transform="matrix(6.1786063,0,0,-7.1672053,283.95133,582.25226)">
      <path
         d="m 0,0 c 0,0 4.586,-3.029 3.963,-7.306 0,0 5.082,12.427 -6.051,15.534 0,0 -9.922,2.416 -12.512,-6.731"
         style="fill:none;stroke:#000000;stroke-width:3;stroke-linecap:round;stroke-linejoin:round;stroke-miterlimit:10;stroke-opacity:1;stroke-dasharray:none"
         id="path4536"
         inkscape:connector-curvature="0" />
    </g>
    <g
       id="g4538"
       transform="matrix(6.1786063,0,0,-7.1672053,369.10045,318.56333)">
      <path
         d="M 0,0 0,-20.711"
         style="fill:none;stroke:#000000;stroke-width:3;stroke-linecap:round;stroke-linejoin:round;stroke-miterlimit:10;stroke-opacity:1;stroke-dasharray:none"
         id="path4540"
         inkscape:connector-curvature="0" />
    </g>
    <g
       id="g4542"
       transform="matrix(6.1786063,0,0,-7.1672053,179.26499,585.91212)">
      <path
         d="m 0,0 c 0,0 -0.098,-8.239 5.195,-12.206 5.289,-3.968 8.721,-6.028 11.215,-13.143"
         style="fill:none;stroke:#000000;stroke-width:3;stroke-linecap:round;stroke-linejoin:round;stroke-miterlimit:10;stroke-opacity:1;stroke-dasharray:none"
         id="path4544"
         inkscape:connector-curvature="0" />
    </g>
    <g
       id="g4546"
       transform="matrix(6.1786063,0,0,-7.1672053,369.02827,994.89132)">
      <path
         d="M 0,0 C 0,0 -11.908,-0.259 -11.908,7.508"
         style="fill:none;stroke:#000000;stroke-width:3;stroke-linecap:round;stroke-linejoin:round;stroke-miterlimit:10;stroke-opacity:1;stroke-dasharray:none"
         id="path4548"
         inkscape:connector-curvature="0" />
    </g>
    <g
       id="g4550"
       transform="matrix(6.1786063,0,0,-7.1672053,369.9086,924.84651)">
      <path
         d="M 0,0 C -4.361,0 -8.414,1.813 -8.221,7.637 -8.104,11.145 -4.795,11.78 0,11.78"
         style="fill:none;stroke:#000000;stroke-width:3;stroke-linecap:round;stroke-linejoin:round;stroke-miterlimit:10;stroke-opacity:1;stroke-dasharray:none"
         id="path4552"
         inkscape:connector-curvature="0" />
    </g>
    <g
       id="g4554"
       transform="matrix(6.1786063,0,0,-7.1672053,370.53635,317.93949)">
      <path
         d="m 0,0 c 0,0 5.695,7.853 19.719,0.043 0,0 0.258,-0.13 5.953,6.602 5.697,6.731 12.383,14.872 17.391,11.535 0,0 3.322,-0.921 1.552,-11.622 -1.789,-10.837 -4.486,-25.716 -4.486,-25.716"
         style="fill:none;stroke:#000000;stroke-width:3;stroke-linecap:round;stroke-linejoin:round;stroke-miterlimit:10;stroke-opacity:1;stroke-dasharray:none"
         id="path4556"
         inkscape:connector-curvature="0" />
    </g>
    <g
       id="g4558"
       transform="matrix(6.1786063,0,0,-7.1672053,647.00476,250.2117)">
      <path
         d="m 0,0 c 0,0.518 -0.775,2.2 -0.775,2.2 -1.038,1.942 -2.848,2.33 -6.084,-0.777 -3.237,-3.106 -11.004,-16.05 -11.004,-16.05 8.285,-6.214 13.246,-13.98 13.246,-13.98 0,0 10.683,-13.403 13.963,-25.141 l -3.567,0.028 c 0,0 2.244,-7.594 3.28,-13.289 0,0 -22.913,-11.678 -37.186,-33.181 0,0 -6.902,-10.252 -16.57,-10.252"
         style="fill:none;stroke:#000000;stroke-width:3;stroke-linecap:round;stroke-linejoin:round;stroke-miterlimit:10;stroke-opacity:1;stroke-dasharray:none"
         id="path4560"
         inkscape:connector-curvature="0" />
    </g>
    <g
       id="g4562"
       transform="matrix(6.1786063,0,0,-7.1672053,370.80178,924.84651)">
      <path
         d="M 0,0 C 4.361,0 8.414,1.813 8.219,7.637 8.102,11.145 4.793,11.78 0,11.78"
         style="fill:none;stroke:#000000;stroke-width:3;stroke-linecap:round;stroke-linejoin:round;stroke-miterlimit:10;stroke-opacity:1;stroke-dasharray:none"
         id="path4564"
         inkscape:connector-curvature="0" />
    </g>
    <g
       id="g4566"
       transform="matrix(6.1786063,0,0,-7.1672053,455.17831,600.5963)">
      <path
         d="m 0,0 c 0,-2.109 1.709,-3.818 3.818,-3.818 2.11,0 3.819,1.709 3.819,3.818 0,2.109 -1.709,3.819 -3.819,3.819 C 1.709,3.819 0,2.109 0,0 z"
         style="fill:none;stroke:#000000;stroke-width:3;stroke-linecap:round;stroke-linejoin:round;stroke-miterlimit:10;stroke-opacity:1;stroke-dasharray:none"
         id="path4568"
         inkscape:connector-curvature="0" />
    </g>
    <g
       id="g4570"
       transform="matrix(6.1786063,0,0,-7.1672053,440.38376,689.66172)">
      <path
         d="m 0,0 c 4.762,-18.3 5.178,-23.731 5.178,-23.731 0.863,-4.315 0,-10.895 -8.555,-12.696 0,0 -6.676,-1.026 -7.885,2.513"
         style="fill:none;stroke:#000000;stroke-width:3;stroke-linecap:round;stroke-linejoin:round;stroke-miterlimit:10;stroke-opacity:1;stroke-dasharray:none"
         id="path4572"
         inkscape:connector-curvature="0" />
    </g>
    <g
       id="g4574"
       transform="matrix(6.1786063,0,0,-7.1672053,698.7024,709.45582)">
      <path
         d="m 0,0 c -17.43,24.336 -36.762,18.813 -36.762,18.813 0,0 -6.86,-1.424 -6.299,-8.802"
         style="fill:none;stroke:#000000;stroke-width:3;stroke-linecap:round;stroke-linejoin:round;stroke-miterlimit:10;stroke-opacity:1;stroke-dasharray:none"
         id="path4576"
         inkscape:connector-curvature="0" />
    </g>
    <g
       id="g4578"
       transform="matrix(6.1786063,0,0,-7.1672053,455.47983,582.25226)">
      <path
         d="m 0,0 c 0,0 -4.586,-3.029 -3.963,-7.306 0,0 -5.082,12.427 6.051,15.534 0,0 9.922,2.416 12.512,-6.731"
         style="fill:none;stroke:#000000;stroke-width:3;stroke-linecap:round;stroke-linejoin:round;stroke-miterlimit:10;stroke-opacity:1;stroke-dasharray:none"
         id="path4580"
         inkscape:connector-curvature="0" />
    </g>
    <g
       id="g4582"
       transform="matrix(6.1786063,0,0,-7.1672053,370.33122,318.56333)">
      <path
         d="M 0,0 0,-20.711"
         style="fill:none;stroke:#000000;stroke-width:3;stroke-linecap:round;stroke-linejoin:round;stroke-miterlimit:10;stroke-opacity:1;stroke-dasharray:none"
         id="path4584"
         inkscape:connector-curvature="0" />
    </g>
    <g
       id="g4586"
       transform="matrix(6.1786063,0,0,-7.1672053,560.16617,585.91212)">
      <path
         d="m 0,0 c 0,0 0.098,-8.239 -5.195,-12.206 -5.289,-3.968 -8.721,-6.028 -11.215,-13.143"
         style="fill:none;stroke:#000000;stroke-width:3;stroke-linecap:round;stroke-linejoin:round;stroke-miterlimit:10;stroke-opacity:1;stroke-dasharray:none"
         id="path4588"
         inkscape:connector-curvature="0" />
    </g>
    <g
       id="g4590"
       transform="matrix(6.1786063,0,0,-7.1672053,370.40339,994.89132)">
      <path
         d="M 0,0 C 0,0 11.908,-0.259 11.908,7.508"
         style="fill:none;stroke:#000000;stroke-width:3;stroke-linecap:round;stroke-linejoin:round;stroke-miterlimit:10;stroke-opacity:1;stroke-dasharray:none"
         id="path4592"
         inkscape:connector-curvature="0" />
    </g>
    <g
       id="g4594"
       transform="matrix(6.1786063,0,0,-7.1672053,369.52257,924.84651)">
      <path
         d="M 0,0 C 4.361,0 8.414,1.813 8.221,7.637 8.104,11.145 4.795,11.78 0,11.78"
         style="fill:none;stroke:#000000;stroke-width:3;stroke-linecap:round;stroke-linejoin:round;stroke-miterlimit:10;stroke-opacity:1;stroke-dasharray:none"
         id="path4596"
         inkscape:connector-curvature="0" />
    </g>
  </g>
</svg>
