<?xml version="1.0" encoding="utf-8"?>
<!-- Generator: Adobe Illustrator 16.0.4, SVG Export Plug-In . SVG Version: 6.00 Build 0)  -->
<!DOCTYPE svg PUBLIC "-//W3C//DTD SVG 1.1//EN" "http://www.w3.org/Graphics/SVG/1.1/DTD/svg11.dtd">
<svg version="1.1" id="Layer_1" xmlns="http://www.w3.org/2000/svg" xmlns:xlink="http://www.w3.org/1999/xlink" x="0px" y="0px"
	 width="197.299px" height="175.975px" viewBox="0 0 197.299 175.975" enable-background="new 0 0 197.299 175.975"
	 xml:space="preserve">
<g>
	<g>
		<path fill="#BCE8DF" d="M38.187,42.38c10.617-1.812,20.449,5.375,21.854,15.355c1.402,9.98-24.467,46.013-33.898,51.212
			c-9.84,5.424-8.391,0.783-8.258-17.491C17.935,84.632,11.384,46.956,38.187,42.38z"/>
		<path fill="#76ADAD" d="M17.781,112.059c-0.765-0.692-1.176-1.562-1.444-2.459l0,0c-0.521-1.807-0.596-3.984-0.605-6.913l0,0
			c0-2.976,0.117-6.69,0.151-11.231l0,0c0-0.026,0-0.053,0-0.082l0,0c0.011-1.998-0.671-7.644-0.674-14.247l0,0
			c0.009-6.93,0.724-15.087,3.897-22.131l0,0c3.133-7.042,9.057-12.977,18.742-14.588l0,0c1.22-0.206,2.432-0.309,3.63-0.309l0,0
			c10.246,0.004,19.118,7.369,20.542,17.359l0,0c0.051,0.369,0.072,0.739,0.074,1.116l0,0c-0.023,2.606-0.998,5.617-2.518,9.108l0,0
			c-1.527,3.475-3.646,7.367-6.1,11.378l0,0c-4.906,8.017-11.141,16.49-16.658,22.75l0,0c-3.705,4.181-6.972,7.349-9.711,8.889l0,0
			c-2.65,1.425-4.527,2.328-6.541,2.373l0,0c-0.024,0-0.05,0-0.075,0l0,0C19.556,113.072,18.521,112.74,17.781,112.059
			L17.781,112.059z M20.567,109.073c0.492,0.047,2.186-0.508,4.607-1.878l0,0c2.842-1.507,8.588-7.488,14.164-14.732l0,0
			C44.97,85.2,50.687,76.569,54.297,69.47l0,0c2.423-4.695,3.839-8.844,3.796-10.896l0,0c0-0.219-0.012-0.407-0.035-0.561l0,0
			c-1.093-7.89-8.256-13.92-16.579-13.916l0,0c-0.971,0.002-1.958,0.084-2.957,0.254l0,0c-8.364,1.47-12.929,6.122-15.771,12.292
			l0,0c-2.801,6.165-3.549,13.84-3.541,20.482l0,0c-0.002,6.403,0.662,11.689,0.672,14.247l0,0c0,0.027,0,0.056,0,0.097l0,0
			c-0.035,4.604-0.149,8.344-0.149,11.217l0,0c-0.024,3.217,0.213,5.409,0.562,6.12l0,0c0.072,0.166,0.119,0.232,0.141,0.257l0,0
			C20.456,109.067,20.497,109.073,20.567,109.073L20.567,109.073z"/>
	</g>
	<g>
		<path fill="#BCE8DF" d="M159.12,42.38c-10.617-1.812-20.449,5.375-21.854,15.355c-1.402,9.98,24.465,46.013,33.896,51.212
			c9.84,5.424,8.393,0.783,8.26-17.491C179.372,84.632,185.923,46.956,159.12,42.38z"/>
		<path fill="#76ADAD" d="M176.735,113.074c-2.014-0.049-3.891-0.95-6.539-2.375l0,0c-4.047-2.29-9.57-8.328-15.395-15.787l0,0
			c-5.77-7.442-11.576-16.194-15.361-23.626l0,0c-2.51-4.991-4.191-9.259-4.23-12.712l0,0c0-0.385,0.023-0.759,0.074-1.118l0,0
			c1.42-9.987,10.293-17.354,20.541-17.357l0,0c1.197,0,2.41,0.102,3.631,0.31l0,0l-0.338,1.972l-0.336,1.972
			c-1-0.17-1.986-0.253-2.957-0.253l0,0c-8.328-0.004-15.488,6.025-16.58,13.917l0,0c-0.023,0.162-0.037,0.349-0.035,0.559l0,0
			c-0.023,1.523,0.744,4.278,2.176,7.499l0,0c1.422,3.236,3.465,7.002,5.85,10.899l0,0c4.77,7.8,10.922,16.154,16.246,22.194l0,0
			c3.521,4.017,6.795,7.036,8.646,8.028l0,0c2.424,1.369,4.115,1.926,4.607,1.879l0,0c0.064,0,0.104-0.005,0.125-0.009l0,0
			c0.035-0.046,0.15-0.205,0.268-0.604l0,0c0.301-0.955,0.449-2.969,0.439-5.773l0,0c0-2.877-0.115-6.611-0.145-11.16l0,0
			c-0.002-0.027-0.004-0.079-0.004-0.153l0,0c0.012-2.558,0.672-7.846,0.67-14.247l0,0c0.008-6.643-0.74-14.318-3.539-20.485l0,0
			c-2.842-6.169-7.404-10.82-15.768-12.29l0,0l0.336-1.972l0.338-1.972c9.684,1.61,15.607,7.545,18.738,14.586l0,0
			c3.174,7.046,3.889,15.203,3.896,22.133l0,0c-0.002,6.603-0.682,12.246-0.672,14.247l0,0c0,0,0,0.008,0.002,0.068l0,0
			c0.029,4.556,0.146,8.269,0.146,11.245l0,0c-0.002,2.189-0.059,3.975-0.291,5.48l0,0c-0.248,1.481-0.615,2.824-1.756,3.89l0,0
			c-0.74,0.684-1.779,1.017-2.717,1.017l0,0C176.782,113.074,176.759,113.074,176.735,113.074L176.735,113.074z"/>
	</g>
	<polygon fill="#76ADAD" points="79.298,44.361 81.384,29.456 91.384,35.456 101.884,22.456 111.884,36.456 122.276,28.42 
		123.253,45.921 	"/>
	<g>
		<ellipse fill="#BCE8DF" cx="98.687" cy="88.47" rx="61.57" ry="51.651"/>
		<path fill="#76ADAD" d="M53.864,126.524c-11.522-9.655-18.752-23.13-18.75-38.056l0,0c-0.002-14.924,7.228-28.399,18.75-38.057
			l0,0c11.527-9.665,27.365-15.594,44.822-15.596l0,0c17.455,0.002,33.295,5.931,44.82,15.596l0,0
			c11.521,9.657,18.752,23.133,18.75,38.057l0,0c0.002,14.926-7.229,28.4-18.75,38.056l0,0
			c-11.525,9.667-27.365,15.594-44.82,15.598l0,0C81.229,142.118,65.392,136.191,53.864,126.524L53.864,126.524z M56.435,53.478
			c-10.762,9.038-17.316,21.39-17.32,34.991l0,0c0.004,13.604,6.559,25.953,17.32,34.992l0,0
			c10.758,9.027,25.703,14.663,42.252,14.66l0,0c16.547,0.003,31.492-5.633,42.25-14.66l0,0
			c10.762-9.039,17.316-21.389,17.318-34.992l0,0c-0.002-13.602-6.557-25.953-17.318-34.991l0,0
			c-10.758-9.026-25.703-14.662-42.25-14.66l0,0c-0.004,0-0.006,0-0.01,0l0,0C82.133,38.817,67.19,44.453,56.435,53.478
			L56.435,53.478z"/>
	</g>
	<path opacity="0.51" fill="#5BC2C2" d="M99.86,132.074c-31.158,0-56.688-20.398-59.109-46.32c-0.312-1.327-0.572-2.67-0.76-4.031
		c-0.262,1.92-0.41,3.869-0.41,5.849c0,27.81,26.557,50.353,59.316,50.353c31.09,0,56.576-20.309,59.094-46.149
		C152.503,114.768,128.563,132.074,99.86,132.074z"/>
	<g>
		<path fill="#FFFFFF" d="M63.708,115.437c2.234-4.884,7.902-7.078,12.662-4.901c4.76,2.176,6.809,7.9,4.574,12.783
			c-2.232,4.883-20.047,30.246-24.807,28.068C51.378,149.211,61.476,120.32,63.708,115.437z"/>
		<path fill="#CCCCCC" d="M55.307,153.205c-1.144-0.527-1.745-1.554-2.034-2.47l0,0c-0.303-0.944-0.393-1.938-0.395-3.036l0,0
			c0.021-4.712,1.823-11.779,3.82-18.395l0,0c2.011-6.602,4.203-12.529,5.191-14.699l0,0c1.977-4.32,6.202-6.913,10.627-6.913l0,0
			c1.572,0,3.172,0.328,4.685,1.022l0,0c4.202,1.924,6.651,6.109,6.646,10.479l0,0c0,1.659-0.351,3.35-1.084,4.955l0,0
			c-1.121,2.41-4.768,7.963-9.146,13.788l0,0c-4.397,5.798-9.27,11.601-13.185,14.229l0,0c-1.151,0.74-2.242,1.32-3.645,1.352l0,0
			c-0.005,0-0.011,0-0.016,0l0,0C56.298,153.518,55.788,153.427,55.307,153.205L55.307,153.205z M60.526,130.469
			c-1.967,6.412-3.672,13.494-3.648,17.23l0,0c-0.002,0.63,0.047,1.151,0.123,1.507l0,0c0.018,0.094,0.037,0.173,0.057,0.239l0,0
			c0.256-0.09,0.674-0.274,1.166-0.615l0,0c0.828-0.546,1.865-1.412,2.986-2.498l0,0c2.25-2.172,4.857-5.207,7.359-8.394l0,0
			c4.988-6.327,9.688-13.499,10.556-15.452l0,0c0.493-1.08,0.723-2.196,0.723-3.293l0,0c-0.007-2.902-1.607-5.606-4.312-6.841l0,0
			c-0.983-0.449-2.002-0.659-3.02-0.659l0,0c-2.863-0.002-5.672,1.688-6.989,4.574l0,0C64.7,118.066,62.474,124.047,60.526,130.469
			L60.526,130.469z"/>
	</g>
	<g>
		<path fill="#FFFFFF" d="M132.019,115.437c-2.232-4.884-7.902-7.078-12.662-4.901c-4.76,2.176-6.807,7.9-4.574,12.783
			s20.047,30.246,24.807,28.068C144.349,149.211,134.251,120.32,132.019,115.437z"/>
		<path fill="#CCCCCC" d="M138.937,153.519c-1.402-0.031-2.492-0.612-3.646-1.353l0,0c-1.143-0.759-2.318-1.764-3.555-2.957l0,0
			c-2.465-2.385-5.148-5.521-7.725-8.799l0,0c-5.168-6.604-9.777-13.531-11.047-16.26l0,0c-0.738-1.607-1.088-3.301-1.088-4.957l0,0
			c-0.004-4.369,2.447-8.555,6.645-10.477l0,0c1.514-0.694,3.113-1.023,4.686-1.023l0,0c4.426,0,8.652,2.592,10.631,6.911l0,0
			l-1.816,0.831l1.816-0.829c0.986,2.169,3.176,8.096,5.189,14.7l0,0c1.994,6.613,3.799,13.68,3.82,18.393l0,0
			c-0.004,1.098-0.092,2.091-0.395,3.033l0,0c-0.287,0.916-0.887,1.944-2.049,2.482l0,0c-0.469,0.211-0.979,0.304-1.451,0.304l0,0
			C138.946,153.519,138.942,153.519,138.937,153.519L138.937,153.519z M120.187,112.354c-2.703,1.232-4.303,3.938-4.309,6.839l0,0
			c0,1.098,0.229,2.215,0.723,3.292l0,0c0.754,1.689,4.463,7.444,8.701,13.044l0,0c4.217,5.627,9.217,11.365,12.197,13.301l0,0
			c0.494,0.342,0.91,0.529,1.166,0.62l0,0c0.1-0.329,0.186-0.954,0.182-1.751l0,0c0.021-3.736-1.684-10.817-3.648-17.23l0,0
			c-1.951-6.422-4.174-12.402-5-14.201l0,0v-0.001c-1.32-2.886-4.129-4.573-6.992-4.573l0,0
			C122.188,111.693,121.169,111.904,120.187,112.354L120.187,112.354z"/>
	</g>
	<g>
		<ellipse fill="#EDFFFC" cx="98.687" cy="109.801" rx="29.25" ry="19.5"/>
		<path fill="#76ADAD" d="M76.894,125.254c-5.662-3.763-9.453-9.211-9.459-15.453l0,0c0.006-6.243,3.797-11.691,9.459-15.453l0,0
			c5.686-3.782,13.354-6.041,21.791-6.048l0,0c8.439,0.007,16.107,2.266,21.793,6.048l0,0c5.662,3.762,9.453,9.21,9.459,15.453l0,0
			c-0.008,6.242-3.797,11.69-9.459,15.453l0,0c-5.686,3.781-13.354,6.043-21.793,6.047l0,0
			C90.247,131.297,82.579,129.035,76.894,125.254L76.894,125.254z M79.112,97.678c-4.924,3.295-7.683,7.596-7.676,12.123l0,0
			c-0.007,4.526,2.752,8.829,7.676,12.124l0,0c4.9,3.274,11.857,5.381,19.572,5.376l0,0c7.717,0.005,14.672-2.102,19.574-5.376l0,0
			c4.924-3.295,7.682-7.598,7.676-12.124l0,0c0.006-4.527-2.752-8.828-7.676-12.123l0,0c-4.902-3.276-11.857-5.381-19.574-5.376l0,0
			c-0.008,0-0.014,0-0.021,0l0,0C90.958,92.302,84.007,94.404,79.112,97.678L79.112,97.678z"/>
	</g>
	<ellipse fill="#76ADAD" cx="89.437" cy="111.051" rx="5" ry="10.75"/>
	<ellipse fill="#76ADAD" cx="107.937" cy="111.051" rx="5" ry="10.75"/>
	<g>
		<g>
			<circle cx="76.159" cy="72.644" r="9.574"/>
			<path fill="#FFFFFF" d="M64.585,72.644c0-6.395,5.183-11.573,11.575-11.575l0,0c6.392,0.002,11.573,5.181,11.573,11.575l0,0
				c-0.003,6.392-5.182,11.572-11.573,11.574l0,0C69.766,84.216,64.587,79.035,64.585,72.644L64.585,72.644z M68.585,72.644
				c0.008,4.182,3.393,7.566,7.575,7.573l0,0c4.18-0.007,7.565-3.392,7.573-7.573l0,0c-0.008-4.185-3.394-7.567-7.573-7.574l0,0
				C71.978,65.076,68.593,68.459,68.585,72.644L68.585,72.644z"/>
		</g>
		<circle fill="#FFFFFF" cx="74.244" cy="70.302" r="2.554"/>
	</g>
	<g>
		<g>
			<circle cx="121.212" cy="71.196" r="9.574"/>
			<path fill="#FFFFFF" d="M109.638,71.195c0-6.395,5.18-11.572,11.574-11.574l0,0c6.393,0.002,11.572,5.18,11.572,11.574l0,0
				c0,6.393-5.18,11.572-11.572,11.574l0,0C114.817,82.768,109.638,77.588,109.638,71.195L109.638,71.195z M113.638,71.195
				c0.008,4.181,3.393,7.567,7.574,7.574l0,0c4.184-0.007,7.566-3.392,7.572-7.574l0,0h0.002c-0.008-4.185-3.391-7.565-7.574-7.573
				l0,0C117.028,63.63,113.646,67.011,113.638,71.195L113.638,71.195z"/>
		</g>
		<circle fill="#FFFFFF" cx="119.298" cy="68.854" r="2.553"/>
	</g>
</g>
</svg>
