<?xml version="1.0" encoding="utf-8"?>
<!-- Generator: Adobe Illustrator 16.0.4, SVG Export Plug-In . SVG Version: 6.00 Build 0)  -->
<!DOCTYPE svg PUBLIC "-//W3C//DTD SVG 1.1//EN" "http://www.w3.org/Graphics/SVG/1.1/DTD/svg11.dtd">
<svg version="1.1" id="Layer_1" xmlns="http://www.w3.org/2000/svg" xmlns:xlink="http://www.w3.org/1999/xlink" x="0px" y="0px"
	 width="197.299px" height="175.975px" viewBox="0 0 197.299 175.975" enable-background="new 0 0 197.299 175.975"
	 xml:space="preserve">
<g>
	<g>
		<path fill="#FFA83D" d="M128.53,43.482l19.939-21.805c0,0,7.311,21.729,2.611,39.992C151.081,61.67,124.306,52.495,128.53,43.482z
			"/>
		<path fill="#D16222" d="M150.435,63.561c-0.109-0.068-13.062-4.398-20.09-10.56l0,0c-2.316-2.078-4.219-4.483-4.268-7.543l0,0
			c-0.004-0.945,0.211-1.918,0.645-2.833l0,0l0.332-0.493l19.939-21.804c0.479-0.524,1.197-0.754,1.889-0.607l0,0
			c0.693,0.145,1.258,0.646,1.484,1.318l0,0c0.029,0.116,4.279,12.692,4.289,27.052l0,0c-0.002,4.618-0.443,9.427-1.639,14.076l0,0
			c-0.139,0.541-0.496,0.999-0.986,1.264l0,0c-0.295,0.158-0.621,0.238-0.949,0.238l0,0
			C150.862,63.668,150.644,63.633,150.435,63.561L150.435,63.561z M130.077,45.458c-0.014,0.841,0.475,1.979,1.619,3.263l0,0
			c1.125,1.272,2.816,2.608,4.742,3.845l0,0c3.855,2.488,8.627,4.612,11.795,5.888l0,0c0.516,0.208,0.986,0.393,1.406,0.554l0,0
			c0.723-3.582,1.016-7.292,1.016-10.917l0,0c0.004-9.235-1.896-17.893-3.107-22.441l0,0L130.235,44.58
			C130.124,44.884,130.079,45.165,130.077,45.458L130.077,45.458z"/>
	</g>
	<g>
		<path fill="#FFA83D" d="M67.707,43.482L47.768,21.678c0,0-7.311,21.729-2.611,39.992C45.156,61.67,71.932,52.495,67.707,43.482z"
			/>
		<path fill="#D16222" d="M44.206,63.431c-0.49-0.265-0.85-0.723-0.986-1.262l0,0c-1.197-4.653-1.639-9.461-1.639-14.079l0,0
			c0.008-14.36,4.26-26.935,4.291-27.05l0,0c0.226-0.671,0.788-1.172,1.482-1.32l0,0c0.691-0.146,1.41,0.086,1.889,0.607l0,0
			l19.939,21.805l-1.476,1.351l-1.813,0.844l1.813-0.844l1.476-1.351l0.338,0.505c0.422,0.903,0.64,1.871,0.638,2.821l0,0
			c-0.047,3.06-1.952,5.466-4.269,7.543l0,0c-2.359,2.084-5.344,3.905-8.305,5.457l0,0c-5.915,3.096-11.728,5.084-11.781,5.104l0,0
			c-0.211,0.071-0.43,0.106-0.646,0.106l0,0C44.828,63.669,44.501,63.589,44.206,63.431L44.206,63.431z M47.63,30.067
			c-1.027,4.759-2.052,11.237-2.05,18.022l0,0c0,3.625,0.291,7.336,1.017,10.917l0,0c1.283-0.495,3.055-1.21,5.014-2.093l0,0
			c3.952-1.776,8.691-4.291,11.627-6.907l0,0c1.998-1.743,2.967-3.445,2.922-4.55l0,0c-0.002-0.289-0.047-0.571-0.161-0.88l0,0
			L48.69,25.65C48.368,26.856,47.999,28.35,47.63,30.067L47.63,30.067z"/>
	</g>
	<g>
		<path fill="#FFA83D" d="M158.755,106.346c6.865-4.709,8.895-12.422,8.895-12.422c-2.748,0.851-5.734,1.322-8.646,1.559
			c0.246-1.881,0.385-3.789,0.385-5.725c0-28.527-27.566-51.652-61.57-51.652c-34.003,0-61.569,23.125-61.569,51.652
			c0,1.879,0.127,3.732,0.359,5.561c-2.365-0.27-4.739-0.708-6.957-1.395c0,0,2.029,7.713,8.896,12.422
			c-4.194,4.458-8.396,7.078-8.396,7.078c4.964,1.186,9.461,1.202,13.34,0.646c0.596,0.934,1.223,1.85,1.883,2.748
			c-1.773,2.199-3.688,4.402-5.473,6.105c0,0,7.29,1.543,12.946,3.787c-3.403,2.865-6.954,6.761-7.696,10.963
			c0,0,11.327-5.95,22.877-2.711c8.83,4.104,18.982,6.447,29.79,6.447c9.838,0,19.131-1.946,27.379-5.389l0,0
			c13-7,26.953,1.652,26.953,1.652c-0.742-4.202-4.293-8.098-7.695-10.963c5.656-2.244,12.945-3.787,12.945-3.787
			c-2.084-1.99-4.348-4.662-6.355-7.213c0.432-0.623,0.852-1.252,1.252-1.891c4.203,0.793,9.23,0.946,14.854-0.396
			C167.149,113.424,162.948,110.804,158.755,106.346z"/>
		<path fill="#D16222" d="M67.339,136.848c-2.221-0.608-4.444-0.853-6.587-0.851l0,0c-7.03-0.013-13.112,2.68-14.415,3.319l0,0
			c-0.188,0.089-0.258,0.126-0.258,0.129l0,0c-0.676,0.354-1.492,0.294-2.108-0.158l0,0c-0.618-0.452-0.924-1.21-0.791-1.962l0,0
			c0.728-3.884,3.182-7.173,5.878-9.854l0,0c-1.853-0.611-3.727-1.145-5.315-1.562l0,0c-2.484-0.654-4.253-1.028-4.257-1.028l0,0
			c-0.725-0.155-1.308-0.699-1.51-1.411l0,0c-0.203-0.712,0.007-1.481,0.543-1.992l0,0c1.375-1.313,2.883-2.994,4.338-4.744l0,0
			c-0.119-0.174-0.238-0.349-0.357-0.524l0,0c-1.266,0.137-2.592,0.214-3.971,0.214l0,0c-2.752,0-5.717-0.307-8.842-1.054l0,0
			c-0.787-0.188-1.381-0.824-1.512-1.623l0,0c-0.129-0.798,0.23-1.59,0.916-2.02l0,0c0,0,0.216-0.133,0.649-0.433l0,0
			c0.432-0.296,1.059-0.74,1.813-1.321l0,0c1.119-0.861,2.518-2.02,3.981-3.428l0,0c-6.021-5.157-7.751-11.933-7.818-12.112l0,0
			c-0.187-0.704,0.024-1.449,0.55-1.953l0,0c0.525-0.503,1.278-0.682,1.975-0.466l0,0c1.311,0.405,2.701,0.723,4.123,0.968l0,0
			c-0.077-1.065-0.117-2.14-0.117-3.224l0,0c-0.003-14.926,7.227-28.4,18.748-38.056l0,0c11.528-9.667,27.367-15.594,44.822-15.596
			l0,0c17.455,0.002,33.295,5.93,44.82,15.596l0,0c11.523,9.656,18.752,23.13,18.75,38.056l0,0c0,1.171-0.049,2.33-0.139,3.478l0,0
			c2.004-0.262,3.98-0.656,5.809-1.222l0,0c0.695-0.216,1.451-0.037,1.975,0.466l0,0c0.525,0.504,0.736,1.249,0.551,1.953l0,0
			c-0.07,0.18-1.797,6.955-7.82,12.112l0,0c2.453,2.358,4.723,4.015,5.795,4.749l0,0c0.434,0.3,0.65,0.433,0.65,0.433l0,0
			c0.684,0.427,1.045,1.222,0.914,2.02l0,0c-0.131,0.799-0.725,1.436-1.51,1.623l0,0c-3.131,0.745-6.094,1.056-8.852,1.054l0,0
			c-1.695,0.002-3.311-0.114-4.838-0.316l0,0c1.615,1.974,3.318,3.901,4.857,5.371l0,0c0.535,0.511,0.744,1.28,0.543,1.992l0,0
			c-0.203,0.712-0.787,1.258-1.51,1.411l0,0c-0.002,0-1.773,0.374-4.256,1.028l0,0c-1.59,0.418-3.465,0.951-5.316,1.562l0,0
			c2.695,2.683,5.148,5.972,5.877,9.855l0,0c0.137,0.776-0.193,1.56-0.848,2.003l0,0c-0.654,0.444-1.504,0.461-2.176,0.044l0,0
			c0,0.002-0.068-0.044-0.256-0.149l0,0c-0.189-0.107-0.473-0.266-0.848-0.457l0,0c-0.744-0.382-1.838-0.9-3.191-1.419l0,0
			c-2.707-1.038-6.445-2.063-10.492-2.062l0,0c-3.279,0.002-6.748,0.658-10.162,2.495l0,0l-0.18,0.085
			c-8.492,3.545-18.047,5.544-28.148,5.544l0,0C86.782,143.409,76.399,141.03,67.339,136.848L67.339,136.848z M68.568,133.037
			l0.302,0.11c8.563,3.981,18.429,6.262,28.947,6.262l0,0c9.539,0,18.541-1.881,26.523-5.198l0,0
			c4.043-2.158,8.182-2.928,11.967-2.926l0,0c4.703,0.014,8.875,1.159,11.898,2.313l0,0c-1.34-1.941-3.18-3.814-5.041-5.358l0,0
			c-0.537-0.452-0.799-1.157-0.688-1.851l0,0c0.113-0.693,0.586-1.279,1.238-1.538l0,0c3.336-1.321,7.133-2.388,9.807-3.066l0,0
			c-1.393-1.542-2.771-3.215-4.051-4.838l0,0c-0.547-0.693-0.576-1.654-0.072-2.379l0,0c0.418-0.602,0.82-1.206,1.203-1.813l0,0
			c0.436-0.695,1.256-1.053,2.062-0.901l0,0c1.867,0.352,3.906,0.569,6.096,0.569l0,0c1.102,0,2.24-0.056,3.416-0.177l0,0
			c-1.449-1.181-3.158-2.704-4.879-4.531l0,0l1.455-1.37l1.131,1.648l-1.131-1.648l-1.455,1.37
			c-0.402-0.428-0.596-1.002-0.533-1.583l0,0c0.064-0.584,0.373-1.104,0.857-1.437l0,0c3.369-2.291,5.498-5.492,6.721-7.903l0,0
			c-1.727,0.327-3.469,0.544-5.18,0.685l0,0c-0.605,0.047-1.193-0.177-1.609-0.617l0,0c-0.42-0.439-0.615-1.037-0.535-1.638l0,0
			c0.238-1.804,0.369-3.624,0.369-5.465l0,0c-0.002-13.602-6.557-25.953-17.32-34.99l0,0c-10.758-9.029-25.703-14.664-42.25-14.662
			l0,0c-16.546-0.002-31.492,5.633-42.25,14.662l0,0c-10.762,9.037-17.316,21.389-17.319,34.99l0,0c0,1.789,0.12,3.558,0.343,5.308
			l0,0c0.078,0.608-0.129,1.221-0.561,1.658l0,0c-0.432,0.438-1.04,0.651-1.65,0.581l0,0c-1.14-0.13-2.286-0.298-3.426-0.514l0,0
			c0.104,0.203,0.211,0.411,0.327,0.624l0,0c1.26,2.328,3.309,5.168,6.396,7.281l0,0c0.482,0.332,0.795,0.853,0.856,1.437l0,0
			c0.064,0.581-0.13,1.155-0.531,1.583l0,0c-1.72,1.826-3.429,3.35-4.878,4.531l0,0c1.172,0.12,2.307,0.175,3.404,0.175l0,0
			c1.646,0,3.209-0.123,4.681-0.333l0,0c0.776-0.109,1.544,0.245,1.968,0.905l0,0c0.57,0.898,1.175,1.777,1.808,2.641l0,0
			c0.536,0.729,0.513,1.732-0.054,2.438l0,0c-1.018,1.262-2.082,2.526-3.154,3.713l0,0c2.674,0.679,6.471,1.745,9.807,3.066l0,0
			c0.653,0.257,1.125,0.845,1.236,1.538l0,0c0.112,0.693-0.148,1.398-0.685,1.851l0,0c-1.999,1.658-3.974,3.695-5.329,5.79l0,0
			c2.988-0.998,7.205-2.024,11.946-2.032l0,0C63.249,131.998,65.894,132.284,68.568,133.037L68.568,133.037z"/>
	</g>
	<g>
		<g>
			<circle cx="71.884" cy="90.316" r="7.741"/>
			<path fill="#FFFFFF" d="M62.144,90.315c0.002-5.381,4.359-9.738,9.74-9.74l0,0c5.38,0.002,9.739,4.359,9.742,9.74l0,0
				c-0.003,5.38-4.36,9.74-9.742,9.74l0,0C66.503,100.056,62.146,95.695,62.144,90.315L62.144,90.315z M66.144,90.315
				c0.004,3.169,2.572,5.734,5.74,5.741l0,0c3.172-0.007,5.734-2.572,5.74-5.741l0,0c-0.006-3.17-2.568-5.735-5.74-5.739l0,0
				C68.714,84.58,66.147,87.146,66.144,90.315L66.144,90.315z"/>
		</g>
		<circle fill="#FFFFFF" cx="70.336" cy="88.424" r="2.064"/>
	</g>
	<g>
		<g>
			<circle cx="123.198" cy="90.316" r="7.74"/>
			<path fill="#FFFFFF" d="M113.456,90.316c0.002-5.381,4.361-9.74,9.74-9.74l0,0c5.381,0,9.74,4.359,9.742,9.74l0,0
				c-0.002,5.379-4.361,9.737-9.742,9.739l0,0C117.815,100.054,113.458,95.695,113.456,90.316L113.456,90.316z M117.456,90.316
				c0.006,3.168,2.572,5.734,5.74,5.74l0,0c3.172-0.006,5.736-2.572,5.74-5.74l0,0c-0.004-3.172-2.568-5.736-5.74-5.74l0,0
				C120.026,84.58,117.462,87.145,117.456,90.316L117.456,90.316z"/>
		</g>
		<circle fill="#FFFFFF" cx="121.65" cy="88.424" r="2.063"/>
	</g>
	<path opacity="0.4" fill="#D16222" d="M38.184,99.783c-2.371-1.639-4.148-3.643-5.469-5.557c-1.129-0.227-2.24-0.5-3.314-0.836
		c0,0,1.34,5.123,5.525,9.555C35.959,102.032,37.07,100.977,38.184,99.783z M157.382,86.255c-0.064,0.911-0.152,1.816-0.27,2.715
		c0.123-0.011,0.248-0.027,0.371-0.038C157.476,88.033,157.442,87.142,157.382,86.255z M44.924,110.209
		c-0.651-0.895-1.271-1.807-1.858-2.736c-2.112,0.305-4.415,0.427-6.874,0.285c-3.381,3.206-6.297,5.044-6.297,5.044
		c4.5,1.084,8.605,1.18,12.213,0.761C43.059,112.49,44.01,111.352,44.924,110.209z M36.024,86.252
		c-0.058,0.831-0.087,1.668-0.097,2.508c0.114,0.015,0.229,0.033,0.342,0.047C36.162,87.961,36.084,87.109,36.024,86.252z
		 M151.095,117.37c-2.479,0.661-5.605,1.588-8.348,2.685c1.52,1.291,3.066,2.792,4.375,4.435c4.373-1.37,8.408-2.231,8.408-2.231
		C154.089,120.871,152.562,119.148,151.095,117.37z M52.303,120.055c-2.743-1.098-5.872-2.023-8.35-2.686
		c-1.467,1.779-2.991,3.502-4.433,4.889c0,0,4.035,0.861,8.407,2.231C49.236,122.847,50.783,121.346,52.303,120.055z
		 M150.491,107.225c-0.396,0.635-0.811,1.262-1.238,1.881c1.172,1.499,2.43,3.037,3.688,4.455c3.607,0.42,7.713,0.325,12.215-0.759
		c0,0-2.912-1.837-6.293-5.04C155.81,107.938,152.999,107.701,150.491,107.225z M160.124,102.945
		c4.186-4.432,5.525-9.555,5.525-9.555c-1.068,0.334-2.18,0.594-3.303,0.819c-1.322,1.919-3.102,3.93-5.48,5.573
		C157.979,100.977,159.091,102.032,160.124,102.945z M123.735,129.324c-8.145,3.426-17.318,5.363-27.033,5.363
		c-10.671,0-20.694-2.334-29.411-6.418c-7.051-1.994-14.014-0.49-18.305,0.947c-2.08,2.3-3.795,4.943-4.283,7.725
		c0,0,11.184-5.924,22.588-2.699c8.717,4.084,18.74,6.418,29.411,6.418c9.715,0,18.889-1.938,27.033-5.364
		c12.836-6.968,26.611,1.646,26.611,1.646c-0.523-2.982-2.457-5.807-4.74-8.217C140.472,126.771,131.915,124.883,123.735,129.324z"
		/>
	<g>
		<path fill="#FFC552" d="M153.899,69.174l0.363-0.053c-9.496-18.254-31.189-31.016-56.445-31.016
			c-25.263,0-46.962,12.77-56.453,31.03l0.036,0.038c0,0,49.499,0.75,49.749,71.75c0,0-0.014,0.058-0.037,0.158
			c2.205,0.201,4.436,0.328,6.705,0.328c2.156,0,4.279-0.11,6.377-0.292c-0.025-0.122-0.045-0.194-0.045-0.194
			C104.399,69.924,153.899,69.174,153.899,69.174z"/>
		<path fill="#D16222" d="M90.931,143.073c-0.576-0.054-1.094-0.346-1.436-0.814l0,0c-0.328-0.451-0.453-1.011-0.348-1.557l0,0
			c-0.192-32.715-10.854-49.767-21.917-58.934l0,0C56.127,72.589,44.31,71.346,41.831,71.194l0,0
			c-0.33-0.019-0.461-0.021-0.461-0.021l0,0c-0.535-0.008-1.053-0.236-1.422-0.624l0,0l-0.035-0.037
			c-0.587-0.618-0.717-1.544-0.324-2.299l0,0c9.912-19.027,32.3-32.1,58.229-32.108l0,0c25.922,0.008,48.303,13.073,58.219,32.094
			l0,0c0.299,0.574,0.301,1.256,0.006,1.834l0,0c-0.295,0.576-0.852,0.975-1.492,1.065l0,0l-0.363,0.054l-0.256,0.021
			c-0.002,0.002-0.133,0.002-0.463,0.021l0,0c-0.328,0.022-0.824,0.062-1.463,0.137l0,0c-1.277,0.149-3.127,0.441-5.352,1.007l0,0
			c-4.455,1.13-10.404,3.352-16.355,7.7l0,0c-11.836,8.686-23.934,25.766-24.148,60.664l0,0c0.119,0.556-0.008,1.144-0.348,1.603
			l0,0c-0.338,0.46-0.867,0.755-1.436,0.804l0,0c-2.145,0.188-4.326,0.301-6.549,0.301l0,0
			C95.472,143.409,93.179,143.279,90.931,143.073L90.931,143.073z M102.163,139.265c0.467-34.869,13.023-53.184,25.773-62.457l0,0
			c9.322-6.795,18.562-8.794,23.08-9.384l0,0c-9.744-16.098-29.857-27.326-53.199-27.318l0,0
			c-23.363-0.008-43.492,11.241-53.225,27.359l0,0c4.619,0.64,13.656,2.699,22.769,9.343l0,0
			c12.747,9.271,25.3,27.577,25.772,62.431l0,0c1.553,0.108,3.111,0.172,4.684,0.17l0,0
			C99.276,139.41,100.724,139.357,102.163,139.265L102.163,139.265z"/>
	</g>
	<g>
		<ellipse fill="#282829" cx="97.818" cy="145.423" rx="10.451" ry="9.375"/>
		<path d="M85.867,145.422c0.024-6.138,5.472-10.863,11.95-10.876l0,0c6.479,0.013,11.926,4.738,11.951,10.876l0,0
			c-0.025,6.138-5.473,10.863-11.951,10.876l0,0C91.339,156.285,85.892,151.56,85.867,145.422L85.867,145.422z M88.866,145.422
			c0.01,4.218,3.885,7.865,8.951,7.874l0,0c5.062-0.009,8.941-3.656,8.951-7.874l0,0c-0.01-4.219-3.889-7.865-8.951-7.875l0,0
			C92.751,137.557,88.876,141.203,88.866,145.422L88.866,145.422z"/>
	</g>
	<ellipse fill="#9D9EA0" cx="97.947" cy="141.674" rx="5.11" ry="3.75"/>
</g>
</svg>
