<?xml version="1.0" encoding="utf-8"?>
<!-- Generator: Adobe Illustrator 16.0.4, SVG Export Plug-In . SVG Version: 6.00 Build 0)  -->
<!DOCTYPE svg PUBLIC "-//W3C//DTD SVG 1.1//EN" "http://www.w3.org/Graphics/SVG/1.1/DTD/svg11.dtd">
<svg version="1.1" id="Layer_1" xmlns="http://www.w3.org/2000/svg" xmlns:xlink="http://www.w3.org/1999/xlink" x="0px" y="0px"
	 width="197.299px" height="175.975px" viewBox="0 0 197.299 175.975" enable-background="new 0 0 197.299 175.975"
	 xml:space="preserve">
<g>
	<g>
		<ellipse fill="#E6B781" cx="98.65" cy="74.449" rx="64.57" ry="60.45"/>
		<path fill="#9C6919" d="M51.625,118.653C39.57,107.374,32.078,91.729,32.08,74.449l0,0c-0.002-17.28,7.49-32.928,19.546-44.207
			l0,0C63.678,18.958,80.309,11.998,98.65,11.996l0,0c18.337,0.002,34.97,6.962,47.023,18.246l0,0
			c12.057,11.279,19.549,26.927,19.547,44.207l0,0c0.002,17.279-7.49,32.925-19.547,44.204l0,0
			c-12.053,11.284-28.686,18.244-47.023,18.246l0,0C80.309,136.897,63.678,129.938,51.625,118.653L51.625,118.653z M54.359,33.163
			c-11.315,10.599-18.278,25.176-18.28,41.286l0,0c0.002,16.105,6.965,30.685,18.28,41.284l0,0
			c11.315,10.593,26.97,17.165,44.291,17.165l0,0c17.32,0,32.974-6.572,44.291-17.165l0,0c11.314-10.6,18.277-25.179,18.279-41.284
			l0,0c-0.002-16.11-6.965-30.688-18.279-41.286l0,0C131.624,22.567,115.97,15.998,98.65,15.998l0,0
			C81.329,15.998,65.674,22.567,54.359,33.163L54.359,33.163z"/>
	</g>
	<g>
		<g>
			<ellipse cx="82.713" cy="52.25" rx="9.599" ry="14.672"/>
			<path fill="#FFFFFF" d="M74.252,63.718c-1.987-3.046-3.133-7.063-3.14-11.468l0,0c0.007-4.407,1.152-8.425,3.14-11.471l0,0
				c1.963-3.021,4.932-5.193,8.459-5.201l0,0c3.527,0.008,6.498,2.18,8.462,5.201l0,0c1.987,3.046,3.133,7.063,3.137,11.471l0,0
				c-0.004,4.404-1.149,8.422-3.137,11.468l0,0c-1.964,3.021-4.935,5.195-8.462,5.203l0,0
				C79.184,68.913,76.215,66.739,74.252,63.718L74.252,63.718z M87.827,61.527c1.488-2.263,2.489-5.582,2.484-9.277l0,0
				c0.005-3.698-0.996-7.019-2.484-9.28l0,0c-1.512-2.287-3.34-3.399-5.115-3.391l0,0c-1.773-0.009-3.604,1.104-5.113,3.391l0,0
				c-1.488,2.262-2.49,5.582-2.484,9.28l0,0c-0.006,3.695,0.996,7.015,2.484,9.277l0,0c1.51,2.289,3.342,3.401,5.113,3.394l0,0
				C84.487,64.929,86.315,63.816,87.827,61.527L87.827,61.527z"/>
		</g>
		<path fill="#FFFFFF" d="M83.353,48.663c0,2.162-1.146,3.913-2.56,3.913c-1.415,0-2.56-1.751-2.56-3.913
			c0-2.158,1.145-3.913,2.56-3.913C82.207,44.75,83.353,46.505,83.353,48.663z"/>
	</g>
	<g>
		<path fill="#E6B781" d="M82.91,120.521c0,0,16.123,17.274,32.82,0"/>
		<path fill="#9C6919" d="M99.798,130.195c-10.79-0.082-18.151-8.161-18.348-8.312l0,0l2.921-2.729
			c0.002-0.002,0.071,0.076,0.263,0.263l0,0c0.19,0.187,0.482,0.462,0.863,0.794l0,0c0.763,0.668,1.887,1.567,3.287,2.461l0,0
			c2.806,1.794,6.689,3.53,11.014,3.522l0,0c4.322-0.018,9.209-1.633,14.496-7.065l0,0l2.871,2.778
			c-5.824,6.055-11.914,8.287-17.299,8.287l0,0C99.845,130.195,99.821,130.195,99.798,130.195L99.798,130.195z M81.448,121.883
			c0,0.001,0.001,0.001,0.002,0.001l0,0l-0.002,0.002V121.883L81.448,121.883z"/>
	</g>
	<g>
		<g>
			<ellipse cx="121.105" cy="52.25" rx="9.599" ry="14.672"/>
			<path fill="#FFFFFF" d="M112.642,63.719c-1.984-3.048-3.131-7.065-3.137-11.471l0,0c0.006-4.404,1.152-8.422,3.139-11.468l0,0
				c1.963-3.021,4.932-5.195,8.461-5.201l0,0c3.527,0.006,6.498,2.18,8.461,5.201l0,0c1.986,3.046,3.133,7.063,3.137,11.468l0,0
				c-0.004,4.405-1.15,8.423-3.137,11.471l0,0c-1.963,3.021-4.934,5.195-8.461,5.203l0,0
				C117.575,68.914,114.606,66.74,112.642,63.719L112.642,63.719z M126.218,61.528c1.49-2.265,2.492-5.582,2.486-9.28l0,0
				c0.006-3.697-0.996-7.015-2.486-9.277l0,0c-1.51-2.289-3.34-3.399-5.113-3.394l0,0c-1.775-0.006-3.604,1.104-5.113,3.394l0,0
				c-1.488,2.263-2.492,5.58-2.486,9.277l0,0c-0.006,3.698,0.998,7.016,2.486,9.28l0,0c1.51,2.289,3.338,3.399,5.113,3.394l0,0
				C122.878,64.928,124.708,63.817,126.218,61.528L126.218,61.528z"/>
		</g>
		<path fill="#FFFFFF" d="M121.745,48.663c0,2.162-1.145,3.913-2.561,3.913c-1.412,0-2.559-1.751-2.559-3.913
			c0-2.158,1.146-3.913,2.559-3.913C120.601,44.75,121.745,46.505,121.745,48.663z"/>
	</g>
	<g>
		<path fill="#FFFFFF" d="M118.429,73.881c-7.084,0-13.559,2.321-18.533,6.151c-4.974-3.83-11.448-6.151-18.533-6.151
			c-15.682,0-28.395,11.343-28.395,25.335s12.713,25.335,28.395,25.335c7.085,0,13.559-2.32,18.533-6.151
			c4.975,3.831,11.449,6.151,18.533,6.151c15.682,0,28.395-11.343,28.395-25.335S134.11,73.881,118.429,73.881z"/>
		<path fill="#D9D9DE" d="M51.467,99.216c0.029-14.959,13.51-26.809,29.896-26.836l0,0c6.988,0,13.427,2.158,18.533,5.785l0,0
			c5.105-3.627,11.545-5.785,18.533-5.785l0,0v1.501v1.499c-6.758,0-12.91,2.214-17.617,5.84l0,0l-0.918,0.704L98.98,81.22
			c-4.708-3.626-10.86-5.84-17.617-5.84l0,0c-7.478,0-14.224,2.707-19.079,7.04l0,0c-4.858,4.339-7.813,10.262-7.815,16.796l0,0
			c0.002,6.532,2.957,12.454,7.815,16.794l0,0c4.855,4.332,11.602,7.04,19.079,7.04l0,0c6.757,0,12.909-2.214,17.617-5.84l0,0
			l0.914-0.705l0.918,0.705c4.707,3.626,10.859,5.84,17.617,5.84l0,0c7.479,0,14.223-2.708,19.08-7.04l0,0
			c4.855-4.34,7.812-10.262,7.814-16.794l0,0c-0.002-6.534-2.959-12.457-7.814-16.796l0,0c-4.857-4.333-11.602-7.04-19.08-7.04l0,0
			v-1.499V72.38c16.385,0.027,29.865,11.877,29.895,26.836l0,0c-0.029,14.958-13.51,26.808-29.895,26.833l0,0
			c-6.988,0-13.428-2.156-18.533-5.785l0,0c-5.106,3.629-11.544,5.785-18.533,5.787l0,0
			C64.977,126.023,51.497,114.174,51.467,99.216L51.467,99.216z"/>
	</g>
	<g>
		<ellipse fill="#282829" cx="100.612" cy="84.82" rx="12.035" ry="10.796"/>
		<path d="M87.077,84.82c0.025-6.924,6.179-12.286,13.536-12.299l0,0c7.354,0.013,13.51,5.375,13.535,12.299l0,0
			c-0.025,6.921-6.182,12.283-13.535,12.296l0,0C93.255,97.104,87.102,91.741,87.077,84.82L87.077,84.82z M90.077,84.82
			c0.01,5.001,4.594,9.285,10.536,9.294l0,0c5.938-0.009,10.523-4.293,10.535-9.294l0,0c-0.012-5.004-4.598-9.288-10.535-9.299l0,0
			C94.67,75.532,90.086,79.816,90.077,84.82L90.077,84.82z"/>
	</g>
	<path fill="#9D9EA0" d="M106.646,80.503c0,2.384-2.637,4.318-5.887,4.318c-3.247,0-5.882-1.935-5.882-4.318
		c0-2.387,2.636-4.32,5.882-4.32C104.009,76.183,106.646,78.116,106.646,80.503z"/>
	<path fill="#8C8C8C" d="M42.885,131.135c-1.092-0.163-1.846-1.182-1.684-2.272l0,0c2.531-17.147,9.218-27.025,16.565-32.45l0,0
		c7.341-5.428,15.11-6.368,19.663-6.368l0,0c2.47,0,4.018,0.277,4.111,0.294l0,0v0.002c1.086,0.197,1.807,1.239,1.607,2.326l0,0
		c-0.199,1.086-1.238,1.804-2.325,1.607l0,0c0,0.004-0.259-0.049-0.85-0.108l0,0c-0.589-0.06-1.459-0.121-2.544-0.121l0,0
		c-4.025,0-10.889,0.844-17.283,5.584l0,0c-6.385,4.746-12.536,13.424-14.988,29.823l0,0c-0.148,0.993-1.003,1.706-1.976,1.706l0,0
		C43.084,131.157,42.986,131.15,42.885,131.135L42.885,131.135z"/>
	<path fill="#8C8C8C" d="M50.643,153.613c-1.105-0.013-1.99-0.918-1.978-2.022l0,0c0.233-22.058,6.415-34.402,13.808-41.121l0,0
		c7.386-6.715,15.65-7.606,19.533-7.604l0,0c1.406,0,2.26,0.116,2.336,0.127l0,0l0.002,0.002c1.092,0.155,1.852,1.168,1.697,2.26
		l0,0c-0.156,1.094-1.168,1.854-2.262,1.699l0,0c0,0.002-0.109-0.018-0.414-0.041l0,0c-0.307-0.022-0.77-0.049-1.359-0.049l0,0
		c-3.315,0.003-10.479,0.765-16.84,6.564l0,0c-6.359,5.796-12.248,16.823-12.5,38.208l0,0c-0.013,1.098-0.909,1.978-2.004,1.978l0,0
		C50.656,153.613,50.649,153.613,50.643,153.613L50.643,153.613z"/>
	<path fill="#8C8C8C" d="M60.758,162.03c-0.029-1.116-0.045-2.203-0.045-3.264l0,0c-0.011-21.207,5.594-32.538,11.545-38.498l0,0
		c5.951-5.96,11.984-6.342,12.279-6.353l0,0c1.102-0.056,2.041,0.795,2.097,1.898l0,0c0.056,1.102-0.796,2.041-1.899,2.097l0,0
		c0,0.002-0.004-0.002-0.118,0.011l0,0c-0.117,0.015-0.307,0.04-0.558,0.087l0,0c-0.5,0.091-1.248,0.27-2.158,0.605l0,0
		c-1.824,0.672-4.295,1.959-6.811,4.479l0,0c-5.006,5.026-10.365,15.121-10.375,35.674l0,0c0,1.026,0.013,2.077,0.043,3.159l0,0
		c0.027,1.104-0.845,2.021-1.948,2.052l0,0c-0.019,0-0.036,0.001-0.055,0.001l0,0C61.674,163.979,60.786,163.115,60.758,162.03
		L60.758,162.03z"/>
	<path fill="#8C8C8C" d="M151.753,129.451c-2.455-16.399-8.605-25.077-14.99-29.823l0,0c-6.395-4.74-13.258-5.584-17.281-5.584l0,0
		c-1.084,0-1.955,0.062-2.545,0.121l0,0c-0.588,0.06-0.848,0.108-0.848,0.108l0,0c-1.088,0.199-2.129-0.521-2.326-1.607l0,0
		c-0.199-1.087,0.521-2.129,1.607-2.328l0,0c0.094-0.017,1.641-0.294,4.111-0.294l0,0c4.551,0,12.32,0.94,19.658,6.368l0,0
		c7.35,5.425,14.039,15.303,16.572,32.45l0,0c0.16,1.093-0.594,2.109-1.686,2.272l0,0c-0.1,0.016-0.199,0.022-0.297,0.022l0,0
		C152.755,131.157,151.901,130.442,151.753,129.451L151.753,129.451z"/>
	<path fill="#8C8C8C" d="M144.247,151.636c-0.256-21.385-6.145-32.412-12.502-38.208l0,0c-6.363-5.8-13.525-6.562-16.84-6.564l0,0
		c-0.59,0-1.055,0.026-1.359,0.049l0,0c-0.305,0.023-0.414,0.041-0.414,0.041l0,0h0.002c-1.096,0.155-2.109-0.604-2.264-1.697l0,0
		c-0.158-1.096,0.604-2.108,1.699-2.264l0,0c0.078-0.011,0.93-0.127,2.336-0.129l0,0c3.881,0,12.145,0.892,19.531,7.606l0,0
		c7.391,6.719,13.576,19.063,13.811,41.121l0,0c0.012,1.104-0.873,2.01-1.979,2.022l0,0c-0.006,0-0.014,0-0.02,0l0,0
		C145.153,153.613,144.259,152.733,144.247,151.636L144.247,151.636z"/>
	<path fill="#8C8C8C" d="M134.106,163.978c-1.105-0.027-1.979-0.944-1.949-2.048l0,0c0.025-1.084,0.039-2.137,0.039-3.161l0,0
		c-0.006-19.266-4.727-29.353-9.434-34.671l0,0c-4.707-5.313-9.576-6.065-10.467-6.176l0,0c-0.096-0.011-0.115-0.012-0.121-0.011
		l0,0c-1.102-0.057-1.953-0.996-1.896-2.097l0,0c0.055-1.104,0.992-1.954,2.096-1.898l0,0c0.295,0.01,6.328,0.393,12.277,6.353l0,0
		c5.953,5.962,11.555,17.293,11.545,38.5l0,0c0,1.062-0.016,2.145-0.041,3.259l0,0c-0.027,1.087-0.916,1.951-1.998,1.951l0,0
		C134.14,163.979,134.124,163.978,134.106,163.978L134.106,163.978z M112.175,117.911L112.175,117.911L112.175,117.911h0.002l0,0
		H112.175L112.175,117.911z"/>
	<path opacity="0.62" fill="#FFDEB8" d="M98.063,25.152c31.981,0,58.208,23.459,60.866,53.335c0.146-1.649,0.238-3.314,0.238-5.001
		c0-32.22-27.357-58.337-61.104-58.337c-33.747,0-61.104,26.117-61.104,58.337c0,1.687,0.092,3.352,0.238,5.001
		C39.856,48.611,66.082,25.152,98.063,25.152z"/>
</g>
</svg>
