<?xml version="1.0" encoding="utf-8"?>
<!-- Generator: Adobe Illustrator 16.2.1, SVG Export Plug-In . SVG Version: 6.00 Build 0)  -->
<!DOCTYPE svg PUBLIC "-//W3C//DTD SVG 1.1//EN" "http://www.w3.org/Graphics/SVG/1.1/DTD/svg11.dtd">
<svg version="1.1" id="Layer_1" xmlns="http://www.w3.org/2000/svg" xmlns:xlink="http://www.w3.org/1999/xlink" x="0px" y="0px"
	 width="708px" height="363px" viewBox="0 0 708 363" enable-background="new 0 0 708 363" xml:space="preserve">
<g id="bg">
	<rect x="-2.603" y="-2.75" fill="#D9FCFF" width="713" height="369"/>
	<g id="clouds">
		<path id="cloud_1_" opacity="0.6" fill="#FFFFFF" d="M685.939,75.078c0,0-2.334-15.333-20.667-15.333s-19,8-19,8
			s-8.001-5.999-19.667-3.333s-8.333,13.333-8.333,13.333s-5,0-11,0s-7.333,8.667,0,8.667s8.333,0,11,0s2,3.333,0,3.333
			s-3.667,0-7,0s-4.667,5.667,0,5.667s12.667,0,18.667,0s3.666,4.666,0.333,4.666s-2.334,0-6.667,0s-4.999,7,0.334,7s24.667,0,33,0
			s6.667-7.333,1-7.333s-3,0-5.667,0s-2.667-3.667,1.333-3.667s13.334,0,19.334,0s5.666-6,5.666-6s6.667,0,13.667,0
			s6.667-12.666,0-12.666C687.273,77.412,685.939,75.078,685.939,75.078z"/>
		<path id="cloud_3_" opacity="0.6" fill="#FFFFFF" d="M137.477,42.757c0,0-2.334-15.333-20.667-15.333s-19,8-19,8
			s-8.001-5.999-19.667-3.333S69.81,45.424,69.81,45.424s-5,0-11,0s-7.333,8.667,0,8.667s8.333,0,11,0s2,3.333,0,3.333s-3.667,0-7,0
			s-4.667,5.667,0,5.667s12.667,0,18.667,0s3.666,4.666,0.333,4.666s-2.334,0-6.667,0s-4.999,7,0.334,7s24.667,0,33,0
			s6.667-7.333,1-7.333s-3,0-5.667,0s-2.667-3.667,1.333-3.667s13.334,0,19.334,0s5.666-6,5.666-6s6.667,0,13.667,0
			s6.667-12.666,0-12.666C138.811,45.091,137.477,42.757,137.477,42.757z"/>
		<path id="cloud" opacity="0.8" fill="#FFFFFF" d="M220.358,77.465c0,0,4-10,16-10s14.5,10.5,14.5,10.5s5.5-4,10.5-2s5,8.5,5,8.5
			s4.5,0,11.5,0s7,10.5,0,10.5s-9.5,0-9.5,0s-1.5,8.5-8.5,8.5s-14.5,0-14.5,0s-0.5,8.25-8.25,8.25s-19.25,0-25.75,0s-7-9.75,1-9.75
			s5.5,0,8,0s3-3.5-1-3.5s-13,0-20.5,0s-7.5-9.5,0-9.5s10-0.5,10-0.5S207.858,77.465,220.358,77.465z"/>
		<path id="cloud_2_" opacity="0.8" fill="#FFFFFF" d="M555.961,16.841c0,0,4-10,16-10s14.5,10.5,14.5,10.5s5.5-4,10.5-2
			s5,8.5,5,8.5s4.5,0,11.5,0s7,10.5,0,10.5s-9.5,0-9.5,0s-1.5,8.5-8.5,8.5s-14.5,0-14.5,0s-0.5,8.25-8.25,8.25s-19.25,0-25.75,0
			s-7-9.75,1-9.75s5.5,0,8,0s3-3.5-1-3.5s-13,0-20.5,0s-7.5-9.5,0-9.5s10-0.5,10-0.5S543.461,16.841,555.961,16.841z"/>
	</g>
</g>
</svg>
