<?xml version="1.0" encoding="utf-8"?>
<!-- Generator: Adobe Illustrator 16.2.1, SVG Export Plug-In . SVG Version: 6.00 Build 0)  -->
<!DOCTYPE svg PUBLIC "-//W3C//DTD SVG 1.1//EN" "http://www.w3.org/Graphics/SVG/1.1/DTD/svg11.dtd">
<svg version="1.1" id="Layer_1" xmlns="http://www.w3.org/2000/svg" xmlns:xlink="http://www.w3.org/1999/xlink" x="0px" y="0px"
	 width="708px" height="363px" viewBox="0 0 708 363" enable-background="new 0 0 708 363" xml:space="preserve">
<g id="_x33_rd">
	<g id="bg_mountain">
		<path fill="#498A6D" d="M335.378,170.037c5.82-21.157,54.646-69.301,68.68-84.012c24.83-26.031,50.049-58.652,67.508-60.172
			c17.46-1.522,52.981,64.78,57.336,77.025c4.355,12.246,42.769,84.324,42.769,84.324s-59.363,19.112-148.99,17.166
			C333.052,202.423,335.378,170.037,335.378,170.037z"/>
		<path fill="#6DC274" d="M427.337,170.037c-17.073-1.758-26.386,17.166-26.386,17.166s-6.208-12.713-20.952-12.713
			c-7.368,0-16.675,5.621-24.145,11.245c-9.754-5.011-5.844-21.084-6.513-27.184c-1.76-16.091-18.202-5.042-28.315,5.428
			c-10.11,10.472-32.808,23.56-43.456,31.463c-20.952,15.548-4.474,37.416,16.792,27.158c8.04-3.879,6.489,18.624,26.664,24.832
			c20.174,6.208,31.477-0.486,31.477-0.486s13.889,2.473,28.853,2.667c20.953,0.269,33.186-15.763,33.186-15.763l15.375-22.868
			c0.209,0,0.408-0.002,0.524-0.023c4.654-0.775,10.865-13.967,10.865-13.967S444.409,171.794,427.337,170.037z"/>
		<path id="snow" fill="#FFFFFF" d="M406.36,83.593c0,0,44.032-67.74,65.205-67.74c21.172,0,50.112,71.727,50.112,71.727
			s-3.659,6.853-14.245,7.515S491.554,80.538,480.306,81.2s-22.443,9.924-35.041,9.924c-12.597,0-11.31-10.724-22.521-11.909
			C411.532,78.03,406.36,83.593,406.36,83.593z"/>
	</g>
	<g id="bg_trees">
		<g>
			<path fill="#A88862" d="M333.397,160.25v3.162c0,0,0.19,0.81,1,0.81s1-0.81,1-0.81v-3.162H333.397z"/>
			<path fill="#3E7543" d="M334.1,161.791c-1.62,0-1.62-0.81-1.62-0.81s-1.621,0.81-2.43,0c-0.81-0.81,0-2.555,0-2.555
				c0.81-2.431,0.81-4.177,0.81-4.177h6.48c0,0,0,1.746,0.81,4.177c0,0,0.81,1.682,0,2.491c-0.81,0.811-2.43,0.033-2.43,0.033
				S335.72,161.791,334.1,161.791z"/>
			<path fill="#5EA05B" d="M331.67,149.25c0,0-0.811,3.031-1.62,4.651c-0.362,0.724,0,1.515,0.81,1.515
				c1.621,0,1.621-0.862,1.621-0.862s0,1.593,1.62,1.593c1.62,0,1.62-1.632,1.62-1.632s0,0.803,1.62,0.803
				c0.81,0,1.172-0.689,0.81-1.414c-0.81-1.62-1.62-4.654-1.62-4.654H331.67z"/>
			<path fill="#7EC172" d="M334.1,141.137c-0.81,0-2.43,4.86-3.241,6.48c-0.81,1.62,0,2.43,0.811,2.43c0.81,0,0.81-0.81,0.81-0.81
				s0,1.62,1.62,1.62c1.62,0,1.62-1.62,1.62-1.62s0,0.81,0.81,0.81s1.62-0.81,0.81-2.43S334.91,141.136,334.1,141.137z"/>
		</g>
		<g>
			<path fill="#A88862" d="M321.397,170.25v3.19c0,0,0.19,0.81,1,0.81s1-0.81,1-0.81v-3.19H321.397z"/>
			<path fill="#3E7543" d="M321.564,171.82c-1.62,0-1.62-0.81-1.62-0.81s-1.62,0.81-2.43,0c-0.81-0.81,0-2.569,0-2.569
				c0.81-2.431,0.81-4.19,0.81-4.19h6.48c0,0,0,1.76,0.81,4.19c0,0,0.81,1.689,0,2.499c-0.81,0.811-2.43,0.036-2.43,0.036
				S323.184,171.82,321.564,171.82z"/>
			<path fill="#5EA05B" d="M319.134,159.25c0,0-0.81,3.046-1.62,4.666c-0.362,0.724,0,1.521,0.81,1.521
				c1.62,0,1.62-0.858,1.62-0.858s0,1.595,1.62,1.595c1.62,0,1.62-1.632,1.62-1.632s0,0.803,1.62,0.803
				c0.81,0,1.172-0.703,0.81-1.428c-0.81-1.62-1.62-4.668-1.62-4.668H319.134z"/>
			<path fill="#7EC172" d="M321.564,151.165c-0.81,0-2.43,4.86-3.24,6.48c-0.81,1.62,0,2.43,0.81,2.43s0.81-0.81,0.81-0.81
				s0,1.62,1.62,1.62c1.62,0,1.62-1.62,1.62-1.62s0,0.81,0.811,0.81c0.81,0,1.62-0.81,0.81-2.43
				C323.995,156.025,322.375,151.165,321.564,151.165z"/>
		</g>
		<g>
			<path fill="#A88862" d="M340.397,163.25v2.601c0,0,0.173,0.828,1,0.828s1-0.828,1-0.828v-2.601H340.397z"/>
			<path fill="#3E7543" d="M341.345,164.195c-1.655,0-1.655-0.828-1.655-0.828s-1.656,0.828-2.484,0c-0.828-0.828,0-2.73,0-2.73
				c0.828-2.484,0.828-4.387,0.828-4.387h6.623c0,0,0,1.903,0.828,4.387c0,0,0.828,1.779,0,2.606
				c-0.828,0.828-2.484,0.062-2.484,0.062S343,164.195,341.345,164.195z"/>
			<path fill="#5EA05B" d="M338.861,151.25c0,0-0.828,3.162-1.656,4.817c-0.371,0.74,0,1.581,0.828,1.581
				c1.656,0,1.656-0.866,1.656-0.866s0,1.636,1.655,1.636s1.655-1.664,1.655-1.664s0,0.823,1.656,0.823
				c0.828,0,1.199-0.767,0.828-1.507c-0.828-1.656-1.655-4.82-1.655-4.82H338.861z"/>
			<path fill="#7EC172" d="M341.345,143.084c-0.828,0-2.483,4.967-3.312,6.623c-0.828,1.655,0,2.483,0.828,2.483
				s0.828-0.828,0.828-0.828s0,1.656,1.655,1.656s1.655-1.656,1.655-1.656s0,0.828,0.829,0.828c0.827,0,1.655-0.828,0.827-2.483
				C343.829,148.051,342.173,143.084,341.345,143.084z"/>
		</g>
	</g>
</g>
</svg>
