<?xml version="1.0" encoding="utf-8"?>
<!-- Generator: Adobe Illustrator 16.0.4, SVG Export Plug-In . SVG Version: 6.00 Build 0)  -->
<!DOCTYPE svg PUBLIC "-//W3C//DTD SVG 1.1//EN" "http://www.w3.org/Graphics/SVG/1.1/DTD/svg11.dtd">
<svg version="1.1" id="Layer_1" xmlns="http://www.w3.org/2000/svg" xmlns:xlink="http://www.w3.org/1999/xlink" x="0px" y="0px"
	 width="197.299px" height="175.975px" viewBox="0 0 197.299 175.975" enable-background="new 0 0 197.299 175.975"
	 xml:space="preserve">
<g>
	<path fill="#D3D3F2" stroke="#6B6C96" stroke-width="4" d="M129.033,41.034c0,0,18.943-13.531,22.646-16.205
		c2.584-1.863,18.922,2.764,8.252,18.625c0,0-10.562,8.279-21.982,4.568"/>
	<path fill="#D3D3F2" stroke="#6B6C96" stroke-width="4" d="M68.266,41.034c0,0-18.945-13.531-22.648-16.205
		c-2.583-1.863-18.921,2.764-8.251,18.625c0,0,10.562,8.279,21.981,4.568"/>
	<path fill="#D3D3F2" stroke="#6B6C96" stroke-width="4" d="M149.248,91.022c0,31.531-5.68,57.092-50.599,57.092
		c-44.92,0-50.598-25.561-50.598-57.092s4.34-57.094,50.598-57.094C144.906,33.929,149.248,59.491,149.248,91.022z"/>
	<circle stroke="#FFFFFF" stroke-width="4" cx="80.017" cy="69.696" r="10.687"/>
	<path fill="#FFFFFF" d="M80.729,67.083c0,1.574-1.277,2.852-2.852,2.852c-1.571,0-2.849-1.277-2.849-2.852
		c0-1.572,1.277-2.85,2.849-2.85C79.452,64.233,80.729,65.511,80.729,67.083z"/>
	<circle stroke="#FFFFFF" stroke-width="4" cx="115.733" cy="69.696" r="10.687"/>
	<path fill="#FFFFFF" d="M116.445,67.083c0,1.574-1.277,2.852-2.852,2.852c-1.57,0-2.85-1.277-2.85-2.852
		c0-1.572,1.279-2.85,2.85-2.85C115.168,64.233,116.445,65.511,116.445,67.083z"/>
	<path fill="#FFF7EB" stroke="#969696" stroke-width="4" d="M71.325,145.581c0,3.289-2.666,5.953-5.954,5.953l0,0
		c-3.287,0-5.953-2.664-5.953-5.953v-10.045c0-3.287,2.666-5.953,5.953-5.953l0,0c3.288,0,5.954,2.666,5.954,5.953V145.581z"/>
	<path opacity="0.51" fill="#F0F0F2" d="M51.328,98.821c0-31.767,4.193-57.52,48.887-57.52c27.305,0,39.492,9.611,44.846,24.332
		c-4.318-17.711-15.955-29.705-46.455-29.705c-44.694,0-48.888,25.753-48.888,57.52c0,12.016,0.787,23.17,4.111,32.396
		C51.849,117.787,51.328,108.59,51.328,98.821z"/>
	<path fill="#FFF7EB" stroke="#969696" stroke-width="4" d="M140.152,144.837c0,3.287-2.664,5.953-5.951,5.953l0,0
		c-3.289,0-5.953-2.666-5.953-5.953v-10.045c0-3.289,2.664-5.953,5.953-5.953l0,0c3.287,0,5.951,2.664,5.951,5.953V144.837z"/>
	<path fill="#D3D3F2" stroke="#6B6C96" stroke-width="4" d="M159.666,115.073c0,12.328-9.996,22.322-22.322,22.322H59.956
		c-12.328,0-22.322-9.994-22.322-22.322v-1.488c0-12.328,9.994-22.324,22.322-22.324h77.388c12.326,0,22.322,9.996,22.322,22.324
		V115.073z"/>
	<path fill="none" stroke="#6B6C96" stroke-width="2" stroke-linecap="round" stroke-linejoin="round" d="M82.046,113.351
		c-2.357-5.051-8.655-13.289-13.889-12.311c-8.516,1.592-7.306,11.273-6.078,18.469"/>
	
		<ellipse transform="matrix(0.95 -0.3123 0.3123 0.95 -32.3277 28.0654)" fill="#6B6C96" cx="71.448" cy="114.95" rx="5.034" ry="8.135"/>
	<path fill="none" stroke="#6B6C96" stroke-width="2" stroke-linecap="round" stroke-linejoin="round" d="M118.834,112.233
		c2.357-5.049,8.656-13.289,13.889-12.311c8.516,1.594,7.307,11.275,6.078,18.471"/>
	
		<ellipse transform="matrix(-0.95 -0.3122 0.3122 -0.95 216.8644 262.3825)" fill="#6B6C96" cx="129.433" cy="113.834" rx="5.034" ry="8.134"/>
	<path opacity="0.28" fill="#6B6C96" d="M136.678,131.396H59.289c-11.623,0-21.168-8.885-22.221-20.233
		c-0.064,0.688-0.102,1.384-0.102,2.089v1.488c0,12.328,9.994,22.322,22.322,22.322h77.389c12.326,0,22.322-9.994,22.322-22.322
		v-1.488c0-0.705-0.037-1.4-0.102-2.089C157.846,122.512,148.299,131.396,136.678,131.396z"/>
</g>
</svg>
