<?xml version="1.0" encoding="utf-8"?>
<!-- Generator: Adobe Illustrator 16.0.4, SVG Export Plug-In . SVG Version: 6.00 Build 0)  -->
<!DOCTYPE svg PUBLIC "-//W3C//DTD SVG 1.1//EN" "http://www.w3.org/Graphics/SVG/1.1/DTD/svg11.dtd">
<svg version="1.1" id="Layer_1" xmlns="http://www.w3.org/2000/svg" xmlns:xlink="http://www.w3.org/1999/xlink" x="0px" y="0px"
	 width="197.299px" height="175.975px" viewBox="0 0 197.299 175.975" enable-background="new 0 0 197.299 175.975"
	 xml:space="preserve">
<g>
	<g>
		<path fill="#FFCB4A" d="M74.348,51.398c0,0-33.28-32.488-56.261-3.962c-24.679,30.637,2.378,47.545,11.095,30.111
			c2.506-5.012,11.094-42.79,38.827-17.433"/>
		<path fill="#C27400" d="M19.211,86.565c-3.467,0.002-6.83-1.566-9.275-4.342l0,0c-2.453-2.776-3.987-6.751-3.985-11.535l0,0
			c0.007-6.761,3.003-15.1,10.579-24.506l0,0c7.307-9.128,16.01-12.507,24.229-12.473l0,0c18.696,0.118,34.812,16.179,34.986,16.257
			l0,0l-2.794,2.862c-0.002,0-0.217-0.213-0.67-0.622l0,0c-0.453-0.411-1.128-1.004-1.991-1.719l0,0
			c-1.729-1.428-4.223-3.339-7.234-5.245l0,0c-6.029-3.821-14.145-7.551-22.297-7.535l0,0c-7.162,0.034-14.4,2.702-21.113,10.983
			l0,0C12.458,57.61,9.946,65.14,9.952,70.689l0,0c0.057,7.882,4.792,11.863,9.26,11.875l0,0c2.933-0.022,6.006-1.633,8.182-5.911
			l0,0c0.537-1.025,1.827-5.271,3.826-9.832l0,0c2.04-4.609,4.863-9.781,9.082-13.366l0,0c2.802-2.382,6.328-4.029,10.449-4.021l0,0
			c5.428,0.01,11.549,2.75,18.607,9.204l0,0l-2.699,2.953c-6.656-6.089-11.909-8.167-15.908-8.157l0,0
			c-4.537,0.002-8.072,2.607-11.041,6.479l0,0c-2.934,3.847-5.057,8.8-6.508,12.667l0,0c-0.989,2.609-1.623,4.617-2.23,5.862l0,0
			c-2.643,5.348-7.178,8.123-11.701,8.123l0,0C19.25,86.566,19.231,86.566,19.211,86.565L19.211,86.565z"/>
	</g>
	<g>
		<path fill="#FFCB4A" d="M122.954,51.398c0,0,33.279-32.488,56.26-3.962c24.68,30.637-2.377,47.545-11.094,30.111
			c-2.506-5.012-11.094-42.79-38.828-17.433"/>
		<path fill="#C27400" d="M166.329,78.441c-0.877-1.804-1.971-5.609-3.91-10.01l0,0c-1.904-4.35-4.576-9.044-8.002-11.919l0,0
			c-2.293-1.924-4.814-3.068-7.869-3.076l0,0c-4-0.01-9.252,2.067-15.904,8.155l0,0l-2.701-2.95
			c7.057-6.454,13.178-9.194,18.605-9.205l0,0c6.227-0.002,10.918,3.676,14.227,8.056l0,0c3.346,4.405,5.553,9.672,7.068,13.678l0,0
			c0.99,2.643,1.73,4.842,2.064,5.484l0,0c2.176,4.279,5.248,5.889,8.18,5.912l0,0c4.469-0.014,9.205-3.994,9.262-11.875l0,0
			c0.006-5.549-2.506-13.081-9.691-21.999l0,0c-6.717-8.281-13.953-10.948-21.115-10.982l0,0
			c-14.283-0.085-28.375,11.582-31.521,14.498l0,0c-0.453,0.411-0.67,0.622-0.67,0.624l0,0l-2.795-2.863
			c0.176-0.077,16.291-16.138,34.986-16.258l0,0c8.219-0.032,16.92,3.346,24.229,12.473l0,0
			c7.576,9.409,10.572,17.747,10.578,24.508l0,0c0.004,4.783-1.531,8.759-3.984,11.535l0,0c-2.445,2.774-5.811,4.342-9.277,4.342
			l0,0c-0.018,0-0.035,0-0.053,0l0,0C173.509,86.566,168.97,83.791,166.329,78.441L166.329,78.441z"/>
	</g>
	<g>
		<ellipse fill="#FFCB4A" cx="98.177" cy="88.616" rx="61.571" ry="51.653"/>
		<path fill="#C27400" d="M53.354,126.672c-11.521-9.655-18.752-23.13-18.75-38.056l0,0c-0.002-14.927,7.229-28.401,18.75-38.057
			l0,0c11.526-9.667,27.365-15.593,44.823-15.597l0,0c17.457,0.004,33.294,5.93,44.822,15.597l0,0
			c11.521,9.656,18.752,23.13,18.75,38.057l0,0c0.002,14.926-7.229,28.401-18.75,38.056l0,0
			c-11.527,9.665-27.365,15.593-44.822,15.595l0,0C80.719,142.265,64.88,136.337,53.354,126.672L53.354,126.672z M55.925,53.623
			c-10.763,9.04-17.317,21.39-17.319,34.993l0,0c0.002,13.602,6.557,25.953,17.319,34.991l0,0
			c10.757,9.027,25.704,14.664,42.252,14.662l0,0c16.546,0.002,31.494-5.635,42.25-14.662l0,0
			c10.764-9.038,17.318-21.389,17.32-34.991l0,0c-0.002-13.604-6.557-25.954-17.32-34.993l0,0
			c-10.756-9.028-25.703-14.663-42.25-14.66l0,0c-0.003,0-0.006,0-0.009,0l0,0C81.624,38.962,66.68,44.597,55.925,53.623
			L55.925,53.623z"/>
	</g>
	<g>
		<path fill="#FFF0CC" d="M143.845,123.257c-0.07-19.697-20.074-35.647-44.747-35.647c-24.715,0-44.75,16.007-44.75,35.751
			c0,0.525,0.021,1.047,0.05,1.566c11.161,9.47,26.65,15.342,43.779,15.342C116.292,140.269,132.579,133.703,143.845,123.257z"/>
		<path fill="#C27400" d="M53.104,126.452l-0.656-0.559l-0.047-0.857c-0.029-0.539-0.053-1.098-0.055-1.677l0,0
			c-0.002-10.57,5.381-20.079,13.861-26.843l0,0c8.486-6.775,20.101-10.906,32.891-10.908l0,0
			c12.766,0.002,24.362,4.119,32.844,10.875l0,0c8.477,6.74,13.867,16.221,13.902,26.766l0,0l-2,0.008l2-0.008l0.004,0.876
			l-0.645,0.598c-11.666,10.813-28.428,17.542-47.027,17.544l0,0C80.59,142.265,64.65,136.245,53.104,126.452L53.104,126.452z
			 M98.177,138.269c17.279,0.002,32.808-6.146,43.65-15.881l0,0c-0.316-8.807-4.91-16.817-12.377-22.776l0,0
			c-7.705-6.146-18.447-10.005-30.352-10.001l0,0c-11.926-0.004-22.686,3.869-30.395,10.033l0,0
			c-7.717,6.176-12.354,14.543-12.355,23.716l0,0c0,0.197,0.003,0.397,0.01,0.599l0,0C67.081,132.778,81.846,138.271,98.177,138.269
			L98.177,138.269z"/>
	</g>
	<g>
		<g>
			<circle cx="82.348" cy="64.109" r="7.741"/>
			<path fill="#FFFFFF" d="M72.606,64.109c0.002-5.38,4.361-9.74,9.741-9.74l0,0c5.381,0,9.739,4.359,9.742,9.74l0,0
				c-0.003,5.378-4.361,9.74-9.742,9.742l0,0C76.967,73.849,72.608,69.487,72.606,64.109L72.606,64.109z M76.606,64.109
				c0.006,3.17,2.571,5.735,5.741,5.741l0,0c3.17-0.006,5.735-2.571,5.741-5.741l0,0c-0.006-3.17-2.571-5.735-5.741-5.741l0,0
				C79.177,58.374,76.612,60.939,76.606,64.109L76.606,64.109z"/>
		</g>
		<circle fill="#FFFFFF" cx="80.8" cy="62.217" r="2.064"/>
	</g>
	<g>
		<g>
			<circle cx="116.848" cy="64.109" r="7.741"/>
			<path fill="#FFFFFF" d="M107.106,64.11c0.002-5.382,4.359-9.741,9.74-9.741l0,0c5.381,0,9.74,4.359,9.74,9.741l0,0
				c0,5.378-4.359,9.739-9.74,9.739l0,0C111.466,73.849,107.108,69.488,107.106,64.11L107.106,64.11z M111.106,64.11
				c0.006,3.168,2.572,5.733,5.74,5.739l0,0c3.172-0.006,5.734-2.571,5.742-5.739l0,0c-0.008-3.172-2.57-5.735-5.742-5.741l0,0
				C113.679,58.375,111.112,60.938,111.106,64.11L111.106,64.11z"/>
		</g>
		<circle fill="#FFFFFF" cx="115.3" cy="62.217" r="2.064"/>
	</g>
	<ellipse fill="#C27400" cx="99.848" cy="98.61" rx="19.75" ry="12"/>
	<polygon fill="#C27400" points="99.348,128.608 99.348,107.61 102.349,107.61 102.349,128.608 99.348,128.608 	"/>
	<path fill="#C27400" d="M83.293,138.46c2.95-6.977,10.049-11.849,18.305-11.851l0,0c7.078,0,13.307,3.583,16.797,9l0,0
		l-2.521,1.626c-2.939-4.561-8.223-7.626-14.275-7.626l0,0c-7.061-0.002-13.074,4.173-15.542,10.019l0,0L83.293,138.46
		L83.293,138.46z"/>
	<path opacity="0.48" fill="#C27400" d="M98.844,133.342c-32.093,0-58.316-21.26-60.13-48.06c-0.066,0.981-0.108,1.968-0.108,2.963
		c0,28.18,26.97,51.023,60.238,51.023c33.268,0,60.237-22.843,60.237-51.023c0-0.996-0.041-1.982-0.107-2.963
		C157.161,112.082,130.937,133.342,98.844,133.342z"/>
</g>
</svg>
