<?xml version="1.0" encoding="utf-8"?>
<!-- Generator: Adobe Illustrator 16.0.4, SVG Export Plug-In . SVG Version: 6.00 Build 0)  -->
<!DOCTYPE svg PUBLIC "-//W3C//DTD SVG 1.1//EN" "http://www.w3.org/Graphics/SVG/1.1/DTD/svg11.dtd">
<svg version="1.1" id="Layer_1" xmlns="http://www.w3.org/2000/svg" xmlns:xlink="http://www.w3.org/1999/xlink" x="0px" y="0px"
	 width="197.299px" height="175.975px" viewBox="0 0 197.299 175.975" enable-background="new 0 0 197.299 175.975"
	 xml:space="preserve">
<g>
	<g>
		<path fill="#EBEBEB" d="M128.196,85.409c0,0,15.98,54.275,43.967,41.654c25.5-11.5-6-27,7.135-45.585
			c16.242-22.982,10.811-78.619-51.102-52.084C66.285,55.927,128.196,85.409,128.196,85.409z"/>
		<path fill="#B5B5B5" d="M147.271,123.625c-4.639-4.306-8.467-9.908-11.562-15.467l0,0c-5.182-9.325-8.287-18.556-9.17-21.34l0,0
			c-2.033-1.034-7.65-4.042-13.33-8.458l0,0c-7.016-5.508-14.441-13.178-14.533-22.652l0,0c-0.012-4.722,2.013-9.652,6.585-14.346
			l0,0c4.574-4.711,11.674-9.316,22.146-13.808l0,0c11.66-4.998,21.449-7.177,29.631-7.179l0,0
			c11.299-0.028,19.545,4.273,24.717,10.828l0,0c5.182,6.542,7.363,15.118,7.365,23.716l0,0c-0.01,10.122-3.004,20.349-8.191,27.712
			l0,0c-2.229,3.169-2.977,6.053-2.984,8.932l0,0c-0.014,3.885,1.479,7.834,3.111,11.771l0,0c1.604,3.941,3.387,7.832,3.414,11.964
			l0,0c0.016,2.518-0.77,5.127-2.65,7.417l0,0c-1.875,2.302-4.725,4.312-8.836,6.17l0,0c-3.146,1.416-6.225,2.079-9.172,2.079l0,0
			C157.446,130.963,151.896,127.917,147.271,123.625L147.271,123.625z M129.86,83.985l0.254,0.857
			c0.002,0.002,0.432,1.47,1.299,3.916l0,0c0.867,2.447,2.166,5.842,3.863,9.607l0,0c3.391,7.53,8.441,16.534,14.715,22.325l0,0
			c4.189,3.876,8.787,6.275,13.82,6.273l0,0c2.35,0,4.842-0.518,7.527-1.725l0,0c3.76-1.693,6.062-3.422,7.377-5.045l0,0
			c1.305-1.632,1.738-3.131,1.754-4.896l0,0c0.027-2.874-1.453-6.461-3.111-10.44l0,0c-1.633-3.982-3.406-8.399-3.416-13.295l0,0
			c-0.012-3.618,1.037-7.467,3.721-11.242l0,0c4.613-6.501,7.471-16.081,7.457-25.403l0,0c0.006-7.937-2.047-15.632-6.498-21.229
			l0,0c-4.467-5.584-11.262-9.289-21.584-9.316l0,0c-7.461-0.002-16.752,2.008-28.055,6.857l0,0
			c-10.166,4.352-16.828,8.755-20.852,12.916l0,0c-4.027,4.177-5.441,7.983-5.455,11.562l0,0c-0.059,6.234,4.727,12.503,10.5,17.458
			l0,0c5.729,4.953,12.205,8.549,14.758,9.872l0,0c0.729,0.379,1.119,0.564,1.121,0.564l0,0l-0.859,1.805l0.859-1.805L129.86,83.985
			L129.86,83.985z"/>
	</g>
	<g>
		<path fill="#EBEBEB" d="M69.109,85.409c0,0-15.98,54.275-43.969,41.654c-25.5-11.5,6-27-7.135-45.585
			C1.765,58.495,7.197,2.858,69.109,29.393C131.021,55.927,69.109,85.409,69.109,85.409z"/>
		<path fill="#B5B5B5" d="M24.318,128.885c-4.111-1.857-6.961-3.868-8.836-6.168l0,0c-1.883-2.291-2.668-4.9-2.654-7.418l0,0
			c0.029-4.131,1.812-8.02,3.414-11.964l0,0c1.631-3.936,3.123-7.885,3.111-11.77l0,0c-0.01-2.881-0.758-5.767-2.98-8.935l0,0
			c-5.188-7.363-8.182-17.589-8.195-27.712l0,0c0.004-8.598,2.184-17.173,7.367-23.716l0,0c5.17-6.553,13.416-10.857,24.715-10.829
			l0,0c8.178,0.004,17.971,2.184,29.637,7.182l0,0c10.471,4.492,17.568,9.094,22.145,13.809l0,0
			c4.572,4.693,6.594,9.624,6.582,14.344l0,0c-0.09,9.473-7.516,17.145-14.529,22.653l0,0c-5.689,4.421-11.314,7.432-13.338,8.462
			l0,0c-1.42,4.446-8.391,25.286-20.727,36.802l0,0c-4.623,4.291-10.176,7.338-16.539,7.338l0,0
			C30.541,130.965,27.462,130.303,24.318,128.885L24.318,128.885z M18.677,33.688c-4.453,5.597-6.502,13.295-6.5,21.23l0,0
			c-0.012,9.323,2.85,18.902,7.463,25.403l0,0c2.676,3.777,3.723,7.624,3.713,11.244l0,0c-0.01,4.893-1.781,9.309-3.412,13.293l0,0
			c-1.66,3.978-3.139,7.564-3.111,10.44l0,0c0.016,1.765,0.451,3.265,1.756,4.896l0,0c1.312,1.623,3.617,3.353,7.377,5.043l0,0
			c2.684,1.208,5.176,1.725,7.527,1.727l0,0c4.408-0.002,8.465-1.83,12.234-4.893l0,0c3.758-3.053,7.146-7.318,10.027-11.892l0,0
			c5.77-9.141,9.514-19.45,10.863-23.531l0,0c0.387-1.166,0.572-1.806,0.574-1.806l0,0l0.252-0.858l0.807-0.383
			c0,0,0.391-0.187,1.119-0.565l0,0c0.73-0.379,1.779-0.941,3.041-1.67l0,0c2.521-1.453,5.889-3.565,9.23-6.165l0,0
			c6.742-5.193,13.076-12.372,12.984-19.494l0,0c-0.012-3.578-1.428-7.385-5.455-11.562l0,0
			c-4.023-4.158-10.684-8.563-20.848-12.916l0,0c-11.309-4.848-20.6-6.858-28.061-6.856l0,0
			C29.935,24.402,23.144,28.104,18.677,33.688L18.677,33.688z"/>
	</g>
	<path fill="#BABABA" d="M127.917,83.733c0,0,11.752,39.917,32.336,30.634c18.752-8.457-4.414-19.857,5.246-33.526
		c11.945-16.901,7.949-57.819-37.582-38.305C82.384,62.051,127.917,83.733,127.917,83.733z"/>
	<path fill="#BABABA" d="M70.017,83.733c0,0-11.752,39.917-32.336,30.634c-18.754-8.457,4.412-19.857-5.248-33.526
		C20.49,63.94,24.484,23.022,70.017,42.536C115.55,62.051,70.017,83.733,70.017,83.733z"/>
	<g>
		<ellipse fill="#EBEBEB" cx="102.782" cy="85.397" rx="55.119" ry="51.652"/>
		<path fill="#B5B5B5" d="M62.439,123.378c-10.344-9.686-16.777-23.134-16.775-37.981l0,0c-0.002-14.85,6.432-28.297,16.775-37.984
			l0,0c10.344-9.693,24.613-15.667,40.343-15.669l0,0c15.73,0.002,30,5.976,40.34,15.669l0,0
			c10.346,9.687,16.781,23.134,16.779,37.984l0,0c0.002,14.847-6.434,28.295-16.779,37.981l0,0
			c-10.34,9.693-24.609,15.669-40.34,15.671l0,0C87.052,139.047,72.783,133.071,62.439,123.378L62.439,123.378z M65.173,50.333
			c-9.604,9.007-15.51,21.386-15.51,35.064l0,0c0,13.676,5.906,26.055,15.51,35.063l0,0c9.609,9.003,22.896,14.589,37.609,14.587
			l0,0c14.711,0.002,28-5.584,37.607-14.587l0,0c9.605-9.008,15.512-21.387,15.512-35.063l0,0c0-13.678-5.906-26.057-15.512-35.064
			l0,0c-9.607-9.003-22.896-14.589-37.607-14.589l0,0C88.07,35.744,74.783,41.33,65.173,50.333L65.173,50.333z"/>
	</g>
	<g>
		<g>
			<circle cx="77.398" cy="69.063" r="7.74"/>
			<path fill="#FFFFFF" d="M67.656,69.063c0.002-5.382,4.361-9.739,9.742-9.741l0,0c5.379,0.002,9.738,4.359,9.74,9.741l0,0
				c-0.002,5.377-4.361,9.737-9.74,9.739l0,0C72.015,78.8,67.658,74.443,67.656,69.063L67.656,69.063z M71.656,69.063
				c0.006,3.167,2.572,5.734,5.742,5.739l0,0c3.17-0.005,5.734-2.57,5.738-5.739l0,0c-0.004-3.169-2.568-5.735-5.738-5.741l0,0
				C74.226,63.329,71.662,65.894,71.656,69.063L71.656,69.063z"/>
		</g>
		<circle fill="#FFFFFF" cx="75.85" cy="67.171" r="2.063"/>
	</g>
	<g>
		<path fill="#FFFFFF" d="M92.414,106.562c0,0-22.25,30.5-50.25,4.75c0,0,17,46,58,8.25L92.414,106.562z"/>
		<path fill="#D4D4D4" d="M47.318,124.118c-4.793-6.055-6.982-11.997-7.031-12.113l0,0c-0.32-0.868-0.006-1.84,0.764-2.356l0,0
			c0.768-0.514,1.785-0.436,2.467,0.191l0,0c8.041,7.373,15.295,9.788,21.627,9.801l0,0c13.09,0.085,23.039-10.936,25.209-13.688
			l0,0c0.311-0.384,0.443-0.569,0.443-0.569l0,0c0.395-0.542,1.041-0.852,1.711-0.819l0,0c0.666,0.031,1.281,0.397,1.623,0.974l0,0
			l7.75,13c0.486,0.812,0.332,1.852-0.363,2.495l0,0c-12.142,11.182-22.505,15.401-31.218,15.405l0,0
			C59.656,136.432,52.083,130.143,47.318,124.118L47.318,124.118z M50.451,121.631c4.408,5.538,10.902,10.812,19.848,10.807l0,0
			c7.107,0.004,16.146-3.325,27.309-13.259l0,0l-5.467-9.169c-3.891,4.369-13.568,13.533-26.996,13.63l0,0
			c-5.271,0.009-11.023-1.488-16.996-5.206l0,0C48.83,119.475,49.597,120.555,50.451,121.631L50.451,121.631z M90.695,107.585
			l1.719-1.022L90.695,107.585L90.695,107.585z"/>
	</g>
	<g>
		<path fill="#FFFFFF" d="M108.663,106.562c0,0,22.25,30.5,50.25,4.75c0,0-17,46-58,8.25L108.663,106.562z"/>
		<path fill="#D4D4D4" d="M99.558,121.033c-0.697-0.644-0.85-1.682-0.363-2.496l0,0l7.75-13.001
			c0.342-0.573,0.957-0.941,1.625-0.972l0,0c0.668-0.032,1.314,0.277,1.709,0.818l0,0c0.002,0,0.133,0.186,0.445,0.571l0,0
			c0.311,0.384,0.777,0.944,1.393,1.618l0,0c1.225,1.35,3.035,3.159,5.318,4.958l0,0c4.578,3.611,11,7.118,18.496,7.109l0,0
			c6.328-0.011,13.584-2.428,21.629-9.799l0,0c0.68-0.627,1.699-0.704,2.469-0.19l0,0c0.766,0.516,1.08,1.488,0.76,2.355l0,0
			c-0.047,0.115-2.236,6.057-7.031,12.112l0,0c-4.764,6.024-12.338,12.314-22.98,12.318l0,0
			C122.062,136.435,111.698,132.214,99.558,121.033L99.558,121.033z M130.776,132.438c7.84-0.003,13.758-4.022,18.104-8.757l0,0
			c1.582-1.729,2.93-3.543,4.047-5.25l0,0c-5.973,3.719-11.727,5.218-16.996,5.209l0,0c-13.428-0.098-23.105-9.262-26.996-13.632
			l0,0l-5.465,9.17C114.628,129.111,123.667,132.44,130.776,132.438L130.776,132.438z"/>
	</g>
	<g>
		<g>
			<circle cx="128.712" cy="69.063" r="7.74"/>
			<path fill="#FFFFFF" d="M118.97,69.062c0-5.381,4.361-9.739,9.742-9.739l0,0c5.381,0,9.738,4.358,9.74,9.739l0,0
				c-0.002,5.378-4.359,9.739-9.74,9.741l0,0C123.331,78.801,118.97,74.443,118.97,69.062L118.97,69.062z M122.972,69.062
				c0.004,3.168,2.57,5.735,5.74,5.74l0,0c3.17-0.005,5.734-2.57,5.74-5.74l0,0c-0.006-3.17-2.57-5.734-5.74-5.74l0,0
				C125.542,63.329,122.976,65.893,122.972,69.062L122.972,69.062z"/>
		</g>
		<circle fill="#FFFFFF" cx="127.164" cy="67.171" r="2.063"/>
	</g>
	<g>
		<path fill="#EBEBEB" d="M114.163,91.062c0,0-11,24-6,55.5c0,0,6,11-7.5,5.5h0.5c-13.5,5.5-7.5-5.5-7.5-5.5c5-31.5-6-55.5-6-55.5"
			/>
		<path fill="#BABABA" d="M91.47,154.188c-0.91-0.988-1.139-2.197-1.137-3.186l0,0c0.047-2.25,1-4.257,1.4-5.049l0,0
			c0.873-5.616,1.23-10.987,1.23-16.016l0,0c0.004-19.703-5.5-34.179-6.834-37.379l0,0c-0.191-0.458-0.285-0.664-0.285-0.661l0,0
			c-0.459-1.006-0.021-2.193,0.984-2.653l0,0c1.004-0.459,2.191-0.021,2.65,0.984l0,0c0.072,0.165,7.479,16.338,7.482,39.709l0,0
			c0.004,5.31-0.381,10.992-1.324,16.937l0,0c-0.039,0.235-0.107,0.438-0.221,0.646l0,0c0.002,0.002-0.053,0.098-0.16,0.32l0,0
			c-0.107,0.221-0.252,0.543-0.395,0.911l0,0c-0.291,0.729-0.541,1.682-0.531,2.25l0,0c0,0.221,0.035,0.371,0.055,0.431l0,0
			c0.002,0.036,0.016,0.029,0.014,0.032l0,0c0,0,0.014,0.015,0.094,0.046l0,0c0.105,0.038,0.33,0.09,0.705,0.09l0,0
			c0.766,0.009,2.109-0.236,4.035-0.937l0,0c0.367-0.373,0.876-0.602,1.429-0.602l0,0h0.5c0.551,0,1.061,0.228,1.428,0.601l0,0
			c1.924,0.699,3.27,0.944,4.033,0.938l0,0c0.424,0,0.654-0.068,0.742-0.106l0,0c0.066-0.013,0.049-0.025,0.053-0.023l0,0
			c-0.002-0.002,0.006-0.009,0.023-0.062l0,0c0.023-0.067,0.049-0.21,0.049-0.405l0,0c0.029-0.875-0.592-2.522-0.926-3.168l0,0
			c-0.105-0.22-0.158-0.317-0.158-0.317l0,0c-0.107-0.195-0.188-0.425-0.221-0.643l0,0c-0.945-5.948-1.33-11.629-1.33-16.938l0,0
			c0.008-23.369,7.416-39.544,7.488-39.709l0,0h0.002c0.457-1.003,1.645-1.444,2.648-0.984l0,0c1.002,0.46,1.445,1.647,0.986,2.65
			l0,0c0,0.003-0.096,0.206-0.287,0.664l0,0c-0.188,0.458-0.465,1.145-0.797,2.044l0,0c-0.666,1.801-1.561,4.449-2.455,7.808l0,0
			c-1.789,6.718-3.586,16.268-3.586,27.527l0,0c0.002,5.028,0.359,10.397,1.234,16.016l0,0c0.398,0.789,1.352,2.799,1.398,5.051l0,0
			c0.002,0.986-0.229,2.195-1.137,3.184l0,0c-0.912,0.992-2.289,1.425-3.729,1.412l0,0c-1.559-0.01-3.371-0.418-5.711-1.294l0,0
			c-2.341,0.878-4.156,1.286-5.714,1.296l0,0c-0.02,0-0.041,0-0.061,0l0,0C93.72,155.602,92.369,155.165,91.47,154.188
			L91.47,154.188z"/>
	</g>
	<path fill="#BABABA" d="M94.162,108.312c-1.104,0-1.998-0.894-1.998-2l0,0c0-1.104,0.895-2,1.998-2l0,0h14.001c1.104,0,2,0.896,2,2
		l0,0c0,1.106-0.896,2-2,2l0,0H94.162L94.162,108.312z"/>
	<path fill="#BABABA" d="M94.664,117.562c-1.105,0-2-0.896-2-2l0,0c0-1.106,0.895-2,2-2l0,0h12c1.105,0,2,0.894,2,2l0,0
		c0,1.104-0.895,2-2,2l0,0H94.664L94.664,117.562z"/>
	<path fill="#BABABA" d="M96.164,127.312c-1.105,0-2-0.896-2-2l0,0c0-1.105,0.895-2,2-2l0,0h10.75c1.105,0,2,0.895,2,2l0,0
		c0,1.104-0.895,2-2,2l0,0H96.164L96.164,127.312z"/>
</g>
</svg>
