<?xml version="1.0" encoding="utf-8"?>
<!-- Generator: Adobe Illustrator 16.0.4, SVG Export Plug-In . SVG Version: 6.00 Build 0)  -->
<!DOCTYPE svg PUBLIC "-//W3C//DTD SVG 1.1//EN" "http://www.w3.org/Graphics/SVG/1.1/DTD/svg11.dtd">
<svg version="1.1" id="Layer_1" xmlns="http://www.w3.org/2000/svg" xmlns:xlink="http://www.w3.org/1999/xlink" x="0px" y="0px"
	 width="197.299px" height="175.975px" viewBox="0 0 197.299 175.975" enable-background="new 0 0 197.299 175.975"
	 xml:space="preserve">
<g>
	<g>
		<path fill="#F7CA86" d="M60.3,65.146c0,0-11.691-36.286-33.061-23.787C5.873,53.857-7.836,96.595,10.71,91.757
			c0,0,1.611,6.854,7.256,6.048c0,0,3.629,7.257,10.887,2.822c0,0,5.645,8.063,12.902-0.807C49.011,90.95,60.3,65.146,60.3,65.146z"
			/>
		<path fill="#C7774B" d="M34.816,105.981c-3.076-0.08-5.213-1.65-6.422-2.851l0,0c-1.412,0.638-2.771,0.933-4.041,0.93l0,0
			c-2.832,0-4.93-1.428-6.205-2.714l0,0c-0.525-0.528-0.939-1.044-1.248-1.479l0,0c-3.281-0.064-5.439-2.195-6.545-3.98l0,0
			c-0.412-0.652-0.729-1.287-0.965-1.84l0,0c-0.469,0.059-0.926,0.088-1.373,0.088l0,0c-2.609,0.042-4.939-1.173-6.23-3.147l0,0
			C0.474,89.033,0.009,86.592,0,83.869l0,0c0.025-6.622,2.863-15.315,7.496-23.625l0,0c4.652-8.284,11.104-16.132,18.734-20.611l0,0
			c3.387-1.988,6.689-2.897,9.793-2.896l0,0c4.52,0,8.467,1.908,11.715,4.581l0,0c3.26,2.683,5.908,6.147,8.035,9.568l0,0
			c4.244,6.844,6.4,13.557,6.432,13.645l0,0L60.3,65.146l1.904-0.614l0.23,0.722l-0.303,0.693c-0.008,0.02-2.838,6.489-6.59,14.095
			l0,0c-3.771,7.622-8.379,16.303-12.242,21.046l0,0c-2.775,3.423-5.746,4.895-8.449,4.895l0,0
			C34.839,105.981,34.828,105.981,34.816,105.981L34.816,105.981z M30.49,99.479c0.002,0,0,0,0.049,0.063l0,0
			c0.049,0.063,0.131,0.163,0.238,0.286l0,0c0.217,0.248,0.547,0.589,0.957,0.918l0,0c0.83,0.673,1.916,1.242,3.082,1.236l0,0
			c1.264-0.016,3.023-0.576,5.389-3.43l0,0c3.396-4.127,8.061-12.785,11.75-20.282l0,0c2.979-6.035,5.369-11.352,6.199-13.218l0,0
			c-0.141-0.393-0.342-0.939-0.605-1.616l0,0c-0.572-1.462-1.432-3.497-2.561-5.752l0,0c-2.252-4.507-5.627-9.874-9.789-13.275l0,0
			c-2.783-2.278-5.811-3.67-9.176-3.672l0,0c-2.328,0.002-4.887,0.66-7.773,2.347l0,0c-6.713,3.908-12.881,11.267-17.264,19.114l0,0
			C6.583,70.021,3.978,78.39,4,83.869l0,0c-0.008,2.246,0.443,3.938,1.096,4.873l0,0c0.67,0.914,1.35,1.348,2.922,1.393l0,0
			c0.607,0,1.336-0.093,2.189-0.314l0,0l1.979-0.515l0.471,1.993c0.002,0,0.006,0.029,0.045,0.158l0,0
			c0.037,0.129,0.098,0.324,0.186,0.561l0,0c0.174,0.477,0.457,1.118,0.844,1.722l0,0c0.824,1.242,1.789,2.125,3.332,2.13l0,0
			c0.186,0,0.396-0.015,0.631-0.046l0,0l1.418-0.197l0.645,1.283c0.002,0,0,0.004,0.047,0.086l0,0
			c0.045,0.08,0.123,0.207,0.227,0.365l0,0c0.209,0.314,0.533,0.744,0.947,1.158l0,0c0.852,0.841,1.947,1.543,3.377,1.543l0,0
			c0.885-0.004,2.002-0.26,3.457-1.143l0,0l1.602-0.979L30.49,99.479L30.49,99.479z"/>
	</g>
	<g>
		<path fill="#F7CA86" d="M137.003,65.146c0,0,11.693-36.286,33.061-23.787c21.369,12.498,35.076,55.235,16.531,50.397
			c0,0-1.613,6.854-7.258,6.048c0,0-3.629,7.257-10.885,2.822c0,0-5.645,8.063-12.902-0.807S137.003,65.146,137.003,65.146z"/>
		<path fill="#C7774B" d="M154.001,101.087c-3.861-4.742-8.469-13.424-12.24-21.046l0,0c-3.752-7.604-6.582-14.076-6.592-14.093l0,0
			l1.834-0.802l1.904,0.613l-1.904-0.613l-1.834,0.802l-0.303-0.694l0.232-0.723c0.092-0.137,4.77-15.158,14.465-23.213l0,0
			c3.248-2.674,7.195-4.581,11.715-4.579l0,0c3.102-0.004,6.404,0.906,9.795,2.893l0,0c7.631,4.48,14.082,12.328,18.732,20.612l0,0
			c4.631,8.31,7.469,17.003,7.492,23.627l0,0c-0.008,2.721-0.475,5.162-1.787,7.118l0,0c-1.291,1.976-3.621,3.188-6.23,3.146l0,0
			c-0.445,0-0.9-0.03-1.367-0.088l0,0c-0.238,0.553-0.553,1.188-0.967,1.84l0,0c-1.104,1.785-3.262,3.916-6.543,3.98l0,0
			c-0.311,0.435-0.725,0.951-1.25,1.479l0,0c-1.277,1.286-3.375,2.713-6.203,2.713l0,0c-1.271,0.001-2.633-0.293-4.041-0.929l0,0
			c-1.211,1.199-3.348,2.771-6.426,2.852l0,0c-0.012,0-0.023,0-0.035,0l0,0C159.745,105.983,156.772,104.511,154.001,101.087
			L154.001,101.087z M145.349,78.271c3.688,7.498,8.352,16.155,11.748,20.282l0,0c2.361,2.852,4.121,3.416,5.387,3.428l0,0
			c2.01,0.084,3.938-1.937,4.279-2.438l0,0c0.051-0.064,0.051-0.064,0.051-0.064l0,0l1.074-1.539l1.605,0.979
			c1.449,0.881,2.566,1.138,3.457,1.142l0,0c1.256-0.004,2.232-0.533,3.049-1.238l0,0c0.801-0.696,1.344-1.545,1.502-1.83l0,0
			c0.045-0.079,0.047-0.083,0.047-0.083l0,0l0.641-1.284l1.424,0.197c0.229,0.033,0.439,0.047,0.627,0.047l0,0
			c1.369-0.014,2.229-0.67,3.027-1.689l0,0c0.764-1.002,1.209-2.274,1.336-2.725l0,0c0.037-0.128,0.045-0.158,0.045-0.158l0,0
			l0.467-1.993l1.982,0.517c0.848,0.221,1.576,0.312,2.184,0.312l0,0c1.57-0.043,2.252-0.478,2.922-1.393l0,0
			c0.654-0.937,1.104-2.627,1.096-4.87l0,0c0.023-5.481-2.582-13.85-6.982-21.673l0,0c-4.381-7.847-10.549-15.203-17.262-19.114l0,0
			c-2.893-1.687-5.451-2.342-7.775-2.347l0,0c-5.828-0.047-10.92,4.401-14.789,9.896l0,0c-3.846,5.438-6.328,11.631-7.211,14.062
			l0,0c-0.049,0.131-0.092,0.25-0.129,0.356l0,0C139.978,66.916,142.37,72.233,145.349,78.271L145.349,78.271z"/>
	</g>
	<path fill="#FFF1DB" d="M54.3,71.123c0,0-7.033-21.826-19.885-14.308c-12.854,7.518-21.098,33.224-9.943,30.313
		c0,0,0.971,4.122,4.365,3.638c0,0,2.182,4.365,6.547,1.698c0,0,3.396,4.85,7.762-0.485C47.511,86.644,54.3,71.123,54.3,71.123z"/>
	<path fill="#FFF1DB" d="M142.233,71.123c0,0,7.033-21.826,19.887-14.308c12.852,7.518,21.098,33.224,9.941,30.313
		c0,0-0.969,4.122-4.363,3.638c0,0-2.184,4.365-6.549,1.698c0,0-3.395,4.85-7.76-0.485
		C149.024,86.644,142.233,71.123,142.233,71.123z"/>
	<g>
		<ellipse fill="#F7CA86" cx="99.134" cy="87.988" rx="61.57" ry="51.652"/>
		<path fill="#C7774B" d="M54.312,126.044c-11.521-9.655-18.75-23.13-18.748-38.057l0,0c-0.002-14.924,7.227-28.398,18.748-38.056
			l0,0c11.527-9.668,27.365-15.595,44.822-15.597l0,0c17.457,0.002,33.294,5.929,44.82,15.597l0,0
			c11.523,9.654,18.75,23.132,18.75,38.056l0,0c0,14.927-7.227,28.401-18.75,38.057l0,0c-11.525,9.668-27.363,15.594-44.82,15.596
			l0,0C81.677,141.638,65.839,135.712,54.312,126.044L54.312,126.044z M56.882,52.996c-10.762,9.038-17.316,21.389-17.318,34.991
			l0,0c0.002,13.604,6.557,25.953,17.318,34.992l0,0c10.758,9.027,25.703,14.663,42.252,14.661l0,0
			c16.546,0.002,31.492-5.634,42.251-14.661l0,0c10.762-9.039,17.316-21.389,17.318-34.992l0,0
			c-0.002-13.603-6.557-25.953-17.318-34.991l0,0c-10.76-9.027-25.705-14.664-42.251-14.661l0,0c-0.004,0-0.006,0-0.01,0l0,0
			C82.582,38.335,67.638,43.971,56.882,52.996L56.882,52.996z"/>
	</g>
	<path opacity="0.42" fill="#C7774B" d="M98.634,132.351c-32.293,0-58.646-22.322-60.168-50.362
		c-0.045,0.85-0.074,1.702-0.074,2.562c0,29.229,26.973,52.924,60.242,52.924c33.271,0,60.242-23.694,60.242-52.924
		c0-0.859-0.027-1.712-0.074-2.562C157.28,110.028,130.927,132.351,98.634,132.351z"/>
	<g>
		<g>
			<path fill="#424242" d="M116.661,112.738c0,9.251-7.498,16.75-16.75,16.75l0,0c-9.25,0-16.75-7.499-16.75-16.75v-13.5
				c0-9.251,7.5-16.75,16.75-16.75l0,0c9.252,0,16.75,7.499,16.75,16.75V112.738z"/>
			<path fill="#1A1A1A" d="M81.162,112.737l-0.002-13.5c0.002-10.356,8.396-18.749,18.751-18.749l0,0
				c10.355,0,18.748,8.393,18.748,18.749l0,0v13.5h0.002c-0.002,10.357-8.395,18.75-18.75,18.75l0,0
				C89.556,131.487,81.162,123.095,81.162,112.737L81.162,112.737z M85.16,99.237l0.002,13.5c0.016,8.146,6.605,14.734,14.75,14.75
				l0,0c8.146-0.016,14.734-6.604,14.748-14.75l0,0h0.002l-0.002-13.5c-0.014-8.145-6.602-14.734-14.748-14.75l0,0
				C91.767,84.503,85.177,91.093,85.16,99.237L85.16,99.237z"/>
		</g>
		
			<ellipse transform="matrix(0.9006 0.4347 -0.4347 0.9006 63.3797 -27.6072)" fill="#1A1A1A" cx="92.037" cy="124.738" rx="6.029" ry="3.429"/>
		
			<ellipse transform="matrix(-0.9006 0.4347 -0.4347 -0.9006 257.1811 190.6494)" fill="#1A1A1A" cx="106.786" cy="124.738" rx="6.029" ry="3.429"/>
	</g>
	<g>
		<g>
			<g>
				<circle cx="68.118" cy="83.447" r="13.308"/>
				<path fill="#FFFFFF" d="M52.81,83.446c0.002-8.455,6.852-15.305,15.307-15.307l0,0c8.455,0.002,15.307,6.852,15.309,15.307l0,0
					c-0.002,8.455-6.854,15.306-15.309,15.308l0,0C59.662,98.752,52.812,91.901,52.81,83.446L52.81,83.446z M56.81,83.446
					c0.01,6.243,5.061,11.295,11.307,11.308l0,0c6.246-0.013,11.297-5.064,11.307-11.308l0,0
					c-0.01-6.243-5.061-11.294-11.307-11.307l0,0C61.871,72.152,56.82,77.203,56.81,83.446L56.81,83.446z"/>
			</g>
			<circle fill="#FFFFFF" cx="65.456" cy="80.194" r="3.548"/>
		</g>
		<g>
			<g>
				<circle cx="131.707" cy="83.447" r="13.308"/>
				<path fill="#FFFFFF" d="M116.397,83.446c0.002-8.455,6.855-15.306,15.309-15.306l0,0c8.457,0,15.307,6.851,15.309,15.306l0,0
					c-0.002,8.452-6.852,15.305-15.309,15.308l0,0C123.251,98.751,116.399,91.898,116.397,83.446L116.397,83.446z M120.399,83.446
					c0.01,6.241,5.064,11.297,11.307,11.307l0,0c6.246-0.01,11.297-5.065,11.307-11.307l0,0c-0.01-6.244-5.061-11.295-11.307-11.306
					l0,0C125.462,72.151,120.409,77.202,120.399,83.446L120.399,83.446z"/>
			</g>
			<circle fill="#FFFFFF" cx="129.046" cy="80.194" r="3.549"/>
		</g>
	</g>
</g>
</svg>
