<?xml version="1.0" encoding="utf-8"?>
<!-- Generator: Adobe Illustrator 16.0.4, SVG Export Plug-In . SVG Version: 6.00 Build 0)  -->
<!DOCTYPE svg PUBLIC "-//W3C//DTD SVG 1.1//EN" "http://www.w3.org/Graphics/SVG/1.1/DTD/svg11.dtd">
<svg version="1.1" id="Layer_1" xmlns="http://www.w3.org/2000/svg" xmlns:xlink="http://www.w3.org/1999/xlink" x="0px" y="0px"
	 width="197.299px" height="175.975px" viewBox="0 0 197.299 175.975" enable-background="new 0 0 197.299 175.975"
	 xml:space="preserve">
<g>
	<g>
		<ellipse fill="#FFEBF2" cx="73.474" cy="48.503" rx="17.334" ry="46.5"/>
		<path fill="#E69DC0" d="M65.225,92.671c-2.307-2.626-4.252-6.228-5.883-10.589l0,0c-3.246-8.724-5.197-20.535-5.203-33.58l0,0
			c0.059-19.588,4.277-36.312,11.086-44.169l0,0c2.287-2.605,5.09-4.328,8.249-4.333l0,0c3.16,0.005,5.96,1.728,8.247,4.333l0,0
			c2.309,2.626,4.252,6.227,5.885,10.589l0,0c3.244,8.723,5.197,20.535,5.201,33.58l0,0C92.75,68.09,88.53,84.813,81.721,92.671l0,0
			c-2.287,2.605-5.087,4.328-8.247,4.332l0,0C70.315,96.999,67.512,95.276,65.225,92.671L65.225,92.671z M78.72,90.026
			c1.841-2.08,3.631-5.291,5.138-9.342l0,0c3.027-8.107,4.953-19.547,4.949-32.183l0,0c0.057-18.935-4.454-35.261-10.087-41.524l0,0
			c-1.861-2.099-3.62-2.979-5.246-2.975l0,0c-1.628-0.004-3.387,0.876-5.248,2.975l0,0c-1.839,2.08-3.628,5.291-5.135,9.341l0,0
			c-3.028,8.108-4.956,19.548-4.952,32.184l0,0c-0.057,18.934,4.454,35.261,10.087,41.524l0,0c1.861,2.099,3.62,2.979,5.248,2.975
			l0,0C75.1,93.005,76.859,92.125,78.72,90.026L78.72,90.026z"/>
	</g>
	<ellipse fill="#E69DC0" cx="73.737" cy="62.336" rx="9.071" ry="24.333"/>
	<g>
		<ellipse fill="#FFEBF2" cx="127.142" cy="48.503" rx="17.334" ry="46.5"/>
		<path fill="#E69DC0" d="M118.894,92.671c-2.307-2.626-4.252-6.228-5.883-10.589l0,0c-3.246-8.724-5.197-20.535-5.203-33.58l0,0
			c0.059-19.588,4.277-36.312,11.086-44.169l0,0c2.285-2.605,5.086-4.328,8.246-4.333l0,0c3.16,0.005,5.963,1.728,8.248,4.333l0,0
			c2.309,2.626,4.254,6.227,5.883,10.589l0,0c3.246,8.723,5.199,20.535,5.205,33.58l0,0c-0.059,19.588-4.277,36.312-11.088,44.169
			l0,0c-2.285,2.605-5.088,4.328-8.248,4.332l0,0C123.979,96.999,121.179,95.276,118.894,92.671L118.894,92.671z M132.388,90.026
			c1.84-2.08,3.629-5.291,5.135-9.342l0,0c3.027-8.107,4.957-19.547,4.953-32.183l0,0c0.057-18.935-4.455-35.261-10.088-41.524l0,0
			c-1.861-2.099-3.619-2.979-5.248-2.975l0,0c-1.625-0.004-3.385,0.876-5.246,2.975l0,0c-1.838,2.08-3.629,5.291-5.135,9.341l0,0
			c-3.027,8.108-4.955,19.548-4.951,32.184l0,0c-0.057,18.934,4.453,35.261,10.086,41.524l0,0c1.861,2.099,3.621,2.979,5.246,2.975
			l0,0C128.769,93.005,130.526,92.125,132.388,90.026L132.388,90.026z"/>
	</g>
	<ellipse fill="#E69DC0" cx="127.404" cy="62.336" rx="9.071" ry="24.333"/>
	<g>
		<ellipse fill="#FFEBF2" cx="98.65" cy="122.322" rx="61.57" ry="51.653"/>
		<path fill="#E69DC0" d="M53.827,160.378c-11.521-9.656-18.75-23.132-18.748-38.056l0,0c-0.002-14.927,7.227-28.4,18.748-38.057
			l0,0c11.527-9.669,27.367-15.594,44.824-15.596l0,0c17.456,0.002,33.293,5.927,44.821,15.596l0,0
			c11.523,9.654,18.75,23.13,18.748,38.057l0,0c0.002,14.924-7.225,28.399-18.748,38.056l0,0
			c-11.527,9.669-27.365,15.594-44.821,15.597l0,0C81.194,175.972,65.354,170.047,53.827,160.378L53.827,160.378z M56.397,87.33
			c-10.761,9.039-17.316,21.389-17.318,34.992l0,0c0.002,13.603,6.558,25.952,17.318,34.991l0,0
			c10.76,9.028,25.705,14.663,42.254,14.661l0,0c16.545,0.002,31.495-5.633,42.25-14.661l0,0
			c10.762-9.039,17.316-21.389,17.318-34.991l0,0c-0.002-13.604-6.557-25.953-17.318-34.992l0,0
			c-10.756-9.028-25.705-14.663-42.25-14.661l0,0c-0.005,0-0.006,0-0.01,0l0,0C82.097,72.67,67.153,78.305,56.397,87.33
			L56.397,87.33z"/>
	</g>
	<path opacity="0.42" fill="#E69DC0" d="M98.65,168.476c-33.204,0-60.256-22.054-61.51-49.653c-0.03,0.664-0.061,1.329-0.061,2
		c0,28.528,27.566,51.653,61.57,51.653c34.003,0,61.57-23.125,61.57-51.653c0-0.671-0.029-1.336-0.061-2
		C158.905,146.422,131.854,168.476,98.65,168.476z"/>
	<g>
		<g>
			<path fill="#FFEBF2" d="M99.808,156.337c0,0-7.333,18-21,7"/>
			<path fill="#E69DC0" d="M77.867,164.505c-0.646-0.519-0.748-1.464-0.227-2.108l0,0c0.517-0.648,1.462-0.748,2.108-0.229l0,0
				c3.016,2.418,5.516,3.225,7.6,3.228l0,0c2.55,0.002,4.703-1.231,6.493-2.929l0,0c1.778-1.685,3.098-3.793,3.844-5.189l0,0
				c0.5-0.932,0.733-1.506,0.733-1.506l0,0h0.002c0.311-0.768,1.187-1.136,1.954-0.825l0,0c0.768,0.312,1.135,1.188,0.822,1.956l0,0
				c-0.033,0.076-1.146,2.82-3.384,5.645l0,0c-2.221,2.798-5.685,5.829-10.464,5.849l0,0c-0.005,0-0.01,0-0.016,0l0,0
				C84.438,168.396,81.241,167.228,77.867,164.505L77.867,164.505z"/>
		</g>
		<g>
			<path fill="#FFEBF2" d="M99.14,156.337c0,0,7.333,18,21,7"/>
			<path fill="#E69DC0" d="M111.599,168.396c-4.779-0.02-8.244-3.051-10.461-5.849l0,0c-2.239-2.824-3.353-5.568-3.387-5.645l0,0
				c-0.312-0.767,0.055-1.642,0.822-1.956l0,0c0.768-0.311,1.643,0.056,1.956,0.825l0,0c0.002,0,0.051,0.125,0.174,0.388l0,0
				c0.123,0.267,0.311,0.652,0.561,1.118l0,0c0.496,0.931,1.25,2.179,2.223,3.405l0,0c1.971,2.483,4.734,4.731,8.113,4.713l0,0
				c2.082-0.003,4.584-0.81,7.602-3.228l0,0c0.645-0.52,1.588-0.417,2.109,0.229l0,0c0.518,0.645,0.414,1.588-0.23,2.108l0,0
				c-3.375,2.723-6.57,3.891-9.465,3.891l0,0C111.608,168.396,111.603,168.396,111.599,168.396L111.599,168.396z"/>
		</g>
	</g>
	<g>
		<ellipse fill="#FFD1E1" cx="99.815" cy="144.322" rx="24.834" ry="15"/>
		<path fill="#E69DC0" d="M81.221,156.64c-4.847-2.916-8.224-7.216-8.24-12.317l0,0c0.017-5.104,3.394-9.404,8.24-12.32l0,0
			c4.879-2.94,11.408-4.675,18.594-4.681l0,0c7.184,0.006,13.713,1.74,18.594,4.681l0,0c4.846,2.916,8.223,7.216,8.238,12.32l0,0
			c-0.016,5.102-3.393,9.401-8.238,12.317l0,0c-4.881,2.94-11.41,4.677-18.594,4.683l0,0C92.629,161.316,86.1,159.58,81.221,156.64
			L81.221,156.64z M116.341,153.216c4.143-2.515,6.324-5.714,6.309-8.894l0,0c0.016-3.183-2.166-6.382-6.309-8.896l0,0
			c-4.107-2.488-9.996-4.109-16.525-4.104l0,0c-6.532-0.006-12.418,1.615-16.526,4.104l0,0c-4.144,2.515-6.326,5.714-6.31,8.896l0,0
			c-0.017,3.18,2.166,6.379,6.31,8.894l0,0c4.107,2.487,9.994,4.111,16.526,4.105l0,0
			C106.345,157.327,112.233,155.703,116.341,153.216L116.341,153.216z"/>
	</g>
	<ellipse fill="#FFEBF2" cx="100.122" cy="138.322" rx="12.141" ry="6"/>
	<g>
		<g>
			<g>
				<circle cx="84.799" cy="110.215" r="7.741"/>
				<path fill="#FFFFFF" d="M75.057,110.215c0.002-5.381,4.361-9.742,9.742-9.742l0,0c5.38,0,9.738,4.361,9.741,9.742l0,0
					c-0.003,5.379-4.361,9.739-9.741,9.741l0,0C79.418,119.954,75.059,115.594,75.057,110.215L75.057,110.215z M79.057,110.215
					c0.007,3.168,2.573,5.734,5.742,5.741l0,0c3.17-0.007,5.734-2.573,5.74-5.741l0,0c-0.006-3.171-2.57-5.736-5.74-5.741l0,0
					C81.63,104.479,79.064,107.044,79.057,110.215L79.057,110.215z"/>
			</g>
			<circle fill="#FFFFFF" cx="83.251" cy="108.322" r="2.064"/>
		</g>
		<g>
			<g>
				<circle cx="111.863" cy="110.214" r="7.741"/>
				<path fill="#FFFFFF" d="M102.122,110.213c0-5.381,4.361-9.74,9.74-9.74l0,0c5.381,0,9.74,4.359,9.742,9.74l0,0
					c-0.002,5.381-4.359,9.741-9.742,9.743l0,0C106.481,119.954,102.122,115.594,102.122,110.213L102.122,110.213z M106.124,110.213
					c0.004,3.17,2.57,5.736,5.738,5.743l0,0c3.17-0.007,5.736-2.573,5.74-5.743l0,0c-0.004-3.171-2.568-5.734-5.74-5.739l0,0
					C108.694,104.479,106.128,107.042,106.124,110.213L106.124,110.213z"/>
			</g>
			<circle fill="#FFFFFF" cx="110.315" cy="108.321" r="2.064"/>
		</g>
	</g>
</g>
</svg>
