<?xml version="1.0" encoding="UTF-8" standalone="no"?>
<!-- Generator: Adobe Illustrator 16.2.1, SVG Export Plug-In . SVG Version: 6.00 Build 0)  -->

<svg
   xmlns:dc="http://purl.org/dc/elements/1.1/"
   xmlns:cc="http://creativecommons.org/ns#"
   xmlns:rdf="http://www.w3.org/1999/02/22-rdf-syntax-ns#"
   xmlns:svg="http://www.w3.org/2000/svg"
   xmlns="http://www.w3.org/2000/svg"
   xmlns:sodipodi="http://sodipodi.sourceforge.net/DTD/sodipodi-0.dtd"
   xmlns:inkscape="http://www.inkscape.org/namespaces/inkscape"
   version="1.1"
   id="Layer_1"
   x="0px"
   y="0px"
   width="708px"
   height="363px"
   viewBox="0 0 708 363"
   enable-background="new 0 0 708 363"
   xml:space="preserve"
   inkscape:version="0.48.4 r9939"
   sodipodi:docname="landscape.svg"
   inkscape:export-filename="/home/jberivera/WebstormProjects/hippoxxx/assets/scene1/1/backg/landscape.png"
   inkscape:export-xdpi="90"
   inkscape:export-ydpi="90"><metadata
     id="metadata15"><rdf:RDF><cc:Work
         rdf:about=""><dc:format>image/svg+xml</dc:format><dc:type
           rdf:resource="http://purl.org/dc/dcmitype/StillImage" /><dc:title></dc:title></cc:Work></rdf:RDF></metadata><defs
     id="defs13" /><sodipodi:namedview
     pagecolor="#ffffff"
     bordercolor="#666666"
     borderopacity="1"
     objecttolerance="10"
     gridtolerance="10"
     guidetolerance="10"
     inkscape:pageopacity="0"
     inkscape:pageshadow="2"
     inkscape:window-width="1280"
     inkscape:window-height="741"
     id="namedview11"
     showgrid="false"
     inkscape:zoom="1.2175141"
     inkscape:cx="327.8545"
     inkscape:cy="147.28901"
     inkscape:window-x="0"
     inkscape:window-y="27"
     inkscape:window-maximized="1"
     inkscape:current-layer="Layer_1" /><g
     id="bg"><rect
       x="-2.603"
       y="-2.75"
       width="713"
       height="369"
       id="rect4"
       fill="#D9FCFF" /><g
       id="clouds"><path
         id="cloud_1_"
         d="M685.939,75.078c0,0-2.334-15.333-20.667-15.333s-19,8-19,8    s-8.001-5.999-19.667-3.333s-8.333,13.333-8.333,13.333s-5,0-11,0s-7.333,8.667,0,8.667s8.333,0,11,0s2,3.333,0,3.333    s-3.667,0-7,0s-4.667,5.667,0,5.667s12.667,0,18.667,0s3.666,4.666,0.333,4.666s-2.334,0-6.667,0s-4.999,7,0.334,7s24.667,0,33,0    s6.667-7.333,1-7.333s-3,0-5.667,0s-2.667-3.667,1.333-3.667s13.334,0,19.334,0s5.666-6,5.666-6s6.667,0,13.667,0    s6.667-12.666,0-12.666C687.273,77.412,685.939,75.078,685.939,75.078z"
         fill="#FFFFFF"
         opacity="0.6" /><path
         id="cloud_3_"
         d="M137.477,42.757c0,0-2.334-15.333-20.667-15.333s-19,8-19,8    s-8.001-5.999-19.667-3.333S69.81,45.424,69.81,45.424s-5,0-11,0s-7.333,8.667,0,8.667s8.333,0,11,0s2,3.333,0,3.333s-3.667,0-7,0    s-4.667,5.667,0,5.667s12.667,0,18.667,0s3.666,4.666,0.333,4.666s-2.334,0-6.667,0s-4.999,7,0.334,7s24.667,0,33,0    s6.667-7.333,1-7.333s-3,0-5.667,0s-2.667-3.667,1.333-3.667s13.334,0,19.334,0s5.666-6,5.666-6s6.667,0,13.667,0    s6.667-12.666,0-12.666C138.811,45.091,137.477,42.757,137.477,42.757z"
         fill="#FFFFFF"
         opacity="0.6" /><path
         id="cloud"
         d="M220.358,77.465c0,0,4-10,16-10s14.5,10.5,14.5,10.5s5.5-4,10.5-2s5,8.5,5,8.5    s4.5,0,11.5,0s7,10.5,0,10.5s-9.5,0-9.5,0s-1.5,8.5-8.5,8.5s-14.5,0-14.5,0s-0.5,8.25-8.25,8.25s-19.25,0-25.75,0s-7-9.75,1-9.75    s5.5,0,8,0s3-3.5-1-3.5s-13,0-20.5,0s-7.5-9.5,0-9.5s10-0.5,10-0.5S207.858,77.465,220.358,77.465z"
         fill="#FFFFFF"
         opacity="0.8" /><path
         id="cloud_2_"
         d="M555.961,16.841c0,0,4-10,16-10s14.5,10.5,14.5,10.5s5.5-4,10.5-2    s5,8.5,5,8.5s4.5,0,11.5,0s7,10.5,0,10.5s-9.5,0-9.5,0s-1.5,8.5-8.5,8.5s-14.5,0-14.5,0s-0.5,8.25-8.25,8.25s-19.25,0-25.75,0    s-7-9.75,1-9.75s5.5,0,8,0s3-3.5-1-3.5s-13,0-20.5,0s-7.5-9.5,0-9.5s10-0.5,10-0.5S543.461,16.841,555.961,16.841z"
         fill="#FFFFFF"
         opacity="0.8" /></g></g><g
     id="_x33_rd"
     transform="translate(8.1447372,-8.9559528)"><g
       id="bg_mountain"><path
         id="path3423"
         d="m 335.378,170.037 c 5.82,-21.157 54.646,-69.301 68.68,-84.012 24.83,-26.031 50.049,-58.652 67.508,-60.172 17.46,-1.522 52.981,64.78 57.336,77.025 4.355,12.246 42.769,84.324 42.769,84.324 0,0 -59.363,19.112 -148.99,17.166 -89.629,-1.945 -87.303,-34.331 -87.303,-34.331 z"
         inkscape:connector-curvature="0"
         style="fill:#498a6d" /><path
         id="path3425"
         d="m 427.337,170.037 c -17.073,-1.758 -26.386,17.166 -26.386,17.166 0,0 -6.208,-12.713 -20.952,-12.713 -7.368,0 -16.675,5.621 -24.145,11.245 -9.754,-5.011 -5.844,-21.084 -6.513,-27.184 -1.76,-16.091 -18.202,-5.042 -28.315,5.428 -10.11,10.472 -32.808,23.56 -43.456,31.463 -20.952,15.548 -4.474,37.416 16.792,27.158 8.04,-3.879 6.489,18.624 26.664,24.832 20.174,6.208 31.477,-0.486 31.477,-0.486 0,0 13.889,2.473 28.853,2.667 20.953,0.269 33.186,-15.763 33.186,-15.763 l 15.375,-22.868 c 0.209,0 0.408,-0.002 0.524,-0.023 4.654,-0.775 10.865,-13.967 10.865,-13.967 0,0 3.103,-25.198 -13.969,-26.955 z"
         inkscape:connector-curvature="0"
         style="fill:#6dc274" /><path
         d="m 406.36,83.593 c 0,0 44.032,-67.74 65.205,-67.74 21.172,0 50.112,71.727 50.112,71.727 0,0 -3.659,6.853 -14.245,7.515 -10.586,0.662 -15.878,-14.557 -27.126,-13.895 -11.248,0.662 -22.443,9.924 -35.041,9.924 -12.597,0 -11.31,-10.724 -22.521,-11.909 -11.212,-1.185 -16.384,4.378 -16.384,4.378 z"
         id="snow"
         inkscape:connector-curvature="0"
         style="fill:#ffffff" /></g><g
       id="bg_trees"><g
         id="g3429"><path
           id="path3431"
           d="m 333.397,160.25 v 3.162 c 0,0 0.19,0.81 1,0.81 0.81,0 1,-0.81 1,-0.81 v -3.162 h -2 z"
           inkscape:connector-curvature="0"
           style="fill:#a88862" /><path
           id="path3433"
           d="m 334.1,161.791 c -1.62,0 -1.62,-0.81 -1.62,-0.81 0,0 -1.621,0.81 -2.43,0 -0.81,-0.81 0,-2.555 0,-2.555 0.81,-2.431 0.81,-4.177 0.81,-4.177 h 6.48 c 0,0 0,1.746 0.81,4.177 0,0 0.81,1.682 0,2.491 -0.81,0.811 -2.43,0.033 -2.43,0.033 0,0 0,0.841 -1.62,0.841 z"
           inkscape:connector-curvature="0"
           style="fill:#3e7543" /><path
           id="path3435"
           d="m 331.67,149.25 c 0,0 -0.811,3.031 -1.62,4.651 -0.362,0.724 0,1.515 0.81,1.515 1.621,0 1.621,-0.862 1.621,-0.862 0,0 0,1.593 1.62,1.593 1.62,0 1.62,-1.632 1.62,-1.632 0,0 0,0.803 1.62,0.803 0.81,0 1.172,-0.689 0.81,-1.414 -0.81,-1.62 -1.62,-4.654 -1.62,-4.654 h -4.861 z"
           inkscape:connector-curvature="0"
           style="fill:#5ea05b" /><path
           id="path3437"
           d="m 334.1,141.137 c -0.81,0 -2.43,4.86 -3.241,6.48 -0.81,1.62 0,2.43 0.811,2.43 0.81,0 0.81,-0.81 0.81,-0.81 0,0 0,1.62 1.62,1.62 1.62,0 1.62,-1.62 1.62,-1.62 0,0 0,0.81 0.81,0.81 0.81,0 1.62,-0.81 0.81,-2.43 -0.81,-1.62 -2.43,-6.481 -3.24,-6.48 z"
           inkscape:connector-curvature="0"
           style="fill:#7ec172" /></g><g
         id="g3439"><path
           id="path3441"
           d="m 321.397,170.25 v 3.19 c 0,0 0.19,0.81 1,0.81 0.81,0 1,-0.81 1,-0.81 v -3.19 h -2 z"
           inkscape:connector-curvature="0"
           style="fill:#a88862" /><path
           id="path3443"
           d="m 321.564,171.82 c -1.62,0 -1.62,-0.81 -1.62,-0.81 0,0 -1.62,0.81 -2.43,0 -0.81,-0.81 0,-2.569 0,-2.569 0.81,-2.431 0.81,-4.19 0.81,-4.19 h 6.48 c 0,0 0,1.76 0.81,4.19 0,0 0.81,1.689 0,2.499 -0.81,0.811 -2.43,0.036 -2.43,0.036 0,0 0,0.844 -1.62,0.844 z"
           inkscape:connector-curvature="0"
           style="fill:#3e7543" /><path
           id="path3445"
           d="m 319.134,159.25 c 0,0 -0.81,3.046 -1.62,4.666 -0.362,0.724 0,1.521 0.81,1.521 1.62,0 1.62,-0.858 1.62,-0.858 0,0 0,1.595 1.62,1.595 1.62,0 1.62,-1.632 1.62,-1.632 0,0 0,0.803 1.62,0.803 0.81,0 1.172,-0.703 0.81,-1.428 -0.81,-1.62 -1.62,-4.668 -1.62,-4.668 h -4.86 z"
           inkscape:connector-curvature="0"
           style="fill:#5ea05b" /><path
           id="path3447"
           d="m 321.564,151.165 c -0.81,0 -2.43,4.86 -3.24,6.48 -0.81,1.62 0,2.43 0.81,2.43 0.81,0 0.81,-0.81 0.81,-0.81 0,0 0,1.62 1.62,1.62 1.62,0 1.62,-1.62 1.62,-1.62 0,0 0,0.81 0.811,0.81 0.81,0 1.62,-0.81 0.81,-2.43 -0.81,-1.62 -2.43,-6.48 -3.241,-6.48 z"
           inkscape:connector-curvature="0"
           style="fill:#7ec172" /></g><g
         id="g3449"><path
           id="path3451"
           d="m 340.397,163.25 v 2.601 c 0,0 0.173,0.828 1,0.828 0.827,0 1,-0.828 1,-0.828 v -2.601 h -2 z"
           inkscape:connector-curvature="0"
           style="fill:#a88862" /><path
           id="path3453"
           d="m 341.345,164.195 c -1.655,0 -1.655,-0.828 -1.655,-0.828 0,0 -1.656,0.828 -2.484,0 -0.828,-0.828 0,-2.73 0,-2.73 0.828,-2.484 0.828,-4.387 0.828,-4.387 h 6.623 c 0,0 0,1.903 0.828,4.387 0,0 0.828,1.779 0,2.606 -0.828,0.828 -2.484,0.062 -2.484,0.062 0,0 -10e-4,0.89 -1.656,0.89 z"
           inkscape:connector-curvature="0"
           style="fill:#3e7543" /><path
           id="path3455"
           d="m 338.861,151.25 c 0,0 -0.828,3.162 -1.656,4.817 -0.371,0.74 0,1.581 0.828,1.581 1.656,0 1.656,-0.866 1.656,-0.866 0,0 0,1.636 1.655,1.636 1.655,0 1.655,-1.664 1.655,-1.664 0,0 0,0.823 1.656,0.823 0.828,0 1.199,-0.767 0.828,-1.507 -0.828,-1.656 -1.655,-4.82 -1.655,-4.82 h -4.967 z"
           inkscape:connector-curvature="0"
           style="fill:#5ea05b" /><path
           id="path3457"
           d="m 341.345,143.084 c -0.828,0 -2.483,4.967 -3.312,6.623 -0.828,1.655 0,2.483 0.828,2.483 0.828,0 0.828,-0.828 0.828,-0.828 0,0 0,1.656 1.655,1.656 1.655,0 1.655,-1.656 1.655,-1.656 0,0 0,0.828 0.829,0.828 0.827,0 1.655,-0.828 0.827,-2.483 -0.826,-1.656 -2.482,-6.623 -3.31,-6.623 z"
           inkscape:connector-curvature="0"
           style="fill:#7ec172" /></g></g></g><g
     id="_x32_nd"
     transform="translate(0.1035,1.993106)"><path
       d="M 710.397,367.25 V 180.037 C 664.625,146.59 595.698,119.922 506.254,118.062 c -90.139,-1.875 -161.894,63.754 -253.488,76.816 -58.078,8.282 -111.789,2.07 -151.711,-3.379 -29.922,-4.084 -57.263,0.105 -67.151,3.28 -16.117,5.174 -29.506,11.756 -36.508,18.48 V 367.25"
       id="landscape"
       inkscape:connector-curvature="0"
       style="fill:#acde78" /><path
       id="path3661"
       d="m 474.907,135.062 c 0,-2.796 11.344,-15.558 24.202,-32.547 10.104,-13.351 21.539,-29.028 24.178,-30.788 2.64,-1.759 4.851,-3.518 9.249,1.76 4.397,5.277 12.812,18.187 18.282,24.904 7.037,8.64 19.353,26.367 19.353,26.367 0,0 9.842,13.511 8.534,14.545 -4.005,3.172 -7.211,20.2 -9.85,21.08 -2.639,0.88 -20.059,7.917 -29.734,7.037 -9.675,-0.88 -14.954,-0.88 -20.231,-0.88 -5.278,0 -16.714,-14.922 -24.631,-14.922 -7.916,0.001 -19.352,-13.763 -19.352,-16.556 z"
       inkscape:connector-curvature="0"
       style="fill:#6dc274" /><path
       id="path3663"
       d="m 498.92,121.68 c -3.562,-1.781 -7.917,3.393 -7.917,7.194 0,3.801 3.519,7.319 7.917,4.241 4.397,-3.079 2.639,-10.116 0,-11.435 z"
       inkscape:connector-curvature="0"
       style="fill:#acde78" /><path
       id="path3665"
       d="m 463.298,145.43 c 0,0 6.737,-12.382 12.751,-15.393 10.269,-5.141 6.76,8.202 6.795,11.874 0.035,3.673 4.645,7.917 8.604,5.718 3.958,-2.199 4.838,-7.003 10.556,-7.68 5.717,-0.677 8.792,10.318 8.792,10.318 0,0 3.636,-5.718 10.016,-4.68 3.959,0.644 4.014,8.039 8.589,8.198 4.575,0.16 5.59,-12.28 15.705,-13.837 10.116,-1.557 11.343,9.942 16.887,4.633 5.545,-5.31 -0.139,-11.848 7.99,-14.531 6.872,-2.269 12.964,7.681 14.707,9.091 5.273,4.266 6.522,9.807 12.058,15.085 5.535,5.277 9.934,17.152 11.693,21.991 1.759,4.838 3.958,18.032 3.958,18.032 0,0 -99.84,-8.795 -149.101,-48.819 z"
       inkscape:connector-curvature="0"
       style="fill:#acde78" /><path
       id="path3667"
       d="m 363.229,172.022 c 0,0 14.912,-32.167 20.896,-41.125 6.942,-10.391 13.229,-27.167 16.487,-27.482 3.259,-0.315 13.056,21.72 22.27,35.613 7.023,10.591 15.114,32.994 15.114,32.994 0,0 -27.334,36.364 -74.767,0 z"
       inkscape:connector-curvature="0"
       style="fill:#6dc274" /><path
       id="path3669"
       d="m 424.335,142.148 13.047,28.211 2.475,-0.861 c 0,0 -4.275,-8.493 -6.472,-13.244 -2.197,-4.751 -7.108,-13.49 -9.05,-14.106 z"
       inkscape:connector-curvature="0"
       style="fill:#498a6d" /><path
       id="path3671"
       d="m 443.503,173.493 c 0,0 -5.514,-7.623 -11.407,-5.57 -5.893,2.052 0,9.676 0,9.676 0,0 -12.637,-2.933 -22.605,-1.466 -9.97,1.466 -17.301,7.916 -20.232,7.916 -2.931,0 -8.21,-11.119 -13.487,-12.89 -5.278,-1.771 -8.414,2.806 -8.414,2.806 0,0 1.959,-7.507 0.788,-12.346 -1.171,-4.839 -9.381,7.918 -10.554,11.216 -1.173,3.298 40.171,18.838 40.171,18.838 0,0 37.53,-6.158 45.74,-18.18 z"
       inkscape:connector-curvature="0"
       style="fill:#acde78" /><path
       id="path3673"
       d="m 369.832,164.11 c 0,0 -4.7,-4.802 -12.266,2.64 -5.141,5.058 -3.348,12.372 -6.133,11.729 -2.061,-0.476 -0.733,-10.779 5.424,-15.688 5.705,-4.548 18.473,-7.174 12.975,1.319 z"
       inkscape:connector-curvature="0"
       style="fill:#6dc274" /><path
       id="path3675"
       d="m 362.35,178.953 c -1.754,-0.988 0.88,-5.46 5.729,-8.594 3.261,-2.106 5.198,0.322 6.142,0.447 1.576,0.208 6.08,1.541 3.948,1.001 -3.948,-1.001 -7.53,-0.221 -10.214,2.156 -2.707,2.396 -3.851,5.979 -5.605,4.99 z"
       inkscape:connector-curvature="0"
       style="fill:#6dc274" /><g
       id="g3677"><path
         id="path3679"
         d="m 206.397,205.25 v 7.199 c 0,0 -0.301,1.801 1.5,1.801 1.801,0 1.5,-1.801 1.5,-1.801 v -7.199 h -3 z"
         inkscape:connector-curvature="0"
         style="fill:#a88862" /><path
         id="path3681"
         d="m 207.479,208.845 c -3.603,0 -3.603,-1.801 -3.603,-1.801 0,0 -3.604,1.801 -5.405,0 -1.801,-1.801 0,-5.595 0,-5.595 1.801,-5.405 1.801,-9.199 1.801,-9.199 h 14.412 c 0,0 0,3.794 1.801,9.199 0,0 1.801,3.698 0,5.499 -1.801,1.802 -5.405,0.048 -5.405,0.048 0,0 10e-4,1.849 -3.601,1.849 z"
         inkscape:connector-curvature="0"
         style="fill:#3e7543" /><path
         id="path3683"
         d="m 202.074,180.25 c 0,0 -1.801,7.093 -3.602,10.695 -0.807,1.612 0,3.546 1.801,3.546 3.604,0 3.604,-1.83 3.604,-1.83 0,0 0,3.587 3.603,3.587 3.602,0 3.602,-3.609 3.602,-3.609 0,0 0,1.798 3.604,1.798 1.801,0 2.607,-1.88 1.801,-3.492 -1.801,-3.603 -3.602,-10.697 -3.602,-10.697 h -10.811 z"
         inkscape:connector-curvature="0"
         style="fill:#5ea05b" /><path
         id="path3685"
         d="m 207.479,162.91 c -1.802,0 -5.405,10.808 -7.207,14.412 -1.801,3.602 0,5.403 1.801,5.403 1.803,0 1.803,-1.801 1.803,-1.801 0,0 0,3.603 3.603,3.603 3.602,0 3.602,-3.603 3.602,-3.603 0,0 0,1.801 1.803,1.801 1.801,0 3.602,-1.801 1.801,-5.403 -1.801,-3.604 -5.405,-14.414 -7.206,-14.412 z"
         inkscape:connector-curvature="0"
         style="fill:#7ec172" /></g><g
       id="g3687"><path
         id="path3689"
         d="m 219.397,220.25 v 7.01 c 0,0 -0.49,1.99 1.5,1.99 1.99,0 1.5,-1.99 1.5,-1.99 v -7.01 h -3 z"
         inkscape:connector-curvature="0"
         style="fill:#a88862" /><path
         id="path3691"
         d="m 220.556,223.278 c -3.98,0 -3.98,-1.99 -3.98,-1.99 0,0 -3.982,1.99 -5.972,0 -1.99,-1.99 0,-6.027 0,-6.027 1.99,-5.973 1.99,-10.011 1.99,-10.011 h 15.923 c 0,0 0,4.038 1.99,10.011 0,0 1.99,4.009 0,5.999 -1.99,1.991 -5.972,0.015 -5.972,0.015 0,0 0.001,2.003 -3.979,2.003 z"
         inkscape:connector-curvature="0"
         style="fill:#3e7543" /><path
         id="path3693"
         d="m 214.584,192.25 c 0,0 -1.99,7.554 -3.98,11.535 -0.89,1.781 0,3.776 1.99,3.776 3.982,0 3.982,-2.091 3.982,-2.091 0,0 0,3.928 3.98,3.928 3.98,0 3.98,-4.004 3.98,-4.004 0,0 0,1.978 3.981,1.978 1.99,0 2.88,-1.799 1.99,-3.58 -1.99,-3.981 -3.98,-11.541 -3.98,-11.541 h -11.943 z"
         inkscape:connector-curvature="0"
         style="fill:#5ea05b" /><path
         id="path3695"
         d="m 220.556,172.526 c -1.99,0 -5.972,11.941 -7.962,15.923 -1.99,3.98 0,5.97 1.99,5.97 1.992,0 1.992,-1.99 1.992,-1.99 0,0 0,3.98 3.98,3.98 3.98,0 3.98,-3.98 3.98,-3.98 0,0 0,1.99 1.992,1.99 1.99,0 3.98,-1.99 1.99,-5.97 -1.991,-3.981 -5.973,-15.924 -7.962,-15.923 z"
         inkscape:connector-curvature="0"
         style="fill:#7ec172" /></g><g
       id="g3697"><path
         id="path3699"
         d="m 44.397,204.25 v 7.948 c 0,0 -0.052,2.052 2,2.052 2.052,0 2,-2.052 2,-2.052 v -7.948 h -4 z"
         inkscape:connector-curvature="0"
         style="fill:#a88862" /><path
         id="path3701"
         d="m 46.111,208.092 c -4.104,0 -4.104,-2.053 -4.104,-2.053 0,0 -4.106,2.053 -6.159,0 -2.052,-2.052 0,-6.341 0,-6.341 C 37.9,193.539 37.9,189.25 37.9,189.25 h 16.421 c 0,0 0,4.289 2.052,10.448 0,0 2.052,4.198 0,6.249 -2.052,2.053 -6.158,0.047 -6.158,0.047 0,0 10e-4,2.098 -4.104,2.098 z"
         inkscape:connector-curvature="0"
         style="fill:#3e7543" /><path
         id="path3703"
         d="m 39.953,175.25 c 0,0 -2.052,8.212 -4.104,12.316 -0.918,1.837 0,4.105 2.052,4.105 4.106,0 4.106,-2.052 4.106,-2.052 0,0 0,4.104 4.104,4.104 4.104,0 4.104,-4.104 4.104,-4.104 0,0 0,2.053 4.106,2.053 2.052,0 2.971,-2.269 2.052,-4.105 -2.052,-4.105 -4.104,-12.316 -4.104,-12.316 H 39.953 z"
         inkscape:connector-curvature="0"
         style="fill:#5ea05b" /><path
         id="path3705"
         d="m 46.111,155.751 c -2.052,0 -6.159,12.315 -8.211,16.421 -2.052,4.104 0,6.157 2.052,6.157 2.054,0 2.054,-2.052 2.054,-2.052 0,0 0,4.104 4.104,4.104 4.104,0 4.104,-4.104 4.104,-4.104 0,0 0,2.052 2.054,2.052 2.052,0 4.104,-2.052 2.052,-6.157 -2.05,-4.105 -6.156,-16.422 -8.209,-16.421 z"
         inkscape:connector-curvature="0"
         style="fill:#7ec172" /></g><g
       id="g3707"><path
         id="path3709"
         d="m 104.397,219.25 v 8.037 c 0,0 -0.464,1.963 1.5,1.963 1.963,0 1.5,-1.963 1.5,-1.963 v -8.037 h -3 z"
         inkscape:connector-curvature="0"
         style="fill:#a88862" /><path
         id="path3711"
         d="m 105.596,223.358 c -3.927,0 -3.927,-1.963 -3.927,-1.963 0,0 -3.928,1.963 -5.891,0 -1.963,-1.963 0,-6.108 0,-6.108 1.963,-5.891 1.963,-10.037 1.963,-10.037 h 15.71 c 0,0 0,4.146 1.963,10.037 0,0 1.963,4.037 0,6 -1.963,1.964 -5.891,0.055 -5.891,0.055 0,0 -10e-4,2.016 -3.927,2.016 z"
         inkscape:connector-curvature="0"
         style="fill:#3e7543" /><path
         id="path3713"
         d="m 99.704,192.25 c 0,0 -1.963,7.701 -3.926,11.628 -0.879,1.757 0,3.85 1.963,3.85 3.928,0 3.928,-2.001 3.928,-2.001 0,0 0,3.906 3.927,3.906 3.927,0 3.927,-3.937 3.927,-3.937 0,0 0,1.959 3.928,1.959 1.963,0 2.842,-2.019 1.963,-3.776 -1.963,-3.927 -3.926,-11.63 -3.926,-11.63 H 99.704 z"
         inkscape:connector-curvature="0"
         style="fill:#5ea05b" /><path
         id="path3715"
         d="m 105.596,173.287 c -1.963,0 -5.892,11.782 -7.855,15.71 -1.963,3.926 0,5.89 1.963,5.89 1.965,0 1.965,-1.963 1.965,-1.963 0,0 0,3.927 3.927,3.927 3.927,0 3.927,-3.927 3.927,-3.927 0,0 0,1.963 1.965,1.963 1.963,0 3.926,-1.963 1.963,-5.89 -1.964,-3.928 -5.892,-15.711 -7.855,-15.71 z"
         inkscape:connector-curvature="0"
         style="fill:#7ec172" /></g><g
       id="g3717"><path
         id="path3719"
         d="m 589.397,228.25 v 7.165 c 0,0 -0.336,1.835 1.5,1.835 1.835,0 1.5,-1.835 1.5,-1.835 v -7.165 h -3 z"
         inkscape:connector-curvature="0"
         style="fill:#a88862" /><path
         id="path3721"
         d="m 590.291,231.742 c -3.672,0 -3.672,-1.836 -3.672,-1.836 0,0 -3.673,1.836 -5.508,0 -1.836,-1.835 0,-5.992 0,-5.992 1.835,-5.508 1.835,-9.664 1.835,-9.664 h 14.688 c 0,0 0,4.156 1.836,9.664 0,0 1.835,3.915 0,5.75 -1.836,1.836 -5.509,0.122 -5.509,0.122 0,0 10e-4,1.956 -3.67,1.956 z"
         inkscape:connector-curvature="0"
         style="fill:#3e7543" /><path
         id="path3723"
         d="m 584.782,202.25 c 0,0 -1.836,7.403 -3.671,11.074 -0.822,1.644 0,3.701 1.835,3.701 3.673,0 3.673,-1.821 3.673,-1.821 0,0 0,3.678 3.672,3.678 3.671,0 3.671,-3.667 3.671,-3.667 0,0 0,1.838 3.673,1.838 1.836,0 2.657,-2.087 1.836,-3.729 -1.836,-3.672 -3.672,-11.074 -3.672,-11.074 h -11.017 z"
         inkscape:connector-curvature="0"
         style="fill:#5ea05b" /><path
         id="path3725"
         d="m 590.291,184.926 c -1.836,0 -5.509,11.016 -7.345,14.688 -1.835,3.671 0,5.507 1.836,5.507 1.837,0 1.837,-1.836 1.837,-1.836 0,0 0,3.671 3.672,3.671 3.671,0 3.671,-3.671 3.671,-3.671 0,0 0,1.836 1.837,1.836 1.836,0 3.672,-1.836 1.836,-5.507 -1.836,-3.673 -5.509,-14.69 -7.344,-14.688 z"
         inkscape:connector-curvature="0"
         style="fill:#7ec172" /></g><g
       id="tree"><path
         id="path3728"
         d="m 642.397,269.25 v 7.943 c 0,0 -0.057,2.057 2,2.057 2.057,0 2,-2.057 2,-2.057 v -7.943 h -4 z"
         inkscape:connector-curvature="0"
         style="fill:#a88862" /><path
         id="path3730"
         d="m 644.087,273.078 c -4.113,0 -4.113,-2.057 -4.113,-2.057 0,0 -4.115,2.057 -6.172,0 -2.057,-2.057 0,-6.328 0,-6.328 2.057,-6.172 2.057,-10.443 2.057,-10.443 h 16.457 c 0,0 0,4.271 2.057,10.443 0,0 2.057,4.193 0,6.249 -2.057,2.058 -6.172,0.04 -6.172,0.04 0,0 -10e-4,2.096 -4.114,2.096 z"
         inkscape:connector-curvature="0"
         style="fill:#3e7543" /><path
         id="path3732"
         d="m 637.915,240.25 c 0,0 -2.057,8.188 -4.113,12.301 -0.92,1.841 0,4.093 2.057,4.093 4.115,0 4.115,-2.067 4.115,-2.067 0,0 0,4.107 4.113,4.107 4.113,0 4.113,-4.116 4.113,-4.116 0,0 0,2.056 4.115,2.056 2.057,0 2.978,-2.233 2.057,-4.073 -2.057,-4.114 -4.113,-12.301 -4.113,-12.301 h -12.344 z"
         inkscape:connector-curvature="0"
         style="fill:#5ea05b" /><path
         id="path3734"
         d="m 644.087,220.625 c -2.057,0 -6.172,12.342 -8.229,16.457 -2.057,4.114 0,6.17 2.057,6.17 2.059,0 2.059,-2.057 2.059,-2.057 0,0 0,4.113 4.113,4.113 4.113,0 4.113,-4.113 4.113,-4.113 0,0 0,2.057 2.059,2.057 2.057,0 4.113,-2.057 2.057,-6.17 -2.057,-4.115 -6.172,-16.459 -8.229,-16.457 z"
         inkscape:connector-curvature="0"
         style="fill:#7ec172" /></g><path
       id="path3736"
       d="m 445.403,144.715 c 23.677,25.308 87.363,18.403 78.091,51.661 -9.617,34.494 -196.731,-21.958 -197.261,44.875 -0.513,64.718 161.398,45.4 197.261,134"
       stroke-miterlimit="10"
       inkscape:connector-curvature="0"
       style="fill:none;stroke:#ffffff;stroke-width:5;stroke-linecap:round;stroke-linejoin:round;stroke-miterlimit:10;stroke-opacity:0.5;stroke-dasharray:16, 18" /><g
       id="shrub"><path
         id="path3739"
         d="m 373.092,236.931 c 0,0 -4.442,1.426 -5.763,4.549 -2.99,7.073 2.717,9.784 2.717,9.784 l 7.25,5.375 c 0,0 5.709,4.581 11.477,1.736 4.429,-2.185 5.247,-4.763 5.247,-4.763 0,0 3.942,2.124 7.582,0 3.639,-2.123 3.639,-6.976 3.639,-6.976 0,0 3.943,-3.641 3.337,-8.796 -0.606,-5.156 -7.582,-5.763 -7.582,-5.763 0,0 -1.517,-6.37 -6.976,-7.886 -5.46,-1.517 -10.01,3.64 -10.01,3.64 0,0 -4.246,-2.426 -7.886,0.304 -3.64,2.73 -3.032,8.796 -3.032,8.796 z"
         inkscape:connector-curvature="0"
         style="fill:#7ec66a" /><circle
         id="circle3741"
         r="1.8329999"
         cy="253.084"
         cx="388.23099"
         sodipodi:cx="388.23099"
         sodipodi:cy="253.084"
         sodipodi:rx="1.8329999"
         sodipodi:ry="1.8329999"
         style="fill:#68af5b"
         d="m 390.06399,253.084 c 0,1.01234 -0.82066,1.833 -1.833,1.833 -1.01234,0 -1.833,-0.82066 -1.833,-1.833 0,-1.01234 0.82066,-1.833 1.833,-1.833 1.01234,0 1.833,0.82066 1.833,1.833 z" /><ellipse
         id="ellipse3743"
         ry="1.6670001"
         rx="1.5"
         cy="237.25"
         cx="395.23001"
         sodipodi:cx="395.23001"
         sodipodi:cy="237.25"
         sodipodi:rx="1.5"
         sodipodi:ry="1.6670001"
         style="fill:#68af5b"
         d="m 396.73001,237.25 c 0,0.92066 -0.67157,1.667 -1.5,1.667 -0.82843,0 -1.5,-0.74634 -1.5,-1.667 0,-0.92066 0.67157,-1.667 1.5,-1.667 0.82843,0 1.5,0.74634 1.5,1.667 z" /></g></g><g
     id="_x31_st"
     transform="matrix(1.0017325,0,0,1,-0.47653165,1.5658234)"><path
       d="M 709.397,367.25 V 243.751 c 0,0 5.362,13.809 -52.836,48.917 -61.138,36.881 -290.822,29.453 -389.842,-9.68 C 167.7,243.854 44.803,173.489 -1.603,208.604 V 367.25"
       id="landscape_4_"
       inkscape:connector-curvature="0"
       style="fill:#7ec172" /><path
       id="path3967"
       d="m 413.397,320.93 c -59.031,90 -200.408,-83.025 -223.991,40.32"
       stroke-miterlimit="10"
       inkscape:connector-curvature="0"
       style="fill:none;stroke:#ffffff;stroke-width:5;stroke-linecap:round;stroke-linejoin:round;stroke-miterlimit:10;stroke-opacity:0.5;stroke-dasharray:16, 18" /><g
       id="g3969"><path
         id="path3971"
         d="m 550.397,308.25 v 16.746 c 0,0 -0.755,4.254 3.5,4.254 4.255,0 3.5,-4.254 3.5,-4.254 V 308.25 h -7 z"
         inkscape:connector-curvature="0"
         style="fill:#a88862" /><path
         id="path3973"
         d="m 553.119,316.483 c -8.51,0 -8.51,-4.255 -8.51,-4.255 0,0 -8.513,4.255 -12.768,0 -4.254,-4.254 0,-13.233 0,-13.233 4.255,-12.768 4.255,-21.745 4.255,-21.745 h 34.044 c 0,0 0,8.978 4.255,21.745 0,0 4.255,8.746 0,12.999 -4.255,4.256 -12.768,0.118 -12.768,0.118 0,0 0.001,4.371 -8.508,4.371 z"
         inkscape:connector-curvature="0"
         style="fill:#3e7543" /><path
         id="path3975"
         d="m 540.352,249.25 c 0,0 -4.255,16.598 -8.51,25.107 -1.903,3.808 0,8.297 4.255,8.297 8.513,0 8.513,-4.359 8.513,-4.359 0,0 0,8.454 8.51,8.454 8.509,0 8.509,-8.535 8.509,-8.535 0,0 0,4.243 8.513,4.243 4.255,0 6.159,-4.285 4.255,-8.092 -4.255,-8.511 -8.51,-25.114 -8.51,-25.114 h -25.535 z"
         inkscape:connector-curvature="0"
         style="fill:#5ea05b" /><path
         id="path3977"
         d="m 553.119,207.974 c -4.255,0 -12.768,25.531 -17.022,34.044 -4.255,8.509 0,12.764 4.255,12.764 4.258,0 4.258,-4.254 4.258,-4.254 0,0 0,8.509 8.51,8.509 8.509,0 8.509,-8.509 8.509,-8.509 0,0 0,4.254 4.258,4.254 4.255,0 8.51,-4.254 4.255,-12.764 -4.256,-8.513 -12.769,-34.047 -17.023,-34.044 z"
         inkscape:connector-curvature="0"
         style="fill:#7ec172" /></g><g
       id="g3979"><path
         id="path3981"
         d="m 155.397,252.25 v 17.508 c 0,0 -0.492,4.492 4,4.492 4.492,0 4,-4.492 4,-4.492 V 252.25 h -8 z"
         inkscape:connector-curvature="0"
         style="fill:#a88862" /><path
         id="path3983"
         d="m 158.827,260.771 c -8.984,0 -8.984,-4.492 -8.984,-4.492 0,0 -8.987,4.492 -13.479,0 -4.492,-4.492 0,-14.021 0,-14.021 4.492,-13.479 4.492,-23.008 4.492,-23.008 h 35.942 c 0,0 0,9.528 4.492,23.008 0,0 4.492,9.258 0,13.749 -4.492,4.494 -13.479,0.137 -13.479,0.137 0,0 0,4.627 -8.984,4.627 z"
         inkscape:connector-curvature="0"
         style="fill:#3e7543" /><path
         id="path3985"
         d="m 145.347,189.25 c 0,0 -4.492,17.793 -8.984,26.776 -2.01,4.021 0,8.895 4.492,8.895 8.987,0 8.987,-4.536 8.987,-4.536 0,0 0,8.959 8.984,8.959 8.984,0 8.984,-8.995 8.984,-8.995 0,0 0,4.488 8.987,4.488 4.492,0 6.502,-4.79 4.492,-8.808 -4.492,-8.986 -8.984,-26.78 -8.984,-26.78 h -26.958 z"
         inkscape:connector-curvature="0"
         style="fill:#5ea05b" /><path
         id="path3987"
         d="m 158.827,146.21 c -4.492,0 -13.479,26.955 -17.971,35.942 -4.492,8.984 0,13.476 4.492,13.476 4.496,0 4.496,-4.492 4.496,-4.492 0,0 0,8.984 8.984,8.984 8.984,0 8.984,-8.984 8.984,-8.984 0,0 0,4.492 4.496,4.492 4.492,0 8.984,-4.492 4.492,-13.476 -4.494,-8.986 -13.481,-35.945 -17.973,-35.942 z"
         inkscape:connector-curvature="0"
         style="fill:#7ec172" /></g><g
       id="g3989"><path
         id="path3991"
         d="m 266.397,277.25 v 17.636 c 0,0 -0.865,4.364 3.5,4.364 4.365,0 3.5,-4.364 3.5,-4.364 V 277.25 h -7 z"
         inkscape:connector-curvature="0"
         style="fill:#a88862" /><path
         id="path3993"
         d="m 269.246,286.153 c -8.729,0 -8.729,-4.365 -8.729,-4.365 0,0 -8.733,4.365 -13.097,0 -4.364,-4.364 0,-13.902 0,-13.902 4.364,-13.098 4.364,-22.636 4.364,-22.636 h 34.923 c 0,0 0,9.538 4.365,22.636 0,0 4.364,9.135 0,13.498 -4.365,4.367 -13.098,0.204 -13.098,0.204 0,0 0.001,4.565 -8.728,4.565 z"
         inkscape:connector-curvature="0"
         style="fill:#3e7543" /><path
         id="path3995"
         d="m 256.148,217.25 c 0,0 -4.365,16.993 -8.729,25.723 -1.954,3.906 0,8.495 4.364,8.495 8.733,0 8.733,-4.48 8.733,-4.48 0,0 0,8.668 8.729,8.668 8.729,0 8.729,-8.758 8.729,-8.758 0,0 0,4.352 8.732,4.352 4.365,0 6.318,-4.363 4.365,-8.269 -4.365,-8.73 -8.729,-25.73 -8.729,-25.73 h -26.194 z"
         inkscape:connector-curvature="0"
         style="fill:#5ea05b" /><path
         id="path3997"
         d="m 269.246,174.841 c -4.364,0 -13.097,26.191 -17.462,34.923 -4.364,8.729 0,13.094 4.365,13.094 4.368,0 4.368,-4.365 4.368,-4.365 0,0 0,8.729 8.729,8.729 8.729,0 8.729,-8.729 8.729,-8.729 0,0 0,4.365 4.368,4.365 4.364,0 8.729,-4.365 4.364,-13.094 -4.364,-8.732 -13.097,-34.927 -17.461,-34.923 z"
         inkscape:connector-curvature="0"
         style="fill:#7ec172" /></g></g></svg>